<?xml version="1.0" encoding="UTF-8" standalone="no"?>
<svg
   viewBox="0 0 241.19001 60.989001"
   version="1.1"
   id="svg36"
   sodipodi:docname="jobleLogoNomBlanc.svg"
   width="241.19"
   height="60.988998"
   inkscape:version="1.1 (c68e22c387, 2021-05-23)"
   xmlns:inkscape="http://www.inkscape.org/namespaces/inkscape"
   xmlns:sodipodi="http://sodipodi.sourceforge.net/DTD/sodipodi-0.dtd"
   xmlns="http://www.w3.org/2000/svg"
   xmlns:svg="http://www.w3.org/2000/svg">
  <sodipodi:namedview
     id="namedview38"
     pagecolor="#c8c8c8"
     bordercolor="#666666"
     borderopacity="1.0"
     inkscape:pageshadow="2"
     inkscape:pageopacity="1"
     inkscape:pagecheckerboard="true"
     showgrid="false"
     inkscape:zoom="1.5402958"
     inkscape:cx="240.2136"
     inkscape:cy="103.55154"
     inkscape:window-width="3200"
     inkscape:window-height="1771"
     inkscape:window-x="-9"
     inkscape:window-y="-9"
     inkscape:window-maximized="1"
     inkscape:current-layer="svg36" />
  <defs
     id="defs4">
    <style
       id="style2">.cls-1{fill:#fff5f5;}</style>
  </defs>
  <g
     id="g834"
     transform="translate(4)">
    <path
       class="cls-1"
       d="m 60.920076,60.638804 q -11.66,0 -18.14,-8.74 -6.48,-8.74 -6.49,-21.6 0,-12.76 6.89,-21.3499999 a 22.2,22.2 0 0 1 18.17,-8.58999996 q 11.38,0 18,8.58999996 6.62,8.5899999 6.62,21.4799999 0,13.53 -6.88,21.86 -6.88,8.33 -18.17,8.35 z m 0.08,-8.49 a 12.13,12.13 0 0 0 9.64,-4.71 q 3.94,-4.71 3.94,-17.09 0,-10.07 -3.25,-15.78 a 10.82,10.82 0 0 0 -10.11,-5.7299999 q -13.54,0 -13.54,21.7999999 0,10.57 3.45,16 a 11,11 0 0 0 9.87,5.5 z"
       id="path26"
       style="fill:#fff5f5;fill-opacity:1;stroke:#303f9f;stroke-width:0.7;stroke-miterlimit:4;stroke-dasharray:none;stroke-opacity:1" />
    <path
       class="cls-1"
       d="M 97.830076,55.638804 V 5.3588041 a 4.09,4.09 0 0 1 4.100004,-4.1 h 18.68 a 32.48,32.48 0 0 1 9.6,1.2 13,13 0 0 1 6.6,5 14.79,14.79 0 0 1 2.78,8.9999999 13.16,13.16 0 0 1 -2.83,8.42 11.47,11.47 0 0 1 -1,1.16 4.14,4.14 0 0 0 0.41,6.3 12.39,12.39 0 0 1 2.18,2.07 14.41,14.41 0 0 1 3.17,9.34 15.74,15.74 0 0 1 -4.43,11.37 q -4.42,4.6 -13.64,4.61 h -21.52 a 4.1,4.1 0 0 1 -4.100004,-4.09 z m 10.000004,-33.92 a 4.1,4.1 0 0 0 4.1,4.1 h 8.75 a 8.3,8.3 0 0 0 6.23,-2.35 8.24,8.24 0 0 0 2.29,-6 c 0,-2.69 -0.87,-4.66 -2.61,-5.93 a 10.13,10.13 0 0 0 -6.15,-1.8999999 h -8.53 a 4.1,4.1 0 0 0 -4.1,4.0999999 z m 0,25.14 a 4.09,4.09 0 0 0 4.1,4.1 h 9.52 a 9.77,9.77 0 0 0 6.81,-2.32 7.84,7.84 0 0 0 2.51,-6.12 7.85,7.85 0 0 0 -2.55,-6 9.56,9.56 0 0 0 -6.75,-2.36 h -9.56 a 4.1,4.1 0 0 0 -4.1,4.11 z"
       id="path28"
       style="fill:#fff5f5;fill-opacity:1;stroke:#303f9f;stroke-width:0.7;stroke-miterlimit:4;stroke-dasharray:none;stroke-opacity:1" />
    <path
       class="cls-1"
       d="m 184.99008,59.728804 h -27.78 a 4.11,4.11 0 0 1 -4.1,-4.11 V 5.3588041 a 4.1,4.1 0 0 1 4.1,-4.1 h 2.89 a 4.1,4.1 0 0 1 4.11,4.1 V 46.068804 a 4.09,4.09 0 0 0 4.1,4.1 h 16.68 a 4.1,4.1 0 0 1 4.1,4.11 v 1.36 a 4.1,4.1 0 0 1 -4.1,4.09 z"
       id="path30"
       style="fill:#fff5f5;fill-opacity:1;stroke:#303f9f;stroke-width:0.7;stroke-miterlimit:4;stroke-dasharray:none;stroke-opacity:1" />
    <path
       class="cls-1"
       d="m 18.980076,0.35001247 a 4.1,4.1 0 0 1 4.1,4.10000003 V 40.730012 q 0,10.06 -4.35,14.54 -4.35,4.48 -13.8599997,4.46 a 46.89,46.89 0 0 1 -4.88,-0.23 4.09,4.09 0 0 1 -3.64,-4.09 v -0.68 a 4.11,4.11 0 0 1 4.31,-4.1 c 1,0.05 1.84,0.08 2.46,0.08 q 5.2299997,0.02 7.2299997,-1.98 2,-2 1.93,-8 V 4.4500125 a 4.1,4.1 0 0 1 4.07,-4.10000003 z"
       id="path24"
       style="fill:#fff5f5;fill-opacity:1;stroke:#303f9f;stroke-width:0.7;stroke-miterlimit:4;stroke-dasharray:none;stroke-opacity:1" />
    <path
       class="cls-1"
       d="m 232.74008,58.820012 h -29.79 a 4.1,4.1 0 0 1 -4.1,-4.09 V 4.4500125 a 4.09,4.09 0 0 1 4.1,-4.10000003 h 29.4 a 4.09,4.09 0 0 1 4.1,4.10000003 v 0.49 a 4.09,4.09 0 0 1 -4.1,4.1 h -18.86 a 4.11,4.11 0 0 0 -4.14,4.1099995 v 7.64 a 4.11,4.11 0 0 0 4.11,4.1 h 13.55 a 4.1,4.1 0 0 1 4.1,4.1 v 0.28 a 4.09,4.09 0 0 1 -4.1,4.1 h -13.52 a 4.11,4.11 0 0 0 -4.11,4.1 v 8.16 a 4.1,4.1 0 0 0 4.11,4.1 h 19.25 a 4.11,4.11 0 0 1 4.1,4.11 v 0.89 a 4.11,4.11 0 0 1 -4.1,4.09 z"
       id="path32"
       style="fill:#fff5f5;fill-opacity:1;stroke:#303f9f;stroke-width:0.7;stroke-miterlimit:4;stroke-dasharray:none;stroke-opacity:1" />
  </g>
</svg>
