<?xml version="1.0" encoding="UTF-8" standalone="no"?>
<svg
   viewBox="0 0 244.46 60.278999"
   version="1.1"
   id="svg27"
   sodipodi:docname="jobleLogoNomBleu.svg"
   width="244.46001"
   height="60.278999"
   inkscape:version="1.1 (c68e22c387, 2021-05-23)"
   xmlns:inkscape="http://www.inkscape.org/namespaces/inkscape"
   xmlns:sodipodi="http://sodipodi.sourceforge.net/DTD/sodipodi-0.dtd"
   xmlns:xlink="http://www.w3.org/1999/xlink"
   xmlns="http://www.w3.org/2000/svg"
   xmlns:svg="http://www.w3.org/2000/svg">
  <sodipodi:namedview
     id="namedview29"
     pagecolor="#ffffff"
     bordercolor="#666666"
     borderopacity="1.0"
     inkscape:pageshadow="2"
     inkscape:pageopacity="0.0"
     inkscape:pagecheckerboard="0"
     showgrid="false"
     inkscape:zoom="5.5490475"
     inkscape:cx="115.1549"
     inkscape:cy="30.18536"
     inkscape:window-width="3200"
     inkscape:window-height="1771"
     inkscape:window-x="-9"
     inkscape:window-y="-9"
     inkscape:window-maximized="1"
     inkscape:current-layer="svg27" />
  <defs
     id="defs13">
    <style
       id="style2">.cls-1{fill:url(#Dégradé_sans_nom_14);}.cls-2{fill:url(#Dégradé_sans_nom_14-2);}.cls-3{fill:url(#Dégradé_sans_nom_14-3);}.cls-4{fill:url(#Dégradé_sans_nom_14-4);}.cls-5{fill:url(#Dégradé_sans_nom_14-5);}</style>
    <linearGradient
       id="Dégradé_sans_nom_14"
       x1="12.26"
       y1="-44.470001"
       x2="13.96"
       y2="70.910004"
       gradientUnits="userSpaceOnUse">
      <stop
         offset="0"
         stop-color="#a9b1de"
         id="stop4" />
      <stop
         offset="1"
         stop-color="#606fc2"
         id="stop6" />
    </linearGradient>
    <linearGradient
       id="Dégradé_sans_nom_14-2"
       x1="59.700001"
       y1="-45.16"
       x2="61.389999"
       y2="70.209999"
       xlink:href="#D%C3%A9grad%C3%A9_sans_nom_14"
       gradientTransform="translate(-4)" />
    <linearGradient
       id="Dégradé_sans_nom_14-3"
       x1="115.9"
       y1="-45.990002"
       x2="117.6"
       y2="69.389999"
       xlink:href="#D%C3%A9grad%C3%A9_sans_nom_14" />
    <linearGradient
       id="Dégradé_sans_nom_14-4"
       x1="165.25999"
       y1="-46.720001"
       x2="166.96001"
       y2="68.660004"
       xlink:href="#D%C3%A9grad%C3%A9_sans_nom_14"
       gradientTransform="translate(4)" />
    <linearGradient
       id="Dégradé_sans_nom_14-5"
       x1="210.16"
       y1="-47.380001"
       x2="211.86"
       y2="68"
       xlink:href="#D%C3%A9grad%C3%A9_sans_nom_14"
       gradientTransform="translate(8)" />
    <linearGradient
       inkscape:collect="always"
       xlink:href="#D%C3%A9grad%C3%A9_sans_nom_14"
       id="linearGradient846"
       gradientUnits="userSpaceOnUse"
       x1="12.26"
       y1="-44.470001"
       x2="13.96"
       y2="70.910004"
       gradientTransform="translate(-6)" />
  </defs>
  <g
     id="g864"
     transform="translate(6,0.00878365)">
    <path
       class="cls-1"
       d="m 16.63,0.9 a 4.11,4.11 0 0 1 4.1,4.1 v 36.25 q 0,10.06 -4.35,14.54 -4.35,4.48 -13.86,4.48 A 46.89,46.89 0 0 1 -2.36,60 4.09,4.09 0 0 1 -6,56 v -0.71 a 4.11,4.11 0 0 1 4.31,-4.1 c 1,0.05 1.84,0.08 2.46,0.08 q 5.27,0 7.19,-2 1.92,-2 1.93,-8 V 5 A 4.11,4.11 0 0 1 14,0.9 Z"
       id="path15"
       style="fill:url(#linearGradient846)" />
    <path
       class="cls-2"
       d="m 56.57,60.27 q -11.66,0 -18.14,-8.74 -6.48,-8.74 -6.49,-21.59 0,-12.77 6.89,-21.35 A 22.2,22.2 0 0 1 57,0 q 11.38,0 18,8.59 6.62,8.59 6.62,21.48 0,13.53 -6.88,21.87 -6.88,8.34 -18.17,8.33 z m 0.08,-8.48 a 12.11,12.11 0 0 0 9.64,-4.72 Q 70.24,42.36 70.23,30 70.23,19.93 66.98,14.22 A 10.84,10.84 0 0 0 56.87,8.48 q -13.54,0 -13.54,21.8 0,10.59 3.45,16 a 11,11 0 0 0 9.87,5.51 z"
       id="path17"
       style="fill:url(#D%C3%A9grad%C3%A9_sans_nom_14-2)" />
    <path
       class="cls-3"
       d="M 95.48,55.27 V 5 a 4.1,4.1 0 0 1 4.1,-4.1 h 18.68 a 32.48,32.48 0 0 1 9.6,1.2 13,13 0 0 1 6.6,5 14.81,14.81 0 0 1 2.78,9 13.14,13.14 0 0 1 -2.83,8.42 11.47,11.47 0 0 1 -1,1.16 4.14,4.14 0 0 0 0.41,6.3 12.39,12.39 0 0 1 2.18,2.07 14.41,14.41 0 0 1 3.17,9.34 15.74,15.74 0 0 1 -4.43,11.37 q -4.42,4.6 -13.64,4.61 H 99.58 a 4.1,4.1 0 0 1 -4.1,-4.1 z m 10,-33.93 a 4.09,4.09 0 0 0 4.1,4.1 h 8.75 a 8.3,8.3 0 0 0 6.23,-2.35 8.24,8.24 0 0 0 2.29,-6 q 0,-4 -2.61,-5.93 a 10.13,10.13 0 0 0 -6.13,-1.91 h -8.53 a 4.1,4.1 0 0 0 -4.1,4.1 z m 0,25.14 a 4.1,4.1 0 0 0 4.1,4.11 h 9.52 a 9.81,9.81 0 0 0 6.83,-2.27 7.88,7.88 0 0 0 2.51,-6.13 7.86,7.86 0 0 0 -2.55,-6 9.55,9.55 0 0 0 -6.75,-2.35 h -9.56 a 4.09,4.09 0 0 0 -4.1,4.1 z"
       id="path19"
       style="fill:url(#D%C3%A9grad%C3%A9_sans_nom_14-3)" />
    <path
       class="cls-4"
       d="m 184.64,59.37 h -27.78 a 4.11,4.11 0 0 1 -4.1,-4.1 V 5 a 4.11,4.11 0 0 1 4.1,-4.1 h 2.89 a 4.11,4.11 0 0 1 4.11,4.1 v 40.71 a 4.1,4.1 0 0 0 4.1,4.11 h 16.68 a 4.09,4.09 0 0 1 4.1,4.1 v 1.35 a 4.1,4.1 0 0 1 -4.1,4.1 z"
       id="path21"
       style="fill:url(#D%C3%A9grad%C3%A9_sans_nom_14-4)" />
    <path
       class="cls-5"
       d="M 234.39,59.37 H 204.6 a 4.1,4.1 0 0 1 -4.1,-4.1 V 5 a 4.1,4.1 0 0 1 4.1,-4.1 H 234 A 4.1,4.1 0 0 1 238.1,5 V 5.49 A 4.09,4.09 0 0 1 234,9.59 H 215.14 A 4.11,4.11 0 0 0 211,13.7 v 7.64 a 4.1,4.1 0 0 0 4.11,4.1 h 13.55 a 4.1,4.1 0 0 1 4.1,4.11 v 0.27 a 4.09,4.09 0 0 1 -4.1,4.1 H 215.14 A 4.11,4.11 0 0 0 211,38 v 8.15 a 4.11,4.11 0 0 0 4.11,4.11 h 19.25 a 4.1,4.1 0 0 1 4.1,4.1 v 0.88 a 4.11,4.11 0 0 1 -4.07,4.13 z"
       id="path23"
       style="fill:url(#D%C3%A9grad%C3%A9_sans_nom_14-5)" />
  </g>
</svg>
