<?xml version="1.0" encoding="UTF-8" standalone="no"?>
<svg
   viewBox="0 0 549.99999 402.99998"
   version="1.1"
   id="svg220"
   sodipodi:docname="jobleIlluFemme.svg"
   width="550"
   height="403"
   inkscape:version="1.1 (c68e22c387, 2021-05-23)"
   xmlns:inkscape="http://www.inkscape.org/namespaces/inkscape"
   xmlns:sodipodi="http://sodipodi.sourceforge.net/DTD/sodipodi-0.dtd"
   xmlns="http://www.w3.org/2000/svg"
   xmlns:svg="http://www.w3.org/2000/svg">
  <sodipodi:namedview
     id="namedview222"
     pagecolor="#ffffff"
     bordercolor="#666666"
     borderopacity="1.0"
     inkscape:pageshadow="2"
     inkscape:pageopacity="0.0"
     inkscape:pagecheckerboard="true"
     showgrid="false"
     inkscape:zoom="2.0478632"
     inkscape:cx="315.93907"
     inkscape:cy="295.18573"
     inkscape:window-width="3200"
     inkscape:window-height="1771"
     inkscape:window-x="-9"
     inkscape:window-y="-9"
     inkscape:window-maximized="1"
     inkscape:current-layer="svg220" />
  <defs
     id="defs7">
    <style
       id="style2">.cls-1,.cls-10,.cls-14,.cls-16,.cls-29,.cls-8{fill:none;}.cls-2{fill:#f2f2f2;}.cls-3{fill:#2b8bc6;}.cls-3,.cls-7{opacity:0.5;}.cls-15,.cls-4{fill:#fff;}.cls-5{opacity:0.29;}.cls-11,.cls-12,.cls-6{fill:#545556;}.cls-6{opacity:0.31;}.cls-10,.cls-14,.cls-8{stroke:#fff;stroke-linecap:round;}.cls-10,.cls-14,.cls-16,.cls-29,.cls-8{stroke-miterlimit:10;}.cls-8{stroke-width:2.71px;}.cls-9{opacity:0.4;}.cls-10{stroke-width:1.65px;}.cls-12{font-size:18px;font-family:CenturyGothic, Century Gothic;letter-spacing:0.01em;}.cls-13{fill:#ddd;}.cls-14{stroke-width:3.22px;}.cls-15{opacity:0.53;}.cls-16{stroke:#000;stroke-width:0.25px;}.cls-17{fill:#eae6e5;}.cls-18{fill:#805130;}.cls-19{fill:#80502f;}.cls-20{fill:#9c411d;}.cls-21{fill:#a87c27;}.cls-22{fill:#878787;}.cls-23{fill:#b2b2b2;}.cls-24{fill:#959192;}.cls-25{fill:#f29053;}.cls-26{fill:#2664ae;}.cls-27{clip-path:url(#clip-path);}.cls-28{fill:#1d1d1b;}.cls-29{stroke:#1d1d1b;stroke-width:0.5px;}.cls-30{fill:#2b1e15;}.cls-31{fill:#f08c25;}</style>
    <clipPath
       id="clip-path"
       transform="translate(0 -0.43)">
      <rect
         class="cls-1"
         x="202.53999"
         y="213.59"
         width="44.68"
         height="8.3000002"
         id="rect4" />
    </clipPath>
  </defs>
  <ellipse
     class="cls-3"
     cx="-53.029251"
     cy="319.55786"
     rx="172.39999"
     ry="274.23999"
     transform="rotate(-61.1)"
     id="ellipse12"
     style="fill:#5c6bc0;fill-opacity:1" />
  <ellipse
     class="cls-4"
     cx="-61.829956"
     cy="382.54443"
     rx="118.79"
     ry="173.98"
     transform="rotate(-65.92)"
     id="ellipse14"
     style="fill:#eeeeee;fill-opacity:1" />
  <g
     class="cls-5"
     id="g26"
     transform="translate(-92.89569,-136.80915)">
    <path
       class="cls-6"
       d="m 261.27,301.57 h 77.94 c 8.26,0 15,4 15,8.8 V 326 c 0,4.84 -6.76,8.8 -15,8.8 H 281 c 1.23,3.37 3.19,8.67 3.92,10.4 1.26,2.95 -12.14,-5.65 -19.31,-10.4 h -4.36 c -8.26,0 -15,-4 -15,-8.8 v -15.63 c 0,-4.84 6.75,-8.8 15.02,-8.8 z"
       transform="translate(0,-0.43)"
       id="path16" />
    <g
       class="cls-7"
       id="g24">
      <line
         class="cls-8"
         x1="253.44"
         y1="309.14001"
         x2="347.04001"
         y2="309.14001"
         id="line18" />
      <line
         class="cls-8"
         x1="253.44"
         y1="316.73999"
         x2="347.04001"
         y2="316.73999"
         id="line20" />
      <line
         class="cls-8"
         x1="253.44"
         y1="324.34"
         x2="294.57999"
         y2="324.34"
         id="line22" />
    </g>
  </g>
  <g
     class="cls-9"
     id="g38"
     transform="translate(-92.89569,-136.80915)">
    <path
       class="cls-6"
       d="m 360.75,328.64 h -47.42 c -5,0 -9.13,2.41 -9.13,5.35 v 9.52 c 0,2.95 4.11,5.36 9.13,5.36 h 35.4 c -0.75,2.05 -1.94,5.27 -2.38,6.32 -0.77,1.79 7.38,-3.43 11.75,-6.32 h 2.65 c 5,0 9.14,-2.41 9.14,-5.36 V 334 c 0,-2.95 -4.12,-5.36 -9.14,-5.36 z"
       transform="translate(0,-0.43)"
       id="path28" />
    <g
       class="cls-7"
       id="g36">
      <line
         class="cls-10"
         x1="365.51001"
         y1="333.07999"
         x2="308.57001"
         y2="333.07999"
         id="line30" />
      <line
         class="cls-10"
         x1="365.51001"
         y1="337.70001"
         x2="308.57001"
         y2="337.70001"
         id="line32" />
      <line
         class="cls-10"
         x1="365.51001"
         y1="342.32001"
         x2="340.48999"
         y2="342.32001"
         id="line34" />
    </g>
  </g>
  <rect
     class="cls-2"
     x="79.21431"
     y="63.590843"
     width="306.70999"
     height="25.309999"
     rx="12.66"
     id="rect40"
     style="fill:#e8eaf6;fill-opacity:1" />
  <path
     class="cls-11"
     d="m 97.78431,77.99085 a 6,6 0 0 0 1.43,-3.89 6,6 0 1 0 -6,6 5.89,5.89 0 0 0 3.5,-1.14 l 4.53,5.18 a 0.76,0.76 0 0 0 0.55,0.25 0.73,0.73 0 0 0 0.56,-1.21 z m -1,-1.12 a 4.67,4.67 0 0 1 -1.07,1 4.57,4.57 0 1 1 1.07,-1 z"
     id="path42" />
  <text
     class="cls-12"
     id="text44"
     x="112.93431"
     y="81.770851">Job</text>
  <path
     class="cls-13"
     d="m 319.93431,97.76085 h -103.59 c -11,0 -20,7.47 -20,16.6 v 29.52 c 0,9.13 9,16.6 20,16.6 h 77.34 c -1.64,6.36 -4.24,16.36 -5.22,19.61 -1.67,5.56 16.14,-10.64 25.68,-19.61 h 5.79 c 11,0 20,-7.47 20,-16.6 v -29.51 c -0.04,-9.13 -9.02,-16.61 -20,-16.61 z"
     id="path46" />
  <g
     class="cls-7"
     id="g60"
     transform="translate(-92.89569,-136.80915)">
    <line
       class="cls-14"
       x1="303.54999"
       y1="243.28"
       x2="355.92999"
       y2="243.28"
       id="line48" />
    <line
       class="cls-14"
       x1="303.54999"
       y1="251.78999"
       x2="421.5"
       y2="251.78999"
       id="line50" />
    <line
       class="cls-14"
       x1="303.54999"
       y1="260.29999"
       x2="421.5"
       y2="260.29999"
       id="line52" />
    <line
       class="cls-14"
       x1="303.54999"
       y1="268.79999"
       x2="421.5"
       y2="268.79999"
       id="line54" />
    <line
       class="cls-14"
       x1="303.54999"
       y1="277.79999"
       x2="421.5"
       y2="277.79999"
       id="line56" />
    <line
       class="cls-14"
       x1="303.54999"
       y1="286.31"
       x2="369.12"
       y2="286.31"
       id="line58" />
  </g>
  <line
     class="cls-16"
     x1="209.5343"
     y1="241.13086"
     x2="207.99432"
     y2="243.98087"
     id="line65" />
  <path
     class="cls-17"
     d="m 502.80431,307.24085 c 0,0 -338,-70.39 -348.8,-72.2 -10.8,-1.81 -82.77,0.27 -93.9,8.37 -8.41,6.12 -20.53,14.93 -8.41,28.76 12.12,13.83 222.84,88.78 254.41,90.24 31.57,1.46 30.8,-14 57.19,-18.92 26.39,-4.92 76.34,4.41 93.83,0.71 17.7,-3.75 32.14,-12.95 45.48,-16.64 13.34,-3.69 34.4,-13 34.4,-13 z"
     id="path67" />
  <path
     class="cls-18"
     d="m 391.22431,92.32085 c -1.25,0.7 -4.33,-0.13 -4.31,1.31 0.18,11 -1.2,17.74 -12.43,30.7 -2.7,2.2 3.33,15.94 10.18,15.93 1,0 -10.9,24.49 -27.88,13.78 -1.1,-0.69 -3.37,-1.73 -3.26,-2.72 a 36,36 0 0 1 1,-5.16 c 0.47,-4 2.13,-2.17 -1.59,-10.18 -12.29,-2.26 -23.25,-11 -27.63,-21.35 -0.35,-0.82 0,-3.09 -0.23,-3.92 a 23.07,23.07 0 0 1 -1.22,-8.25 c 0,-0.18 0,-0.36 0,-0.55 0,-0.58 0,-1.18 0,-1.81 0,-1.17 -0.06,-2.41 -0.14,-3.71 v 0 c 0.09,-0.75 0.15,-1.21 0.15,-1.21 h -0.23 c -0.68,-9.7 -2.78,-21.35 -2.78,-21.35 0,0 -0.19,-28 72.49,0.67 6.08,2.38 2,15.54 -2.12,17.82 z"
     id="path69" />
  <path
     class="cls-19"
     d="m 323.91431,95.16085 c 0,0 -0.06,0.46 -0.15,1.21 0,-0.39 -0.05,-0.79 -0.08,-1.19 z"
     id="path71" />
  <path
     class="cls-19"
     d="m 320.96431,312.76085 c 0,0 14.18,-13.81 32.81,-10 18.63,3.81 27.33,6.15 27.33,1.54 0,-4.61 13.07,18.22 5.34,13.65 -8.78,-5.19 -26,13.49 -37.8,12.7 -11.8,-0.79 -39.01,-5.01 -27.68,-17.89 z"
     id="path73" />
  <path
     class="cls-20"
     d="m 435.28431,160.34085 c -11.09,-6.86 -20.55,-11.52 -32.75,-17.42 l -14.38,-6.94 c 0.54,0.38 3.43,2.78 0.64,8.29 -14.35,28.48 -40.39,9.78 -36.57,-0.56 -9.16,1.91 -16.41,1.86 -22.6,4.43 -13.89,5.76 -17.78,23 -38.07,75 -6.21,15.89 -17.32,26.87 -28.18,34.27 a 98,98 0 0 1 -29.87,13.74 l 18,20.93 a 242.05,242.05 0 0 0 43.41,-24.75 c 0.63,-0.46 6.06,-5.13 6.61,-5.69 22.54,-22.84 21.85,-46.79 22.54,-45.66 18.48,30.72 5.39,54.74 5.39,54.74 l 37.82,7.12 39.41,8.59 -0.95,0.53 -16.63,9.26 h -0.08 l -14.31,8 -1.11,0.62 a 3.5,3.5 0 0 0 0.74,-0.08 c 15.79,-6.35 14.5,20.82 8.9,28.12 -1.16,1.52 6.58,-2.92 6.1,-2.29 0.41,-0.22 2,0.88 14.4,-6 v 0 c 14.89,-8.25 34.26,-19.22 48.22,-28.06 8.12,-5.14 14.41,-9.55 16.92,-12.28 1,-18.88 -15.78,-94.29 -33.6,-123.91 z m -18.51,90 c 0.76,-7 9.21,-31.62 10,-38.62 5.89,24.63 15.77,54.9 14.06,62.62 -4,0.08 -9.38,1.66 -15.39,4 -0.81,-2.65 -1.61,-5.29 -2.43,-7.94 a 36.55,36.55 0 0 1 -1.58,-6.67 c -0.33,-2.55 -4.95,-10.75 -4.66,-13.36 z"
     id="path75" />
  <path
     class="cls-21"
     d="m 386.91431,139.14085 c 0.27,0 0.13,-3.78 -0.92,-4.31 -1.05,-0.53 -3.41,-1.88 -6,-0.86 -0.04,0 2.47,4.7 6.92,5.17 z"
     id="path77" />
  <path
     class="cls-4"
     d="m 354.83431,120.05085 c 0,0 -6.32,3.44 -12.8,2.23 0,0 11.75,6.28 17,-1.51 l 3.37,-4.82 z"
     id="path79" />
  <polygon
     class="cls-22"
     points="176.92,350.49 174.73,352.77 243.66,435.27 371.54,467.46 300.24,380.22 "
     id="polygon81"
     transform="translate(-92.89569,-136.80915)" />
  <polygon
     class="cls-22"
     points="411.93,461.7 373.85,467.46 373.86,464.37 410.65,459.04 "
     id="polygon83"
     transform="translate(-92.89569,-136.80915)" />
  <path
     class="cls-23"
     d="m 284.69431,282.11085 93,20.28 c 0,0 -18.4,1.32 -28.35,-0.81 -9.95,-2.13 -25.18,6 -26.77,8.57 -1.59,2.57 -4.83,8 -4.81,10.05 0.02,2.05 -36.77,7.36 -36.77,7.36 l -23.79,-28.54 c 0,0 25.09,-10.41 27.49,-16.91 z"
     id="path85" />
  <path
     class="cls-24"
     d="m 284.33431,286.41085 64.57,13.87 c 0,0 -30.2,1.82 -31.54,18 l -39.26,6.42 -9.78,-10.15 -12.92,-15.53 23.13,-11.93 a 8.32,8.32 0 0 1 5.8,-0.68 z"
     id="path87" />
  <path
     class="cls-25"
     d="m 120.46431,263.99085 20.47,23 c 0,0 -6.37,10 -21.49,10 -15.12,0 -18.73,-7.76 -18.73,-7.76 l -1.15,-29.28 c 0,0 14.78,6.81 20.9,4.04 z"
     id="path89" />
  <path
     class="cls-25"
     d="m 119.03431,263.13085 -7.44,-9 c -1.37,-1.66 -5.66,-0.66 -8,-0.11 -1,0.23 -4,1.77 -4.15,2.21 -0.08,0.18 -0.45,2.06 4.3,4.23 3.58,1.63 13.75,3.54 15.29,2.67 z"
     id="path91" />
  <path
     class="cls-25"
     d="m 95.32431,258.76085 3.47,0.68 a 4.91,4.91 0 0 0 -3.91,3.9 c -0.82,4.36 -2,8.09 4.53,18.76 0,0.01 -13.88,-10.55 -4.09,-23.34 z"
     id="path93" />
  <path
     class="cls-26"
     d="m 54.38431,278.46085 c 67.13,36.52 182,65.45 240.5,83.95 9.07,2.87 9.51,3.26 13.59,7.47 10.36,10.69 -48.95,-8.49 -160,-45.18 -83.37,-27.55 -94.09,-46.24 -94.09,-46.24 z"
     id="path95"
     style="fill:#3f51b5;fill-opacity:1" />
  <path
     class="cls-20"
     d="m 354.37431,143.39085 c 0,0 -0.24,6.48 -1.23,7.07 a 6.71,6.71 0 0 1 -1.26,-4.17 c 0.28,-2 0.86,-2.58 0.86,-2.58 z"
     id="path97" />
  <path
     class="cls-28"
     d="m 388.21431,81.56085 a 55.5,55.5 0 0 1 3.18,-4.61 c 0.91,-1.19 2.39,-3 4.12,-2.42 2.74,1 2.24,5.35 1.79,7.49 a 24.08,24.08 0 0 1 -4.46,9.35 6.39,6.39 0 0 1 -1.65,1.71 c -0.42,0.26 -0.87,0.46 -1.29,0.72 a 2.93,2.93 0 0 0 -1.57,2.36 c -0.05,0.78 1.43,0.6 1.48,-0.09 0.1,-1.52 1.82,-1.8 2.84,-2.63 a 16.06,16.06 0 0 0 3.19,-4.25 c 1.88,-3.11 3.43,-7 3.28,-10.65 -0.1,-2.62 -1.53,-5.64 -4.62,-5.2 a 6.53,6.53 0 0 0 -3.91,2.61 46.17,46.17 0 0 0 -3.61,5.15 c -0.49,0.78 0.85,1.06 1.23,0.46 z"
     id="path99" />
  <path
     class="cls-28"
     d="m 388.00431,93.98085 a 9,9 0 0 0 0,4.58 16,16 0 0 1 -0.6,6.56 30.16,30.16 0 0 1 -6.41,11.34 111.84,111.84 0 0 1 -9.31,9.42 c -3.56,3.34 -7.36,6.8 -12.13,8.24 a 20.69,20.69 0 0 1 -13.63,-1 42.6,42.6 0 0 1 -19.3,-19 c -1.82,-4.27 -1.91,-9 -1.7,-13.56 0.17,-3.93 0.79,-7.84 0.65,-11.78 a 27.4,27.4 0 0 0 -3.8,-12.39 c -0.39,-0.68 -2.5,0 -2,0.89 a 26.58,26.58 0 0 1 3.63,11.94 c 0.15,3.8 -0.47,7.6 -0.65,11.4 -0.22,4.59 -0.2,9.41 1.55,13.72 a 35.26,35.26 0 0 0 8.2,11.49 c 3.4,3.35 7.09,6.43 11.53,8.28 a 24.4,24.4 0 0 0 13.49,1.74 c 4.78,-0.84 8.94,-3.43 12.59,-6.52 a 126.63,126.63 0 0 0 10.33,-9.86 c 3.43,-3.64 6.6,-7.68 8.42,-12.39 a 21,21 0 0 0 1.45,-7.17 13.15,13.15 0 0 0 -0.34,-3 6.05,6.05 0 0 1 0.2,-3.21 c 0.26,-0.85 -1.94,-0.56 -2.18,0.24 z"
     id="path101" />
  <path
     class="cls-28"
     d="m 375.42431,122.97085 a 6.72,6.72 0 0 0 -0.51,5.62 19.65,19.65 0 0 0 2.78,4.77 c 2.19,3 5,5.77 8.79,6.6 a 1.07,1.07 0 0 0 1,-0.28 c 0.19,-0.23 0.18,-0.56 -0.17,-0.63 -3.49,-0.78 -6.09,-3.3 -8.15,-6.09 a 20.75,20.75 0 0 1 -2.69,-4.41 6.14,6.14 0 0 1 0.31,-5.46 c 0.37,-0.68 -1.1,-0.63 -1.38,-0.12 z"
     id="path103" />
  <path
     class="cls-28"
     d="m 351.43431,136.18085 a 24.87,24.87 0 0 1 2.58,7.16 13,13 0 0 1 -1.22,7.42 c -0.31,0.66 1.14,0.53 1.36,0.07 a 13.72,13.72 0 0 0 1.37,-7.42 23.9,23.9 0 0 0 -2.64,-7.62 c -0.26,-0.53 -1.68,-0.08 -1.45,0.39 z"
     id="path105" />
  <path
     class="cls-28"
     d="m 381.98431,133.76085 a 5.21,5.21 0 0 1 3.55,1 4,4 0 0 1 1,2.16 5.7,5.7 0 0 1 0.35,1.82 9.45,9.45 0 0 1 -1.11,2.89 29.07,29.07 0 0 1 -7,9.47 c -3.19,2.86 -6.86,5.13 -11.21,5.46 a 17.47,17.47 0 0 1 -11.62,-3.26 9.37,9.37 0 0 1 -4,-5.66 4.12,4.12 0 0 1 0.45,-2.78 7.68,7.68 0 0 1 0.66,-0.95 c 0.1,-0.12 0.24,-0.25 0.33,-0.38 l 0.16,-0.17 c 0.34,-0.26 0.17,-0.27 -0.5,0 0.27,0.27 1.61,-0.26 1.36,-0.5 -0.88,-0.88 -2.45,0.89 -2.88,1.46 a 5,5 0 0 0 -0.42,5.44 c 2.15,4.42 7.55,6.77 12.19,7.29 9.81,1.09 18.6,-5.77 23,-14.06 a 27.28,27.28 0 0 0 1.8,-4 4.34,4.34 0 0 0 -0.22,-2.7 3.42,3.42 0 0 0 -1.52,-2.43 7,7 0 0 0 -3.84,-0.77 c -0.41,0 -1.58,0.67 -0.62,0.62 z"
     id="path107" />
  <path
     class="cls-28"
     d="m 386.87431,135.98085 a 57.2,57.2 0 0 1 8.28,2.6 c 4.5,1.64 8.94,3.42 13.34,5.29 9.32,4 18.76,8.16 27.27,13.68 2.32,1.5 5.38,3.3 6.69,5.86 a 45.2,45.2 0 0 1 2.29,6.35 c 2.55,7.85 4.75,15.81 6.92,23.77 q 4.22,15.53 8,31.16 c 2.43,10 4.76,19.95 6.84,30 1.37,6.62 2.9,13.38 3.36,20.14 a 59.68,59.68 0 0 1 -0.33,9 10,10 0 0 1 -1.03,3.93 c 0.17,-0.28 -0.38,0.36 -0.26,0.25 -0.33,0.3 -0.67,0.57 -1,0.83 -1.12,0.86 -2.27,1.66 -3.44,2.45 -9.13,6.18 -18.79,11.65 -28.48,16.9 a 425.17,425.17 0 0 1 -42,20.12 c -3.64,1.48 -7.3,2.9 -11,4.23 -1.28,0.46 -0.92,2 0.4,1.49 a 372.27,372.27 0 0 0 44,-19.49 c 11.43,-5.88 22.68,-12.14 33.54,-19 2.91,-1.84 5.85,-3.69 8.57,-5.81 a 6.91,6.91 0 0 0 1.74,-1.67 c 1.37,-2.2 1.4,-5.46 1.51,-7.95 0.3,-6.42 -0.78,-12.65 -2,-18.94 -1.81,-9.61 -4,-19.15 -6.23,-28.67 q -3.82,-16.15 -8.07,-32.22 c -2.37,-9 -4.81,-17.88 -7.52,-26.74 -0.87,-2.84 -1.76,-5.69 -2.78,-8.49 a 18.14,18.14 0 0 0 -1.15,-2.73 11.78,11.78 0 0 0 -2.63,-2.87 59.94,59.94 0 0 0 -10.37,-6.72 c -4.67,-2.56 -9.47,-4.88 -14.32,-7.09 a 219.83,219.83 0 0 0 -26,-10.3 31.46,31.46 0 0 0 -3.43,-0.9 c -1.07,-0.2 -2.2,1.31 -0.75,1.58 z"
     id="path109" />
  <path
     class="cls-28"
     d="m 439.97431,159.94085 c -4.09,-0.66 -7.54,2 -10.47,4.53 a 23.07,23.07 0 0 0 -6.93,10.23 25,25 0 0 0 -1,9.84 c 0,0.48 1.15,0.22 1.1,-0.3 a 22.52,22.52 0 0 1 5.36,-17.12 26.85,26.85 0 0 1 4,-3.62 c 2.3,-1.71 4.52,-3.28 7.55,-2.78 0.53,0.08 1.13,-0.66 0.39,-0.78 z"
     id="path111" />
  <path
     class="cls-28"
     d="m 429.23431,218.12085 c -0.54,-2.25 -1.25,-4.45 -1.87,-6.68 a 24.39,24.39 0 0 1 -1.17,-6.32 c 0,-0.66 -1.46,-0.38 -1.46,0.16 a 25,25 0 0 0 1.12,6.34 c 0.63,2.29 1.37,4.56 1.94,6.88 0.13,0.57 1.58,0.19 1.44,-0.38 z"
     id="path113" />
  <path
     class="cls-28"
     d="m 440.96431,274.13085 c -5.48,0.16 -10.91,2.17 -16,4.15 h 1 c -0.84,-2.94 -0.67,-6.1 -1.7,-9 -0.51,-1.44 -1.16,-2.84 -1.76,-4.24 a 101.31,101.31 0 0 1 -4.66,-12 c -0.85,-3.05 0.38,-6.51 1.07,-9.51 1.19,-5.19 2.57,-10.33 4,-15.45 1.43,-5.12 3,-10.41 4.76,-15.52 l -1.44,0.32 c 2.34,9.78 5,19.48 7.6,29.2 2.12,8 4.37,16.08 5.68,24.28 0.42,2.61 0.95,5.53 0.39,8.16 -0.07,0.35 1.36,0.13 1.44,-0.24 a 20.25,20.25 0 0 0 -0.14,-6.68 c -0.48,-3.55 -1.24,-7.07 -2,-10.56 -2.16,-9.34 -4.76,-18.59 -7.22,-27.85 -1.47,-5.56 -2.92,-11.11 -4.26,-16.7 -0.09,-0.36 -1.35,0.05 -1.44,0.32 -3.34,9.66 -6.08,19.61 -8.44,29.55 -0.49,2 -1,4.09 -1.33,6.15 a 10.82,10.82 0 0 0 -0.34,3.92 c 0.77,4 2.73,7.83 4.3,11.52 0.75,1.78 1.55,3.55 2.24,5.35 1.15,3 1,6.27 1.84,9.32 0.07,0.28 0.85,0 1,0 4.7,-1.84 9.73,-3.75 14.83,-3.91 0.37,0.05 1.54,-0.61 0.58,-0.58 z"
     id="path115" />
  <path
     class="cls-28"
     d="m 374.59431,305.58085 c 1.2,-3 5.24,-4.11 7.91,-5.45 3.14,-1.56 6.23,-3.23 9.33,-4.87 7.07,-3.75 14.14,-7.52 21.36,-11 4.07,-1.95 8.18,-3.81 12.37,-5.48 0.93,-0.37 0.09,-0.93 -0.6,-0.66 -15.21,6 -29.17,14.58 -43.86,21.74 -2.9,1.41 -6.67,2.61 -8,5.87 -0.2,0.51 1.25,0.35 1.46,-0.16 z"
     id="path117" />
  <path
     class="cls-28"
     d="m 440.59431,274.97085 h 0.65 0.27 c 0.33,0 0.65,0 1,0.09 a 1,1 0 0 0 0.57,-0.1 0.72,0.72 0 0 0 0.37,-0.34 c 0.14,-0.34 -0.12,-0.58 -0.44,-0.62 a 13.36,13.36 0 0 0 -2.28,-0.12 1,1 0 0 0 -0.54,0.2 0.6,0.6 0 0 0 -0.25,0.39 c 0,0.38 0.36,0.49 0.67,0.49 z"
     id="path119" />
  <path
     class="cls-28"
     d="m 372.87431,306.85085 c 2.4,-1.66 5.44,-2.95 8.17,-1.24 2.25,1.41 3.42,4.12 4,6.6 a 29.63,29.63 0 0 1 0.54,8.35 61,61 0 0 1 -0.33,7.28 8.56,8.56 0 0 1 -1.82,4.07 c -0.35,0.43 -0.87,1 -1.47,0.92 -0.85,-0.09 -1.44,-1.18 -1.81,-1.83 -0.27,-0.49 -1.67,0 -1.33,0.6 0.7,1.26 1.73,2.39 3.3,2.17 a 4.64,4.64 0 0 0 3,-2.16 c 1.8,-2.58 1.69,-5.48 1.82,-8.48 0.14,-3.4 0.43,-6.83 -0.2,-10.19 -0.57,-3 -1.87,-6.39 -4.6,-8.1 -3.33,-2.09 -7.3,-0.57 -10.23,1.47 -0.81,0.55 0.4,0.91 0.93,0.54 z"
     id="path121" />
  <path
     class="cls-28"
     d="m 353.57431,142.24085 c -2.09,0.48 -4.26,0.7 -6.39,1 -3.31,0.5 -6.62,1 -9.89,1.73 -7,1.5 -14.24,4.55 -18.44,10.67 -2.65,3.88 -4.25,8.46 -6.08,12.75 l -6.23,14.62 -12.57,29.45 c -4.32,10.12 -8.25,20.73 -14.89,29.62 -0.82,1.1 1.23,1.41 1.82,0.62 5.61,-7.51 9.24,-16.18 12.9,-24.75 l 12.38,-29 c 4,-9.41 7.8,-19 12.09,-28.25 a 26.47,26.47 0 0 1 3.53,-5.94 20.34,20.34 0 0 1 5.18,-4.28 29.77,29.77 0 0 1 8.78,-3.59 c 3.51,-0.85 7.08,-1.44 10.65,-2 2.51,-0.39 5.08,-0.65 7.56,-1.21 1.35,-0.31 0.95,-1.77 -0.4,-1.47 z"
     id="path123" />
  <path
     class="cls-28"
     d="m 329.29431,187.46085 c -3.4,4.88 -6.51,10.33 -7.38,16.31 a 24.43,24.43 0 0 0 1.67,12.36 c 1.59,4.09 3.77,7.93 5.54,11.95 a 49.24,49.24 0 0 1 4.16,15.24 c 0.85,8.95 -1,18 -3.83,26.44 -0.26,0.77 1.19,0.72 1.38,0.14 2.52,-7.62 4.32,-15.6 4.1,-23.67 a 47.15,47.15 0 0 0 -3.38,-16.2 c -3.13,-7.88 -8.81,-15.46 -8.38,-24.3 0.32,-6.67 3.76,-12.78 7.5,-18.13 0.44,-0.63 -1,-0.63 -1.38,-0.14 z"
     id="path125" />
  <path
     class="cls-28"
     d="m 322.89431,213.88085 a 60.23,60.23 0 0 1 -2.1,15 40,40 0 0 1 -4.56,11.09 c -2,3.28 -3.87,6.7 -5.94,10 -5.88,9.28 -14,16.42 -23.17,22.39 a 227.89,227.89 0 0 1 -30.26,16.13 c -0.92,0.42 -0.07,0.84 0.56,0.55 a 245.3,245.3 0 0 0 28.06,-14.68 99,99 0 0 0 16.36,-12.37 63.58,63.58 0 0 0 9,-10.82 c 2.18,-3.31 4.06,-6.8 6.11,-10.19 a 43.63,43.63 0 0 0 4.85,-10.76 61.2,61.2 0 0 0 2.52,-16.67 c 0,-0.4 -1.45,-0.15 -1.45,0.39 z"
     id="path127" />
  <path
     class="cls-28"
     d="m 280.27431,240.11085 a 80.34,80.34 0 0 1 -13.66,14 c -5.75,4.38 -12.25,7.7 -18.76,10.77 -2.09,1 -4.17,2 -6.26,2.95 -2.09,0.95 -4.66,1.35 -6.91,2.28 -0.42,0.17 -0.81,0.65 -0.53,1.08 0.28,0.43 1.08,0.3 1.47,0.14 2.06,-0.85 4.29,-1.14 6.34,-2 1.89,-0.8 3.73,-1.76 5.6,-2.64 3.26,-1.53 6.51,-3.07 9.68,-4.8 a 100.32,100.32 0 0 0 10,-6.28 57.3,57.3 0 0 0 7.23,-6.43 102.47,102.47 0 0 0 7.56,-8.45 c 0.85,-1.07 -1.21,-1.34 -1.8,-0.59 z"
     id="path129" />
  <path
     class="cls-28"
     d="m 277.39431,245.16085 c 2.2,-2.31 4.86,-4 8.13,-3.11 3.27,0.89 6.23,3.6 8.69,6 0.37,0.37 1.74,-0.18 1.34,-0.57 -2.76,-2.69 -6.07,-5.77 -10,-6.43 -3.65,-0.6 -6.84,1.28 -9.29,3.86 -0.58,0.62 0.82,0.63 1.17,0.26 z"
     id="path131" />
  <path
     class="cls-28"
     d="m 352.10431,110.14085 a 11,11 0 0 1 -7.45,0.36 1.84,1.84 0 0 0 -1.23,0.21 c -0.17,0.09 -0.59,0.4 -0.2,0.52 a 14.21,14.21 0 0 0 9.51,-0.61 c 0.17,-0.07 0.73,-0.29 0.51,-0.55 -0.22,-0.26 -0.94,0 -1.14,0.07 z"
     id="path133" />
  <path
     class="cls-28"
     d="m 80.74431,216.25085 c 8,11.58 17.55,22 26.62,32.72 q 13.35,15.72 26.72,31.42 7.85,9.21 15.66,18.45 c 0.35,0.41 2.39,-0.34 2.05,-0.75 q -27.06,-31.93 -54.2,-63.79 a 235,235 0 0 1 -14.67,-18.63 c -0.37,-0.54 -2.36,0.32 -2.18,0.58 z"
     id="path135" />
  <path
     class="cls-28"
     d="m 206.25431,243.70085 c 4.21,6.13 9,11.86 13.74,17.53 4.74,5.67 9.46,11.13 14.23,16.68 9.84,11.45 19.75,22.85 29.6,34.29 q 8.08,9.39 16.1,18.83 c 0.35,0.41 2.39,-0.35 2.05,-0.75 -19.12,-22.56 -38.69,-44.74 -57.82,-67.29 a 250.16,250.16 0 0 1 -15.72,-19.87 c -0.37,-0.53 -2.36,0.32 -2.18,0.58 z"
     id="path137" />
  <path
     class="cls-28"
     d="m 209.16431,241.23085 c 8.58,11.49 18.18,22.22 27.34,33.24 9.46,11.39 18.83,22.85 28.28,34.26 q 7.88,9.51 15.84,18.95 c 0.12,0.14 0.8,-0.11 0.68,-0.25 -18.85,-22.26 -37.08,-45 -55.92,-67.3 -5.3,-6.25 -10.58,-12.52 -15.49,-19.09 -0.13,-0.18 -0.78,0.11 -0.73,0.19 z"
     id="path139" />
  <path
     class="cls-28"
     d="m 149.86431,299.20085 c 16.6,4.11 33.13,8.48 49.67,12.83 16.75,4.41 33.5,8.8 50.32,12.9 q 13.9,3.39 27.88,6.46 a 2.65,2.65 0 0 0 2.05,-0.55 c 0.44,-0.41 0.36,-0.79 -0.24,-0.92 -16.71,-3.63 -33.31,-7.72 -49.87,-12 -16.78,-4.3 -33.51,-8.77 -50.27,-13.14 q -13.85,-3.62 -27.74,-7.08 c -0.83,-0.2 -3.38,1.08 -1.8,1.47 z"
     id="path141" />
  <path
     class="cls-28"
     d="m 208.24431,242.68085 c -16.34,-3.54 -32.72,-6.94 -49.08,-10.37 -16.36,-3.43 -32.55,-6.86 -48.77,-10.54 q -13.86,-3.15 -27.66,-6.54 c -0.83,-0.21 -3.38,1.07 -1.8,1.46 16.23,4 32.54,7.7 48.88,11.24 16.34,3.54 32.54,6.89 48.82,10.3 q 13.92,2.92 27.81,5.92 a 2.66,2.66 0 0 0 2.05,-0.55 c 0.43,-0.41 0.36,-0.79 -0.25,-0.92 z"
     id="path143" />
  <path
     class="cls-28"
     d="m 81.59431,216.05085 3,-2.27 -1,0.27 c 16.23,4 32.54,7.7 48.88,11.23 16.34,3.53 32.54,6.89 48.82,10.31 q 13.9,2.91 27.81,5.91 c 0.41,0.09 1.69,-0.56 0.9,-0.73 -18.2,-3.95 -36.43,-7.71 -54.65,-11.54 -18.22,-3.83 -36.25,-7.7 -54.25,-11.92 q -7.57,-1.79 -15.14,-3.64 c -0.78,-0.19 -1.57,-0.57 -2.33,-0.17 a 5.22,5.22 0 0 0 -0.8,0.6 l -2.34,1.77 c -0.63,0.48 0.81,0.44 1.15,0.18 z"
     id="path145" />
  <path
     class="cls-28"
     d="m 283.49431,282.64085 c 24,6.08 48.48,10.33 72.69,15.58 6.78,1.47 13.55,3 20.28,4.7 a 3.55,3.55 0 0 0 2,-0.39 c 0.25,-0.12 1,-0.52 0.38,-0.67 -24.4,-6.09 -49.18,-10.44 -73.74,-15.79 -6.44,-1.4 -12.85,-2.87 -19.24,-4.49 a 3.45,3.45 0 0 0 -2,0.39 c -0.25,0.12 -1,0.51 -0.38,0.67 z"
     id="path147" />
  <path
     class="cls-28"
     d="m 280.88431,328.03085 c 12.05,-1.37 24,-3.32 35.92,-5.33 0.75,-0.12 1.15,-1.11 0.16,-0.95 -11.95,2 -23.88,4 -35.92,5.33 -0.76,0.09 -1.15,1.07 -0.16,0.95 z"
     id="path149" />
  <path
     class="cls-28"
     d="m 108.48431,249.47085 c 0.21,-0.28 -0.08,0 -0.33,0.05 -0.25,0.05 -0.65,0.17 -1,0.25 -0.49,0.12 -1,0.21 -1.46,0.34 a 30.56,30.56 0 0 0 -5.74,2.44 c -1.33,0.71 -3.24,1.59 -3.32,3.34 -0.08,1.75 1.46,3.19 2.62,4.12 2.87,2.31 6.66,2.84 10.14,3.62 a 36.48,36.48 0 0 0 12,1 c 1.22,-0.13 1.66,-1.78 0.18,-1.62 a 32.76,32.76 0 0 1 -10.67,-0.8 c -3.17,-0.69 -6.7,-1.13 -9.43,-3 -1.09,-0.76 -3.5,-2.84 -2.24,-4.26 a 8.51,8.51 0 0 1 2.45,-1.41 c 0.76,-0.38 1.53,-0.74 2.31,-1.06 a 23.74,23.74 0 0 1 3.56,-1.13 c 0.86,-0.2 2.15,-0.4 2.72,-1.16 0.84,-1.1 -1.21,-1.47 -1.82,-0.66 z"
     id="path151" />
  <path
     class="cls-28"
     d="m 98.23431,256.43085 c -0.4,-0.94 -1.59,-0.74 -2.35,-0.37 a 8.3,8.3 0 0 0 -2.88,2.86 14.52,14.52 0 0 0 -2.41,8.61 c 0.18,6.79 4.73,12.42 10,16.3 0.42,0.31 1.74,-0.3 1.14,-0.75 -4.27,-3.17 -8,-7.48 -9.26,-12.78 a 15.2,15.2 0 0 1 0.09,-7.22 12.86,12.86 0 0 1 1.46,-3.49 c 0.13,-0.21 2.57,-3.32 2.8,-2.77 0.23,0.55 1.67,0.12 1.45,-0.39 z"
     id="path153" />
  <path
     class="cls-28"
     d="m 98.47431,260.23085 c 1.45,4.81 1.08,10.06 1,15 0,2.42 0.14,4.84 0.13,7.26 -0.01,2.42 -0.12,4.65 0,7 0,0.85 2.22,0.37 2.17,-0.58 -0.12,-2.46 0.05,-4.9 0,-7.36 -0.05,-2.46 -0.14,-4.86 -0.12,-7.29 0.05,-4.83 0.35,-9.95 -1.06,-14.63 -0.26,-0.89 -2.43,-0.3 -2.17,0.58 z"
     id="path155" />
  <path
     class="cls-28"
     d="m 100.04431,289.51085 c 2.84,4.46 8.09,6.9 13.12,7.91 a 28.85,28.85 0 0 0 17.49,-1.87 23,23 0 0 0 8.19,-6.3 c 0.43,-0.52 -1,-0.46 -1.36,-0.06 -7.11,8.65 -20.78,10.22 -30.37,4.93 a 15.8,15.8 0 0 1 -5.73,-5.19 c -0.28,-0.44 -1.68,0 -1.34,0.58 z"
     id="path157" />
  <path
     class="cls-28"
     d="m 308.03431,267.32085 c 15.41,2.66 30.76,5.61 46.12,8.56 q 21.54,4.14 43.05,8.37 l 8.75,1.73 c 0.5,0.1 1.71,-0.66 0.88,-0.83 q -12.5,-2.47 -25,-4.91 -24.48,-4.77 -49,-9.39 c -8,-1.5 -16,-3 -23.95,-4.36 -0.5,-0.08 -1.71,0.69 -0.88,0.83 z"
     id="path159" />
  <path
     class="cls-28"
     d="m 225.10431,248.00085 c 10.84,2.7 21.77,5.07 32.69,7.38 0.82,0.17 2.16,0.75 3,0.57 0.25,-0.06 0.42,-0.36 0.14,-0.5 v 0 c -0.3,-0.15 -0.83,0.29 -0.41,0.49 v 0 l 0.14,-0.5 c 0.36,-0.08 -0.3,-0.11 -0.5,-0.15 l -1.78,-0.37 -6.25,-1.34 q -8.7,-1.89 -17.38,-3.88 c -3.08,-0.71 -6.16,-1.43 -9.23,-2.19 -0.32,-0.08 -0.86,0.38 -0.42,0.49 z"
     id="path161" />
  <path
     class="cls-28"
     d="m 469.55431,297.55085 c 11.18,2.06 22.38,4.1 33.42,6.75 6.36,1.53 12.68,3.16 19.08,4.5 7.77,1.63 15.58,3.1 23.39,4.54 a 3.39,3.39 0 0 0 2,-0.36 c 0.23,-0.12 1,-0.67 0.35,-0.79 -11.07,-2 -22.16,-4.08 -33.11,-6.72 -6.38,-1.54 -12.73,-3.16 -19.16,-4.5 -7.85,-1.64 -15.73,-3.12 -23.62,-4.56 a 3.26,3.26 0 0 0 -2,0.36 c -0.22,0.11 -1,0.66 -0.35,0.78 z"
     id="path163" />
  <path
     class="cls-28"
     d="m 69.44431,239.88085 a 49.23,49.23 0 0 0 -13.71,4.59 32.58,32.58 0 0 0 -10.18,7.4 17.3,17.3 0 0 0 -4.45,11.15 c 0,4.53 2.6,8.11 5.94,10.95 7.48,6.35 16.48,10.9 25.39,14.88 9.64,4.31 19.48,8.2 29.3,12.07 q 29.93,11.84 60.37,22.14 30.44,10.3 61.6,19.15 c 20.8,5.9 41.84,11.06 62.28,18.14 2.59,0.9 5.16,1.83 7.73,2.79 a 2.29,2.29 0 0 0 2.05,-0.24 c 0.35,-0.24 0.92,-1 0.23,-1.23 -19.67,-7.39 -40,-12.69 -60.25,-18.26 -20.25,-5.57 -40.25,-11.58 -60.16,-18.11 -19.91,-6.53 -39.91,-13.63 -59.59,-21.18 q -14.61,-5.61 -29.08,-11.56 c -9.07,-3.74 -18.19,-7.51 -26.66,-12.5 a 63.77,63.77 0 0 1 -11.77,-8.37 c -3.25,-3.11 -5.09,-7 -4.27,-11.57 1.58,-8.83 10.29,-13.83 18,-16.66 a 40.17,40.17 0 0 1 6.82,-1.84 c 0.53,-0.1 1.55,-0.36 1.63,-1 0.08,-0.64 -0.81,-0.79 -1.27,-0.71 z"
     id="path165" />
  <path
     class="cls-28"
     d="m 50.97431,276.88085 c 2.14,5.43 6.76,9.23 11.38,12.54 a 143.77,143.77 0 0 0 17.12,10.43 c 12,6.27 24.62,11.31 37.22,16.21 26.71,10.37 53.94,19.34 81.12,28.37 l 46.89,15.59 c 0.35,0.12 1.64,-0.43 1.19,-0.58 -27.39,-9.11 -54.84,-18.08 -82.16,-27.4 -13.38,-4.57 -26.72,-9.28 -39.94,-14.3 -12.93,-4.91 -25.89,-10 -38.32,-16.05 a 158.72,158.72 0 0 1 -19.17,-11 c -5.46,-3.7 -11.38,-7.87 -13.89,-14.23 -0.14,-0.37 -1.57,0.08 -1.44,0.39 z"
     id="path167" />
  <path
     class="cls-28"
     d="m 138.57431,289.18085 a 22,22 0 0 0 0.26,-2.55 3.84,3.84 0 0 0 -0.09,-1 12.36,12.36 0 0 1 -0.17,-3.54 c 0,-0.33 -0.71,-0.19 -0.72,0.08 a 12.06,12.06 0 0 0 0.16,3.6 9.66,9.66 0 0 1 -0.16,3.51 c -0.05,0.31 0.69,0.19 0.72,-0.08 z"
     id="path169" />
  <path
     class="cls-28"
     d="m 101.04431,259.34085 c -0.16,-1.51 -3.64,0.22 -4.21,0.59 a 8.81,8.81 0 0 0 -3.4,6.22 15.63,15.63 0 0 0 1.58,8.22 26.49,26.49 0 0 0 5.1,8 c 0.39,0.41 1.77,-0.14 1.34,-0.59 a 24.58,24.58 0 0 1 -4.2,-6.09 22.76,22.76 0 0 1 -2.33,-6.58 10.55,10.55 0 0 1 0.94,-6.38 6.37,6.37 0 0 1 1.9,-2.31 6,6 0 0 1 1.83,-0.72 c 0.06,0.55 1.52,0.22 1.45,-0.39 z"
     id="path171" />
  <path
     class="cls-28"
     d="m 386.30431,315.42085 c -6.51,1.67 -11.67,5.73 -17.3,9.15 a 32.85,32.85 0 0 1 -22.39,5 62.27,62.27 0 0 1 -8.89,-1.6 c -3.14,-0.78 -6.17,-1.92 -9.31,-2.7 -3.48,-0.88 -9.63,-0.88 -10,-5.61 a 7.51,7.51 0 0 1 0.27,-3.08 11.13,11.13 0 0 1 1.47,-1.83 37.67,37.67 0 0 1 5.22,-5.42 28.47,28.47 0 0 1 15.93,-6.93 c 6,-0.54 12.06,0.79 17.92,2.14 6.06,1.4 12.12,2.84 18.37,3 0.85,0 1.08,-1.09 0.11,-1.12 -11.5,-0.32 -22.35,-5.42 -33.88,-5.27 a 29.72,29.72 0 0 0 -16,4.89 35.75,35.75 0 0 0 -7.55,6.55 25.55,25.55 0 0 0 -2.89,3.61 7.21,7.21 0 0 0 -0.44,3.4 5.76,5.76 0 0 0 0.72,2.73 c 0.94,1.59 2.77,2.28 4.47,2.74 2.43,0.65 4.93,1 7.34,1.73 3.39,1.06 6.76,2.1 10.23,2.84 9,1.92 18.25,1.88 26.6,-2.31 6.05,-3 11.18,-7.74 17.6,-10.06 q 1.32,-0.46 2.67,-0.81 c 0.9,-0.23 0.62,-1.29 -0.28,-1.06 z"
     id="path173" />
  <path
     class="cls-28"
     d="m 362.61431,115.85085 c -2.29,3.09 -4.83,6.57 -8.51,8.07 -4.44,1.81 -9.5,-0.3 -13.65,-2 l -0.9,0.58 c 2.86,-0.19 5.73,0.39 8.57,-0.07 a 24.76,24.76 0 0 0 6.27,-2.1 c 2.12,-1 4.2,-2 6.26,-3.1 0.69,-0.36 1.37,-0.72 2.05,-1.1 0.18,-0.1 0.83,-0.34 0.9,-0.57 0.07,-0.23 -0.69,-0.14 -0.78,-0.11 0.7,-0.22 0.56,0 0.2,-0.08 -0.36,-0.08 -0.6,0 -0.89,0 -0.88,0 -1.77,0 -2.66,0.08 a 32.79,32.79 0 0 0 -7.3,1.1 14.56,14.56 0 0 0 -3.07,1.22 9.9,9.9 0 0 1 -3.88,1.1 c -2.32,0.28 -4.64,0.79 -6.08,2.8 -0.1,0.14 1.18,0.1 1.43,-0.25 1.63,-2.27 4.5,-1.81 6.91,-2.39 a 10.85,10.85 0 0 0 2.68,-1.17 13,13 0 0 1 3.33,-1.15 35.77,35.77 0 0 1 6.53,-0.72 11.4,11.4 0 0 0 2.92,-0.08 l -0.77,-0.1 c 0.06,-0.23 0.18,-0.12 -0.08,0 -0.26,0.12 -0.4,0.22 -0.59,0.32 -0.66,0.37 -1.33,0.72 -2,1.07 -1.85,1 -3.71,1.9 -5.6,2.77 a 19.67,19.67 0 0 1 -6,2 c -2.55,0.3 -5.16,-0.21 -7.73,0 -0.15,0 -1.41,0.38 -0.91,0.58 4.74,1.9 9.87,3.69 14.93,1.9 4.32,-1.53 7.21,-5.27 9.85,-8.83 0.1,-0.14 -1.17,-0.1 -1.43,0.25 z"
     id="path175" />
  <path
     class="cls-29"
     d="m 362.42431,116.94085 c 0,0 -3.29,8.51 -8.65,9.66 -6.85,1.47 -13.91,-4.36 -13.91,-4.36"
     id="path177" />
  <path
     class="cls-28"
     d="m 426.10431,278.61085 a 3.37,3.37 0 0 0 -0.1,-0.34 0.1,0.1 0 0 0 -0.08,-0.07 0.47,0.47 0 0 0 -0.17,0 h -0.24 a 1.5,1.5 0 0 0 -0.29,0.06 l -0.19,0.06 a 1.17,1.17 0 0 0 -0.3,0.14 l -0.1,0.07 a 0.13,0.13 0 0 0 -0.07,0.13 3.37,3.37 0 0 0 0.1,0.34 0.1,0.1 0 0 0 0.08,0.07 0.47,0.47 0 0 0 0.17,0 h 0.24 a 1.5,1.5 0 0 0 0.29,-0.06 l 0.19,-0.06 a 1.17,1.17 0 0 0 0.3,-0.14 l 0.1,-0.07 a 0.13,0.13 0 0 0 0.07,-0.13 z"
     id="path179" />
  <path
     class="cls-28"
     d="m 364.92431,157.76085 c 2.21,3.21 2.18,7.21 1.73,10.93 -0.5,4.07 -1.22,8.11 -1.67,12.19 a 208.25,208.25 0 0 0 -1.28,25.71 c 0,0.34 1.45,0.1 1.45,-0.38 a 206.53,206.53 0 0 1 1.43,-27 c 0.49,-4.06 1.31,-8.09 1.65,-12.16 0.3,-3.43 0.05,-6.9 -2,-9.81 -0.22,-0.33 -1.63,0.13 -1.35,0.53 z"
     id="path181" />
  <path
     class="cls-28"
     d="m 370.75431,169.14085 a 0.82,0.82 0 0 1 0.19,-0.78 0.74,0.74 0 0 1 0.28,-0.22 c -0.09,0 0,0 0.07,0 a 0.81,0.81 0 0 1 0.22,0.07 1.61,1.61 0 0 1 0.89,1.47 3.45,3.45 0 0 1 -0.83,2.06 1.71,1.71 0 0 1 -0.36,0.35 l -0.1,0.07 c 0,0 0.08,-0.05 0.08,0 0,0.05 -0.21,-0.08 -0.23,-0.1 a 1.2,1.2 0 0 1 -0.34,-0.83 3,3 0 0 1 0,-1.29 1.21,1.21 0 0 1 0.28,-0.46 l 0.16,-0.12 h -0.1 v 0 a 0.84,0.84 0 0 0 0.17,0.05 0.67,0.67 0 0 0 0.46,-0.05 c 0,0 0.32,-0.14 0.22,-0.19 a 1.58,1.58 0 0 0 -1.38,0.21 1.35,1.35 0 0 0 -0.61,1.12 3.5,3.5 0 0 0 0,0.79 2.25,2.25 0 0 0 0.16,0.68 0.9,0.9 0 0 0 1.15,0.37 2.06,2.06 0 0 0 1.15,-0.81 4,4 0 0 0 0.72,-1.49 1.76,1.76 0 0 0 -1,-2.11 c -0.79,-0.27 -2.36,0.33 -2.07,1.38 0,0.14 0.76,-0.05 0.73,-0.19 z"
     id="path183" />
  <path
     class="cls-28"
     d="m 369.04431,181.66085 c -0.12,0 0,0 0,0 h 0.15 a 1.35,1.35 0 0 1 0.34,0.17 1.19,1.19 0 0 1 0.45,0.59 1,1 0 0 1 -0.42,1.14 h -0.06 v 0 c 0,0 0,0 0,0 a 0.8,0.8 0 0 1 -0.79,-0.41 1.57,1.57 0 0 1 -0.17,-1.41 3,3 0 0 1 1.29,-1.43 l -0.64,0.1 a 5.31,5.31 0 0 1 1,1.69 c 0,0.16 0.77,-0.06 0.72,-0.19 a 5.32,5.32 0 0 0 -1,-1.7 c -0.12,-0.14 -0.52,0 -0.64,0.09 a 3.39,3.39 0 0 0 -1.45,1.57 1.6,1.6 0 0 0 0.31,1.66 1.65,1.65 0 0 0 1.82,0.09 1.2,1.2 0 0 0 0.77,-1.38 1.34,1.34 0 0 0 -0.61,-0.75 1.61,1.61 0 0 0 -1.16,-0.1 c -0.07,0 -0.37,0.1 -0.34,0.2 0.03,0.1 0.34,0 0.39,0 z"
     id="path185" />
  <path
     class="cls-28"
     d="m 368.37431,192.40085 a 1.38,1.38 0 0 1 1.19,1 1.11,1.11 0 0 1 -0.06,0.8 1.44,1.44 0 0 1 -0.23,0.32 1.08,1.08 0 0 1 -0.29,0.2 0.67,0.67 0 0 1 -0.27,0.06 h -0.13 a 0.73,0.73 0 0 1 -0.19,-0.07 1.15,1.15 0 0 1 -0.44,-0.46 1.06,1.06 0 0 1 -0.08,-0.7 0.56,0.56 0 0 1 0,-0.12 l 0.06,-0.11 0.07,-0.07 v 0 l 0.07,-0.06 v 0 h 0.07 c -0.08,0 0,0 0.06,0 h 0.12 0.25 a 0.68,0.68 0 0 1 0.46,0.4 0.35,0.35 0 0 0 0.43,0.15 c 0.13,0 0.36,-0.18 0.3,-0.35 a 1.42,1.42 0 0 0 -1.7,-0.71 1.3,1.3 0 0 0 -1,1.56 1.49,1.49 0 0 0 1.64,1.12 1.8,1.8 0 0 0 1.57,-1.67 1.86,1.86 0 0 0 -1.73,-1.73 0.47,0.47 0 0 0 -0.47,0.22 c -0.07,0.16 0.07,0.29 0.22,0.31 z"
     id="path187" />
  <path
     class="cls-28"
     d="m 411.75431,216.33085 a 23.56,23.56 0 0 1 -8.35,7.71 c -3.77,2 -8.16,2.39 -12.34,2.61 -1.17,0.06 -1.73,1.51 -0.24,1.43 4.68,-0.25 9.61,-0.83 13.79,-3.08 a 26.3,26.3 0 0 0 9.19,-8.51 c 0.31,-0.44 -0.26,-0.75 -0.63,-0.79 a 1.56,1.56 0 0 0 -1.42,0.63 z"
     id="path189" />
  <g
     id="Calque_5"
     data-name="Calque 5"
     transform="translate(-92.89569,-136.80915)">
    <path
       class="cls-30"
       d="m 490.07,211.09 c 0,0 2.77,-10 8.44,-8.67 5.67,1.33 11.64,4.22 14.25,7.42 2.61,3.2 1.89,5.1 4.37,6.25 a 12.36,12.36 0 0 1 6.4,6.13 c 1.74,3.47 4.36,6.09 5.38,9.73 1.02,3.64 2,3.49 2.91,6.4 0.91,2.91 2.12,3.86 0.73,7.12 -1.39,3.26 -2.62,3.2 -2,6.69 0.62,3.49 2.88,4.43 0.93,8.11 -1.95,3.68 -9,9.81 -13,11 -4,1.19 -18.56,4.8 -20.48,4.8 -1.92,0 -17.78,-3.64 -17.78,-3.64 a 8.19,8.19 0 0 0 -5,-1.78 c -3.06,0 -3.18,0.58 -3.18,0.58 0,0 -3.82,-5.07 -3.82,-7.39 0,-2.32 0.22,-2.93 0.82,-3.57 0.6,-0.64 7.49,-8.27 10.05,-12.27 2.56,-4 3,-11.3 3,-13 0,-1.7 -1.42,-2.26 1.63,-3.83 3.05,-1.57 6.72,-6.68 7.63,-11.84 0.97,-5.84 -1.28,-8.24 -1.28,-8.24 z"
       transform="translate(0,-0.43)"
       id="path192" />
    <path
       class="cls-30"
       d="m 413.42,211.26 c 3.15,1.11 3.75,20.83 2.78,29.1 -0.76,6.5 2.86,16.21 7.6,19.91 4.74,3.7 10.36,10.36 17.74,12.16 l 4.3,0.79 2.06,6.13 c 0,0 -23.6,3 -27.32,6.51 -0.4,0.37 0.17,-2.42 -1.58,-1.55 -1.75,0.87 -12.62,4.71 -22.56,-2.48 -9.94,-7.19 -9.65,-11.72 -12.16,-12.16 -2.51,-0.44 -11.16,-0.33 -12,-3.1 -0.84,-2.77 1.49,-9.24 1.39,-11.79 -0.1,-2.55 1.57,-8.33 2.54,-11.06 0.97,-2.73 2.24,-7.84 4.69,-8.71 2.45,-0.87 5.29,-1.59 4.26,-4.81 -1.03,-3.22 1.57,-9.62 5,-12.55 3.43,-2.93 4.35,-5 9.68,-5.19 a 46.06,46.06 0 0 0 11,-1.39 3.24,3.24 0 0 1 2.58,0.19 z"
       transform="translate(0,-0.43)"
       id="path194" />
    <path
       class="cls-30"
       d="m 411.52,210.71 c 0.15,-2.33 2.13,-14.11 7.91,-22.12 6.77,-9.41 23,-11.64 33.39,-9.44 10.39,2.2 20,9.3 27,19.1 3.09,4.37 4.26,5.23 4.72,7.79 0.36,2 3.78,5.09 5.54,5.05 l -4.17,-0.2 c -1.08,0.4 -2.33,2.64 -3.43,2.33 -5.86,-1.64 -24.86,0 -31.67,-7.08 a 18.36,18.36 0 0 0 -13.92,-5.28 c 0,0 -6.61,-0.13 -11.28,4.17 -4.67,4.3 -7.55,12.25 -10.4,13.08 -1.98,0.57 -3.69,-7.4 -3.69,-7.4 z"
       transform="translate(0,-0.43)"
       id="path196" />
    <path
       class="cls-29"
       d="M 413.41,211.07"
       transform="translate(0,-0.43)"
       id="path198" />
    <path
       class="cls-28"
       d="m 483.6,212.44 c -2.28,-1.06 -5.23,-0.72 -7.66,-0.73 a 73.51,73.51 0 0 1 -12.32,-0.81 28,28 0 0 1 -12.79,-5.42 29.58,29.58 0 0 0 -5,-3.81 31.35,31.35 0 0 0 -6.27,-2.34 c -5.11,-1.35 -10.72,-2 -16,-0.94 -0.52,0.11 -1.38,0.64 -1.21,1.28 0.17,0.64 1.18,0.61 1.69,0.51 4.35,-0.89 9.18,-0.2 13.42,0.88 a 28,28 0 0 1 6.18,2.25 26.94,26.94 0 0 1 4.58,3.52 c 6.8,5.63 16,6.7 24.54,6.8 1.79,0 3.58,0 5.37,0 0.7,0 1.4,0.05 2.09,0.13 0.27,0 0.52,0.07 0.6,0.09 0.08,0.02 0.64,0.22 0.43,0.12 a 2.06,2.06 0 0 0 2.06,-0.21 c 0.4,-0.28 0.86,-1.05 0.2,-1.36 z"
       transform="translate(0,-0.43)"
       id="path200" />
    <path
       class="cls-28"
       d="m 437.15,200.33 c -5.63,1.16 -11.69,2.24 -15.31,7.24 -1.69,2.33 -2.71,5.07 -4.24,7.49 a 11.77,11.77 0 0 1 -1.23,1.67 6.35,6.35 0 0 1 -0.58,0.58 c -0.23,0.2 -0.9,0.5 -0.06,0.28 0.63,-0.18 0.28,-0.13 0,-0.52 a 3.79,3.79 0 0 1 -0.46,-0.95 7.6,7.6 0 0 1 -0.43,-2.8 11,11 0 0 1 0.28,-2 1.72,1.72 0 0 0 0.13,-0.71 4.41,4.41 0 0 0 -0.71,-1.29 c -0.35,-0.58 -0.72,-1.16 -1.06,-1.74 a 7,7 0 0 0 -0.37,-0.66 c -0.22,-0.32 0,-0.4 -0.26,-0.19 0.54,-0.41 -0.47,-0.48 -0.68,-0.47 a 3.65,3.65 0 0 0 -1.94,0.69 c -0.57,0.44 0.67,1.93 0.91,2.31 0.24,0.38 0.65,1 0.94,1.57 0.39,0.71 0.13,1.09 0,1.91 a 7.31,7.31 0 0 0 0.76,5.15 c 0.78,1.16 2.07,0.91 3.26,0.53 2.82,-0.89 4.31,-3.55 5.62,-6 0.77,-1.42 1.47,-2.87 2.3,-4.25 a 12.67,12.67 0 0 1 3,-3.29 c 2.82,-2.3 6.14,-2.72 9.62,-3.44 0.31,-0.06 1.69,-0.33 1.7,-0.78 0.01,-0.45 -0.85,-0.34 -1.16,-0.28 z"
       transform="translate(0,-0.43)"
       id="path202" />
    <path
       class="cls-28"
       d="m 495.92,276.89 a 142.56,142.56 0 0 0 20.26,-4.09 c 5.6,-1.61 11.36,-4.09 14.68,-9.14 a 13.22,13.22 0 0 0 2.34,-7.66 23.88,23.88 0 0 0 -0.89,-4.42 6.82,6.82 0 0 1 0.59,-4.65 c 0.89,-1.91 2.26,-3.68 2.5,-5.83 a 14.42,14.42 0 0 0 -0.42,-4.62 49.58,49.58 0 0 0 -4.59,-11.64 68.8,68.8 0 0 0 -6.75,-10.75 39.13,39.13 0 0 0 -5.91,-5.74 57.15,57.15 0 0 0 -8.44,-6.16 c -3.34,-1.9 -7.22,-3.42 -11.12,-2.68 -4.83,0.91 -7.68,5.15 -9.34,9.45 l 2.13,-0.15 a 45.83,45.83 0 0 0 -5.48,-10.7 c -1.61,-2.2 -3.55,-4.12 -5.32,-6.18 -4,-4.58 -7.91,-9.32 -13.39,-12.14 -6.47,-3.33 -14.11,-3.59 -21.23,-3.29 -7.83,0.34 -16.59,1.65 -22.87,6.72 -3.7,3 -6.53,7.3 -8.64,11.51 a 33,33 0 0 0 -3.76,13.76 c 0,1.16 2.17,0.87 2.2,-0.15 0.23,-8.26 4.39,-16.51 9.94,-22.49 5.26,-5.65 13.82,-7.12 21.16,-7.61 6.86,-0.45 14.29,-0.41 20.68,2.44 5.21,2.33 9.11,6.6 12.75,10.85 2,2.29 4.1,4.44 5.94,6.82 a 42.52,42.52 0 0 1 5.85,11 c 0.32,0.84 1.83,0.62 2.13,-0.15 1.33,-3.45 3.49,-7.38 7.45,-8.14 3.1,-0.6 6.37,0.76 9,2.25 a 53.79,53.79 0 0 1 7.87,5.61 42.87,42.87 0 0 1 5.5,5 59.45,59.45 0 0 1 6.23,9.25 61.42,61.42 0 0 1 5,11.11 c 0.9,2.77 1.85,6.07 0.56,8.86 -1,2.25 -2.7,4.37 -2.73,6.95 a 18.73,18.73 0 0 0 0.85,4.25 10.13,10.13 0 0 1 0.08,4.21 c -1.25,6.61 -7.52,10.27 -13.42,12.15 a 125.74,125.74 0 0 1 -21.29,4.48 c -1.22,0.16 -1.66,1.84 -0.18,1.64 z"
       transform="translate(0,-0.43)"
       id="path204" />
    <path
       class="cls-28"
       d="m 409.9,208.54 c -0.24,1.9 -1.53,2.39 -3.27,2.57 -2.25,0.23 -4.51,0.08 -6.76,0.22 a 14.27,14.27 0 0 0 -6.53,1.74 24.5,24.5 0 0 0 -5.84,4.85 18.23,18.23 0 0 0 -4.16,7.47 13.08,13.08 0 0 0 0.4,7.19 c 0,0 0.07,0.37 0,0.14 0,0.08 0,0.07 0,0.06 0,-0.01 0.38,-0.13 0,0 l -0.49,0.14 -1.05,0.27 a 10.17,10.17 0 0 0 -4.4,2.14 c -1.78,1.61 -2.28,3.65 -2.86,5.88 a 45.91,45.91 0 0 1 -2.19,5.59 16.33,16.33 0 0 0 -1.39,5.25 c -0.15,2.55 -0.13,5.43 -1.08,7.84 -0.82,2.06 -1.53,4.22 -0.59,6.38 a 7.38,7.38 0 0 0 4.31,3.73 14.83,14.83 0 0 0 6,0.86 13,13 0 0 1 2.37,-0.28 c 1,0.14 1.73,1.32 2.24,2 0.82,1.15 1.49,2.38 2.34,3.51 a 15.89,15.89 0 0 0 3.05,2.91 47.87,47.87 0 0 0 9.27,5.76 c 6.55,3.06 13.95,4.11 20.76,1.27 0.56,-0.23 1.08,-0.93 0.68,-1.51 -0.4,-0.58 -1.4,-0.47 -2,-0.23 -5.84,2.43 -12.27,1.08 -17.81,-1.51 a 45.76,45.76 0 0 1 -8.39,-5.22 15.13,15.13 0 0 1 -2.78,-2.52 c -0.74,-0.94 -1.35,-2 -2,-3 -1.17,-1.78 -2.66,-3.67 -5,-3.66 -0.84,0 -1.67,0.25 -2.52,0.29 a 11.48,11.48 0 0 1 -2.8,-0.18 7.06,7.06 0 0 1 -4.54,-2.44 c -1.35,-1.85 -0.67,-3.94 0.09,-5.86 a 24.39,24.39 0 0 0 1.19,-7.45 15.87,15.87 0 0 1 0.25,-2.84 19.31,19.31 0 0 1 0.93,-2.54 c 0.74,-1.85 1.6,-3.68 2.22,-5.58 0.62,-1.9 0.71,-3.86 2.25,-5.29 a 7.41,7.41 0 0 1 3.47,-1.49 c 1.16,-0.29 2.61,-0.67 3.16,-1.87 a 2.47,2.47 0 0 0 0.09,-1.61 14.72,14.72 0 0 1 -0.66,-4 13.59,13.59 0 0 1 3,-7.58 20.18,20.18 0 0 1 6.14,-5.46 c 2.07,-1.13 4.58,-1.11 6.87,-1.14 4,0 10.22,0.18 10.89,-5.08 0.19,-1.49 -2.77,-1.12 -2.94,0.21 z"
       transform="translate(0,-0.43)"
       id="path206" />
    <path
       class="cls-30"
       d="M 415.2,209.84"
       transform="translate(0,-0.43)"
       id="path208" />
    <path
       class="cls-31"
       d="m 483.53,228.85 c 0,1.21 -1.55,13.18 -1.57,13.41 -0.02,0.23 6,3.73 6,3.18 0,-0.55 2.14,-8.27 2.14,-8.27 l -4.42,-5.43 -0.83,0.71 3.58,4.72 L 487,243 a 31.29,31.29 0 0 1 -2.7,-2.34 c 0,-0.18 1.62,-13.56 1.62,-13.56 0,0 -2.4,0.13 -2.39,1.75 z"
       transform="translate(0,-0.43)"
       id="path210" />
    <path
       class="cls-31"
       d="m 419.43,254.3 c 0,0.17 0,0.29 0,0.34 0,0.55 -6.19,-2.51 -6.18,-2.75 0,-0.47 0.72,-12.21 0.62,-13.49 -0.1,-1.28 1.42,-1.76 2,-1.89 h 0.23 c 0,0 0,0.47 -0.07,1.22 v 0 c 0,0.93 -0.11,2.28 -0.18,3.76 l 0.34,-0.33 0.25,0.26 c 0,0.63 0.09,1.23 0.11,1.81 l -0.74,-0.84 c -0.18,3.64 -0.37,7.64 -0.36,7.74 a 31,31 0 0 0 2.86,2.15 l 0.06,-0.36 a 25.69,25.69 0 0 0 1.06,2.38 z"
       transform="translate(0,-0.43)"
       id="path212" />
    <path
       class="cls-28"
       d="m 481.29,231 a 8.82,8.82 0 0 0 0,4.56 16,16 0 0 1 -0.49,6.37 29.85,29.85 0 0 1 -6.34,11.47 108.61,108.61 0 0 1 -9.58,9.73 c -3.58,3.35 -7.4,6.75 -12.18,8.26 a 20.9,20.9 0 0 1 -13.54,-0.7 c -4.42,-1.66 -8.05,-4.53 -11.43,-7.75 a 35.57,35.57 0 0 1 -8.52,-11.44 c -1.83,-4.29 -1.91,-9 -1.7,-13.59 0.18,-4 0.83,-7.92 0.64,-11.9 a 27.35,27.35 0 0 0 -3.78,-12.22 c -0.33,-0.59 -1.7,0 -1.32,0.65 a 26.39,26.39 0 0 1 3.65,12.11 c 0.11,3.71 -0.46,7.4 -0.64,11.1 -0.24,4.64 -0.22,9.52 1.55,13.88 a 35.16,35.16 0 0 0 8.14,11.47 37.93,37.93 0 0 0 11.09,8.11 23.91,23.91 0 0 0 13.28,2 c 4.74,-0.74 8.9,-3.28 12.51,-6.34 A 133.17,133.17 0 0 0 473,256.9 c 3.41,-3.61 6.61,-7.64 8.42,-12.32 a 21.55,21.55 0 0 0 1.48,-6.94 c 0.08,-2.24 -0.83,-4.25 -0.16,-6.45 0.25,-0.81 -1.2,-0.84 -1.4,-0.19 z"
       transform="translate(0,-0.43)"
       id="path214" />
  </g>
  <g
     id="Calque_4"
     data-name="Calque 4"
     transform="translate(-92.89569,-136.80915)">
    <path
       class="cls-11"
       d="m 261.14,382.67 a 6.87,6.87 0 0 0 -3,-2.4 c -0.47,-0.23 -0.95,-0.43 -1.43,-0.63 h 0.06 -0.1 A 22.52,22.52 0 0 0 250,378 l -0.89,0.51 c -0.19,0 -0.38,0 -0.57,0.06 a 2.25,2.25 0 0 0 -1.37,0.61 c -0.64,0.75 -0.12,1.9 0.48,2.68 a 13.84,13.84 0 0 0 10.46,5.2 3.86,3.86 0 0 0 2.76,-0.78 3,3 0 0 0 0.27,-3.61 z"
       transform="translate(0,-0.43)"
       id="path217" />
  </g>
</svg>
