<?xml version="1.0" encoding="UTF-8" standalone="no"?>
<svg
   viewBox="0 0 307.72 328.70001"
   version="1.1"
   id="svg190"
   sodipodi:docname="jobleIlluHomme.svg"
   width="307.72"
   height="328.70001"
   inkscape:version="1.1 (c68e22c387, 2021-05-23)"
   xmlns:inkscape="http://www.inkscape.org/namespaces/inkscape"
   xmlns:sodipodi="http://sodipodi.sourceforge.net/DTD/sodipodi-0.dtd"
   xmlns="http://www.w3.org/2000/svg"
   xmlns:svg="http://www.w3.org/2000/svg">
  <sodipodi:namedview
     id="namedview192"
     pagecolor="#ffffff"
     bordercolor="#666666"
     borderopacity="1.0"
     inkscape:pageshadow="2"
     inkscape:pageopacity="0.0"
     inkscape:pagecheckerboard="0"
     showgrid="false"
     inkscape:zoom="3.7094972"
     inkscape:cx="184.66114"
     inkscape:cy="154.60316"
     inkscape:window-width="3200"
     inkscape:window-height="1771"
     inkscape:window-x="-9"
     inkscape:window-y="-9"
     inkscape:window-maximized="1"
     inkscape:current-layer="svg190" />
  <defs
     id="defs13">
    <style
       id="style2">.cls-1,.cls-9{fill:none;}.cls-2{fill:#fca372;}.cls-20,.cls-21,.cls-22,.cls-3{fill:#fff;}.cls-4{fill:#cfddeb;}.cls-5,.cls-6{fill:#545556;}.cls-6{font-size:11.41px;font-family:CenturyGothic, Century Gothic;letter-spacing:0.01em;}.cls-14,.cls-7{fill:#020202;}.cls-10,.cls-17,.cls-7,.cls-9{stroke:#000;stroke-miterlimit:10;stroke-width:0.77px;}.cls-8{fill:#535656;}.cls-10,.cls-11{fill:#e5c4b5;}.cls-12{fill:#062a63;}.cls-13{fill:#064d87;}.cls-15{fill:#23292d;}.cls-16,.cls-17{fill:#141719;}.cls-18{fill:#7a675e;}.cls-19{fill:#1d1d1b;}.cls-20{opacity:0.39;}.cls-21{opacity:0.4;}.cls-22{opacity:0.41;}.cls-23{clip-path:url(#clip-path);}.cls-24{clip-path:url(#clip-path-2);}.cls-25{clip-path:url(#clip-path-3);}</style>
    <clipPath
       id="clip-path">
      <polygon
         class="cls-1"
         points="157.33,120.23 156.23,137.59 105.62,131.41 105.82,114.6 "
         id="polygon4" />
    </clipPath>
    <clipPath
       id="clip-path-2">
      <path
         class="cls-1"
         d="m 116.11,116.83 32.35,5.36 a 6.51,6.51 0 0 1 5,7.59 v 0 c 2.2,10.84 -3.72,6.14 -7.07,5.59 L 114.08,130 c -3.34,-0.56 -8.46,2.36 -5,-7.6 v 0 c -1.92,-9.26 3.68,-6.13 7.03,-5.57 z"
         id="path7" />
    </clipPath>
    <clipPath
       id="clip-path-3">
      <polygon
         class="cls-1"
         points="152.49,136.37 157.32,120.43 110.05,115.82 108.02,129 "
         id="polygon10" />
    </clipPath>
  </defs>
  <g
     id="g2326"
     transform="translate(0,0.0358298)">
    <ellipse
       class="cls-2"
       cx="90.208481"
       cy="206.25006"
       rx="87.879997"
       ry="165.16"
       transform="rotate(-19.44)"
       id="ellipse15"
       style="fill:#f06292;fill-opacity:1" />
    <ellipse
       class="cls-3"
       cx="54.208603"
       cy="277.02899"
       rx="66.540001"
       ry="108.06"
       transform="rotate(-27)"
       id="ellipse17" />
    <path
       class="cls-4"
       d="m 255.75,38.92 -7.62,1.41 v 0 a 28,28 0 0 0 -8.27,-9.13 l 2.52,-7 a 2,2 0 0 0 -1.29,-2.55 l -12.67,-4.18 a 2.12,2.12 0 0 0 -2.66,1.24 l -2.53,7 v 0 a 30.05,30.05 0 0 0 -12.35,2.33 v 0 l -5.12,-5.64 a 2.17,2.17 0 0 0 -2.95,-0.2 l -10.12,8.41 a 2,2 0 0 0 -0.2,2.83 l 5.17,5.7 a 27.22,27.22 0 0 0 -4,11.3 l -7.79,1.44 a 2,2 0 0 0 -1.66,2.35 l 2.55,12.59 a 2.1,2.1 0 0 0 2.45,1.59 L 197,67 a 28.12,28.12 0 0 0 8.13,8.93 l -2.61,7.25 a 2,2 0 0 0 1.29,2.55 l 12.67,4.18 a 2.12,2.12 0 0 0 2.66,-1.24 l 2.6,-7.23 A 30.25,30.25 0 0 0 234,79.18 l 5.21,5.74 a 2.17,2.17 0 0 0 2.95,0.2 l 10.12,-8.41 a 2,2 0 0 0 0.2,-2.82 l -5.16,-5.69 v 0 a 27,27 0 0 0 4.13,-11.32 v 0 l 7.67,-1.43 a 2,2 0 0 0 1.66,-2.35 L 258.2,40.5 a 2.1,2.1 0 0 0 -2.45,-1.58 z m -25.54,30.57 c -9.18,4.06 -20.06,0.21 -24.29,-8.57 -4.23,-8.78 -0.23,-19.21 9,-23.27 9.23,-4.06 20.06,-0.21 24.3,8.58 a 17.22,17.22 0 0 1 -9.01,23.26 z"
       id="path20"
       style="fill:#e8eaf6;fill-opacity:1" />
    <path
       class="cls-4"
       d="m 304.54,79.15 -6.39,0.69 v 0 a 23,23 0 0 0 -6.2,-8.06 l 2.56,-5.64 a 1.63,1.63 0 0 0 -0.9,-2.18 l -10.18,-4.25 a 1.76,1.76 0 0 0 -2.28,0.86 l -2.57,5.64 v 0 a 25,25 0 0 0 -10.37,1.16 v 0 l -3.84,-5 a 1.8,1.8 0 0 0 -2.43,-0.35 L 253,68.35 a 1.62,1.62 0 0 0 -0.37,2.32 l 3.89,5 a 22.82,22.82 0 0 0 -4.1,9.09 l -6.54,0.71 a 1.68,1.68 0 0 0 -1.52,1.83 l 1.24,10.57 a 1.73,1.73 0 0 0 1.92,1.46 l 6.59,-0.71 a 23,23 0 0 0 6.1,7.89 l -2.66,5.83 a 1.64,1.64 0 0 0 0.9,2.18 l 10.18,4.25 a 1.77,1.77 0 0 0 2.28,-0.85 l 2.65,-5.82 a 25,25 0 0 0 10.23,-1.07 l 3.91,5.07 a 1.79,1.79 0 0 0 2.42,0.35 l 8.94,-6.32 a 1.62,1.62 0 0 0 0.36,-2.32 l -3.88,-5 v 0 a 22.8,22.8 0 0 0 4.18,-9.11 v 0 l 6.44,-0.69 a 1.69,1.69 0 0 0 1.53,-1.84 l -1.25,-10.56 a 1.73,1.73 0 0 0 -1.9,-1.46 z m -23.19,23.67 c -7.86,2.77 -16.59,-1.09 -19.49,-8.61 a 14.37,14.37 0 0 1 9,-18.67 c 7.86,-2.77 16.59,1.08 19.49,8.61 a 14.38,14.38 0 0 1 -9,18.67 z"
       id="path22"
       style="fill:#e8eaf6;fill-opacity:1" />
    <path
       class="cls-4"
       d="M 277.73,19.53 274,18.4 v 0 a 13.36,13.36 0 0 0 -1.35,-5.92 l 2.86,-2.5 a 1,1 0 0 0 0.07,-1.42 l -4.52,-4.75 a 1.09,1.09 0 0 0 -1.48,-0.06 l -2.88,2.51 v 0 a 15,15 0 0 0 -6,-1.81 v 0 L 259.87,0.79 A 1,1 0 0 0 258.62,0 l -6.55,1.4 a 1,1 0 0 0 -0.8,1.2 l 0.84,3.69 a 14.53,14.53 0 0 0 -4.59,4.05 l -3.8,-1.15 a 1,1 0 0 0 -1.31,0.65 l -2,6.13 a 1,1 0 0 0 0.69,1.26 l 3.82,1.16 a 13.41,13.41 0 0 0 1.33,5.8 l -3,2.59 a 1,1 0 0 0 -0.07,1.41 l 4.52,4.75 a 1.08,1.08 0 0 0 1.48,0.07 l 3,-2.59 a 14.75,14.75 0 0 0 5.92,1.82 l 0.86,3.73 a 1,1 0 0 0 1.25,0.76 l 6.55,-1.38 a 1,1 0 0 0 0.8,-1.19 l -0.84,-3.69 v 0 a 14.15,14.15 0 0 0 4.65,-4 v 0 l 3.74,1.14 a 1.05,1.05 0 0 0 1.31,-0.65 l 2,-6.13 a 1,1 0 0 0 -0.69,-1.3 z m -18.89,7.59 a 8.93,8.93 0 0 1 -8.54,-9.36 9,9 0 0 1 9.77,-8.17 8.92,8.92 0 0 1 8.54,9.35 9.05,9.05 0 0 1 -9.77,8.18 z"
       id="path24"
       style="fill:#e8eaf6;fill-opacity:1" />
    <rect
       class="cls-3"
       y="78.379997"
       width="208.08"
       height="16.040001"
       rx="7.5599999"
       id="rect26"
       x="0"
       style="fill:#e8eaf6;fill-opacity:1" />
    <path
       class="cls-5"
       d="m 12.6,87.51 a 3.65,3.65 0 0 0 1,-2.47 4,4 0 0 0 -4.08,-3.81 3.82,3.82 0 1 0 0,7.63 4.26,4.26 0 0 0 2.38,-0.72 l 3.07,3.28 a 0.54,0.54 0 0 0 0.38,0.15 0.48,0.48 0 0 0 0.32,-0.11 0.44,0.44 0 0 0 0,-0.65 z M 11.94,86.8 a 3.15,3.15 0 0 1 -2.45,1.13 2.89,2.89 0 1 1 0,-5.77 3,3 0 0 1 3.09,2.84 2.77,2.77 0 0 1 -0.64,1.8 z"
       id="path28" />
    <text
       class="cls-6"
       transform="scale(1.034408,0.96673649)"
       id="text30"
       x="22.118931"
       y="92.993286"
       style="stroke-width:1.03441">Job</text>
    <path
       class="cls-7"
       d="m 160,305.25 c 0,0 4.26,4.84 2.71,7.64 -1.55,2.8 -39.87,10.92 -43.35,10.11 -3.48,-0.81 -8.51,-4.26 -5,-6.19 3.51,-1.93 25.52,-9.67 27.45,-11.6 1.93,-1.93 7.35,-7 7.35,-7 z"
       id="path33" />
    <path
       class="cls-7"
       d="m 217.6,303.7 c 1.54,0 25.52,9.28 27.84,13.53 2.32,4.25 0.77,10.06 -2.32,10.06 -3.09,0 -19,-1 -25.52,-7.74 A 47,47 0 0 1 208.31,306 l 7.35,-2.32 z"
       id="path35" />
    <path
       class="cls-8"
       d="m 191.46,148.09 c 1.16,1.94 9.28,53.37 12.76,61.11 3.48,7.74 15.47,69.61 16.63,79.67 1.16,10.06 0,14.69 0,14.69 0,0 -7.21,8.12 -14.43,6.19 0,0 -18.83,-62.65 -20.76,-74.64 -1,-6.42 -1,-8.85 -0.67,-9.72 a 4.14,4.14 0 0 0 0,-2.58 c -3,-9.47 -14.52,-45.66 -15.53,-45.33 -1.01,0.33 -3.87,0.39 -4.26,1.94 -0.39,1.55 0.39,11.6 0,19 -0.39,7.4 -0.22,34.42 -0.11,37.51 0.11,3.09 2.82,8.12 2.43,18.18 -0.39,10.06 -4.64,54.14 -4.64,54.14 0,0 -15.08,-5 -17.4,-7.34 -2.32,-2.34 1.16,-43.32 0,-56.47 -1.16,-13.15 -7.74,-77.35 -8.12,-79.28 -0.38,-1.93 1.16,-19.72 1.55,-18.56 0.39,1.16 52.55,1.49 52.55,1.49 z"
       id="path37" />
    <path
       d="m 191,148.34 a 13.58,13.58 0 0 1 0.74,3 c 0.46,2.2 0.88,4.42 1.29,6.63 1.22,6.48 2.38,13 3.59,19.46 1.26,6.79 2.54,13.58 4,20.33 a 71.9,71.9 0 0 0 3.24,11.92 80.53,80.53 0 0 1 3.14,11.64 c 1.55,6.51 3,13.06 4.32,19.62 2.78,13.36 5.42,26.75 7.73,40.2 a 92.15,92.15 0 0 1 1.73,16.57 36,36 0 0 1 -0.28,4.52 c -0.05,0.35 -0.13,0.71 -0.17,1.07 -0.04,0.36 -0.17,0.36 0,0.11 a 13.07,13.07 0 0 1 -2.2,2.07 20.79,20.79 0 0 1 -4.9,3.12 10.24,10.24 0 0 1 -6.65,0.73 l 0.36,0.27 q -2.21,-7.35 -4.37,-14.72 c -3,-10.19 -6,-20.39 -8.84,-30.61 -2.45,-8.67 -5,-17.36 -6.91,-26.16 -0.35,-1.57 -0.64,-3.15 -0.88,-4.74 -0.35,-2.41 -0.95,-5.18 -0.51,-7.61 a 6.79,6.79 0 0 0 -0.09,-3.55 l -0.75,-2.35 q -1,-3.18 -2,-6.38 c -3.28,-10.21 -6.52,-20.45 -10.18,-30.54 -0.53,-1.45 -1.06,-2.92 -1.69,-4.34 -0.25,-0.58 -0.5,-1.5 -1.24,-1.54 a 7.55,7.55 0 0 0 -1.47,0.31 8.49,8.49 0 0 0 -2,0.58 2.36,2.36 0 0 0 -1.44,2 64.72,64.72 0 0 0 0.11,8.47 c 0.13,5.69 -0.15,11.35 -0.22,17 -0.08,5.85 -0.08,11.7 -0.06,17.55 0,4.16 0,8.33 0.11,12.49 a 22.92,22.92 0 0 0 0.94,5 48.07,48.07 0 0 1 1.52,10 116,116 0 0 1 -0.64,13 c -0.42,5.37 -0.89,10.73 -1.36,16.09 q -1.2,13.53 -2.5,27 l -0.15,1.57 0.88,-0.42 c -3.32,-1.11 -6.62,-2.31 -9.87,-3.6 a 46.16,46.16 0 0 1 -6.16,-2.8 c -0.93,-0.55 -1.37,-0.87 -1.57,-1.91 -0.62,-3.19 -0.39,-6.65 -0.35,-9.88 0.07,-5.17 0.26,-10.35 0.45,-15.52 0.2,-5.49 0.41,-11 0.53,-16.47 0.08,-4.26 0.18,-8.55 -0.14,-12.8 -0.53,-7 -1.33,-14 -2,-21 q -1.53,-15.27 -3.1,-30.55 c -0.83,-8 -1.65,-16 -2.52,-23.94 -0.17,-1.47 -0.35,-2.93 -0.52,-4.39 a 25.61,25.61 0 0 1 0.05,-4.2 q 0.19,-3.45 0.5,-6.88 c 0.18,-2 0.35,-3.92 0.63,-5.87 a 6.41,6.41 0 0 0 0.24,-1.35 c -0.11,-0.15 -1.48,-0.07 -0.6,0.37 a 5.85,5.85 0 0 0 2,0.3 c 1.23,0.12 2.47,0.19 3.71,0.25 8.39,0.42 16.81,0.54 25.21,0.67 q 10.33,0.18 20.66,0.26 h 1.14 c 0.65,0 0.84,-0.85 0.09,-0.85 q -7.78,-0.06 -15.55,-0.17 c -9,-0.13 -18.05,-0.26 -27.06,-0.59 -2.83,-0.1 -5.68,-0.16 -8.49,-0.48 a 7.93,7.93 0 0 0 -1,-0.14 l -0.16,-0.06 c 0,0 0.32,0.12 0.06,0 -1.14,-0.46 -1.24,0.58 -1.38,1.48 -0.64,4.22 -0.91,8.52 -1.15,12.77 a 32.08,32.08 0 0 0 0.09,5.88 c 0.78,6.52 1.42,13.06 2.1,19.6 q 1.61,15.39 3.16,30.8 c 0.83,8.32 1.68,16.65 2.46,25 0.79,8.49 0.44,17 0.15,25.51 -0.34,9.82 -1.14,19.76 -0.63,29.58 a 16.19,16.19 0 0 0 0.39,3.4 c 0.28,1 1.08,1.46 2,2 a 81,81 0 0 0 12.86,5.29 c 1,0.37 2.1,0.74 3.15,1.09 0.31,0.1 0.85,0 0.89,-0.42 q 0.71,-7.34 1.38,-14.67 c 0.84,-9.05 1.67,-18.1 2.4,-27.15 0.68,-8.35 1.59,-16.69 -0.36,-24.94 a 39.38,39.38 0 0 1 -1.19,-5.22 c -0.09,-1 -0.06,-2 -0.07,-3 q -0.07,-6 -0.08,-12 c 0,-4.89 0,-9.78 0,-14.66 0,-4.13 0.28,-8.25 0.3,-12.37 0,-3.12 -0.08,-6.24 -0.16,-9.36 0,-1.17 -0.06,-2.33 -0.06,-3.49 a 5,5 0 0 1 0.16,-2.05 c 0.31,-0.63 1.13,-0.81 1.75,-0.95 0.37,-0.09 1.41,-0.08 1.69,-0.34 0.05,-0.05 -0.2,-0.26 -0.13,-0.09 0.07,0.17 0.13,0.2 0.18,0.3 a 25.88,25.88 0 0 1 1.13,2.66 c 3,7.78 5.49,15.75 8.07,23.67 q 2,6.21 4,12.43 l 1.5,4.7 a 7.71,7.71 0 0 1 0.62,2.94 c -0.06,0.64 -0.3,1.25 -0.34,1.9 a 41.28,41.28 0 0 0 1.26,11 c 0.6,2.81 1.3,5.6 2,8.38 2.1,8.15 4.39,16.27 6.7,24.37 q 3.56,12.5 7.24,25 2.1,7.1 4.21,14.18 c 0.13,0.41 0.13,0.62 0.54,0.81 a 7.72,7.72 0 0 0 3.88,0.19 14,14 0 0 0 3.51,-1 22.09,22.09 0 0 0 5.82,-3.79 7.09,7.09 0 0 0 2,-2.06 10.36,10.36 0 0 0 0.38,-2.88 53.42,53.42 0 0 0 0,-7.9 c -0.2,-3 -0.61,-6 -1.1,-9 -1.23,-7.51 -2.65,-15 -4.09,-22.47 -1.78,-9.23 -3.63,-18.45 -5.61,-27.65 -1.51,-7 -3,-14.06 -5,-21 -0.49,-1.68 -1.16,-3.28 -1.72,-4.93 a 81.82,81.82 0 0 1 -2.13,-8.14 c -1.9,-8.44 -3.46,-17 -5,-25.45 -1.36,-7.39 -2.63,-14.81 -4.13,-22.18 a 14.69,14.69 0 0 0 -1,-4.15 c -0.3,-0.33 -1.36,0.1 -1.02,0.62 z"
       id="path39" />
    <line
       class="cls-9"
       x1="165.85001"
       y1="163.05"
       x2="165.39"
       y2="177.16"
       id="line41" />
    <path
       class="cls-10"
       d="m 219.5,68.81 c 0,-0.42 0.48,-5.87 1.61,-8.44 1.13,-2.57 3,-6.57 1.64,-7.53 -1.36,-0.96 -4.21,0.32 -4.69,1 A 7.19,7.19 0 0 0 216.94,58 c 0.16,1.6 1.28,3.53 1,4.49 a 42.76,42.76 0 0 1 -2.41,4.33 z"
       id="path43" />
    <path
       class="cls-11"
       d="m 207,67 a 5.78,5.78 0 0 1 1.41,-3.65 c 1.5,-1.53 4.34,-1.14 6.26,0 1.92,1.14 3.31,-0.13 5.83,4.55 2.69,5 0.56,11.66 0.24,12.35 -1.63,3.59 -4.63,6.55 -5.11,7.64 a 7.85,7.85 0 0 0 -0.32,3 c 0,0 -7.06,-1.67 -6.9,-2.16 0.16,-0.49 2.42,-6.61 -1.41,-9.22 a 12.32,12.32 0 0 1 -1.41,-4 c -0.22,-1.93 0.1,-4.49 0.74,-5.45 A 7.36,7.36 0 0 0 207,67 Z"
       id="path45" />
    <path
       d="m 207.57,66.8 a 5.18,5.18 0 0 1 1.37,-3.52 c 1.61,-1.54 3.91,-0.36 5.57,0.39 0.72,0.33 1.52,0.42 2.25,0.73 a 6.82,6.82 0 0 1 3,3.17 14.53,14.53 0 0 1 1.24,9.81 16.26,16.26 0 0 1 -3.18,6.87 38.43,38.43 0 0 0 -2.52,3.34 6,6 0 0 0 -0.51,3.4 l 1,-0.39 c -1.46,-0.34 -2.91,-0.71 -4.34,-1.13 -0.58,-0.17 -1.83,-0.32 -2.27,-0.77 -0.3,-0.3 0,-0.75 0.14,-1.2 a 9.57,9.57 0 0 0 0,-6.1 c -0.43,-1 -1.24,-1.5 -1.84,-2.32 a 8.86,8.86 0 0 1 -1.32,-4.15 9.69,9.69 0 0 1 0.78,-5 7.21,7.21 0 0 0 0.66,-3.11 c 0,-0.25 -1.11,-0.08 -1.11,0.3 a 7,7 0 0 1 -0.66,3 9.54,9.54 0 0 0 -0.82,4.19 10.52,10.52 0 0 0 1.1,4.6 c 0.46,1 1.32,1.41 1.85,2.34 1.12,2 0.83,4.52 0.23,6.63 -0.08,0.3 -0.39,0.83 -0.24,1.12 0.15,0.29 1.27,0.58 1.64,0.7 1.74,0.55 3.53,1 5.32,1.42 0.23,0.06 1,0 1,-0.39 a 5.41,5.41 0 0 1 0.86,-3.79 c 1.06,-1.42 2.2,-2.77 3.16,-4.26 a 15.68,15.68 0 0 0 2.47,-7.79 c 0.23,-3.57 -0.66,-7.75 -3.51,-10.19 a 6.55,6.55 0 0 0 -2.61,-1.16 c -1.38,-0.41 -2.52,-1.24 -4,-1.42 a 4.94,4.94 0 0 0 -5.81,5 c -0.02,0.23 1.1,0.05 1.1,-0.32 z"
       id="path47" />
    <path
       d="m 207.19,67.16 a 2.27,2.27 0 0 1 1.21,-0.23 6.67,6.67 0 0 1 3.1,1 11.62,11.62 0 0 1 2.11,1.58 c 0.21,0.19 0.41,0.39 0.6,0.59 a 1.37,1.37 0 0 0 0.16,0.18 c 0,0 0,0.1 0,0.06 l 0.45,-0.23 h 0.08 c -0.16,-0.12 -0.67,0.11 -0.52,0.22 a 0.19,0.19 0 0 0 0.1,0 c 0.14,0 0.46,0 0.45,-0.23 -0.01,-0.23 -0.18,-0.23 -0.24,-0.29 a 9.13,9.13 0 0 0 -0.7,-0.69 12,12 0 0 0 -2.5,-1.78 6.41,6.41 0 0 0 -3.25,-0.87 2.83,2.83 0 0 0 -1.45,0.38 c -0.31,0.21 0.17,0.29 0.35,0.17 z"
       id="path49" />
    <path
       d="m 213.17,72.73 a 11.59,11.59 0 0 0 -2,-2 4.85,4.85 0 0 0 -1.85,-0.94 8.09,8.09 0 0 0 -2.25,0.06 h -0.59 c -0.14,0 -0.6,0.24 -0.24,0.21 h 0.35 l 0.81,-0.07 a 6.55,6.55 0 0 1 1.25,-0.06 6,6 0 0 1 3.26,2.12 c 0.25,0.26 0.49,0.53 0.71,0.81 0.22,0.28 0.59,-0.1 0.56,-0.15 z"
       id="path51" />
    <path
       d="m 205.61,72.17 a 14.22,14.22 0 0 1 2.76,0.23 c 0.81,0.17 1.92,0.48 2.2,1.37 0.08,0.23 0.64,0.07 0.56,-0.15 -0.31,-1 -1.43,-1.34 -2.32,-1.54 a 14.29,14.29 0 0 0 -3,-0.28 0.4,0.4 0 0 0 -0.37,0.17 c 0,0.11 0,0.2 0.16,0.2 z"
       id="path53" />
    <path
       class="cls-12"
       d="m 127.14,165.84 -5,4.65 v 0 a 9.86,9.86 0 0 1 -8.66,-3.69 33.26,33.26 0 0 0 6.48,0.32 c 2.45,-0.18 3.39,-1 4.57,-1.35 0.13,-0.35 0.25,-0.71 0.35,-1.07 z"
       id="path55"
       style="fill:#283593;fill-opacity:1" />
    <path
       d="m 126.76,165.56 -4.19,3.95 c -0.15,0.14 -0.65,0.46 -0.7,0.66 -0.05,0.2 0.31,-0.1 0.31,-0.1 a 1.05,1.05 0 0 0 -0.24,0 9.14,9.14 0 0 1 -2.9,-0.28 9.65,9.65 0 0 1 -5,-3.26 l -0.7,0.68 a 26,26 0 0 0 7.82,0.17 11.23,11.23 0 0 0 2.59,-0.85 c 0.31,-0.14 0.63,-0.24 0.94,-0.37 0.56,-0.23 0.63,-0.88 0.78,-1.41 l -0.86,0.32 2.22,1.13 c 0.49,0.25 1.28,-0.46 0.64,-0.79 l -2.22,-1.13 a 0.7,0.7 0 0 0 -0.86,0.32 c -0.1,0.36 -0.22,0.72 -0.35,1.07 l 0.43,-0.33 a 20.17,20.17 0 0 1 -4.17,1.3 29,29 0 0 1 -6.58,-0.29 c -0.3,0 -1,0.29 -0.7,0.68 a 10.61,10.61 0 0 0 8.38,3.93 1.88,1.88 0 0 0 1.4,-0.42 l 2.5,-2.36 2.23,-2.09 c 0.53,-0.49 -0.33,-0.94 -0.77,-0.53 z"
       id="path57" />
    <path
       class="cls-13"
       d="m 172,71 c 1.93,-0.38 6.69,-0.56 6.69,2.22 0,4.7 -3,6.68 -0.42,5.13 2.58,-1.55 11.7,-2.57 14.49,-0.39 2.49,2 12.61,18.15 12.89,18.57 l 0.77,-10.06 c 0.26,-1.49 11.56,0.7 12.76,1.94 1.2,1.24 5.23,47.13 1.23,52.16 -4,5.03 -4.45,6.71 -7.93,4 -3.48,-2.71 -8,-4 -9.54,-9.75 -2.92,-11.09 -4.38,-15.2 -8.12,-26.42 -0.55,-1.63 1.93,37.06 1.16,38.7 -0.77,1.64 -2.65,6.27 -2.65,6.27 l -33.35,2.17 c 0,0 -20.56,-1.4 -20.13,-3.33 0.43,-1.93 -1.15,-32.92 -3.21,-38.17 -0.73,-1.84 4.18,-27.37 6.74,-31.82 1,-1.68 13.34,-3.39 13.34,-3.39 0,0 -2.2,-4.54 -0.55,-5.61 C 159.94,70.71 172,71 172,71 Z"
       id="path59"
       style="fill:#5c6bc0;fill-opacity:1" />
    <path
       d="m 172.09,71.46 c 1.51,-0.29 4.32,-0.53 5.38,0.87 0.69,0.91 0.28,2.48 0,3.51 a 24.36,24.36 0 0 1 -1,2.62 c -0.57,1.5 1.39,0.67 2.05,0.3 a 14.59,14.59 0 0 1 5.66,-1.42 15.7,15.7 0 0 1 6.72,0.43 6.3,6.3 0 0 1 2.68,2.36 c 2.32,3 4.37,6.11 6.43,9.25 1.62,2.47 3.18,5 4.79,7.47 0.3,0.45 1.58,0.09 1.62,-0.43 l 0.56,-7.3 a 21,21 0 0 1 0.21,-2.75 c 0,0.08 -0.31,0.2 -0.17,0.17 a 5,5 0 0 1 0.54,-0.06 14.08,14.08 0 0 1 2.25,0.12 40,40 0 0 1 5,0.89 c 1,0.25 2.64,0.45 3.46,1.17 0.17,0.15 0.22,0.4 0.31,0.81 0.16,0.68 0.26,1.39 0.36,2.08 0.8,5.41 1.22,10.89 1.59,16.34 0.47,6.85 0.81,13.71 0.7,20.57 a 66.59,66.59 0 0 1 -0.47,7.86 9.3,9.3 0 0 1 -1.77,4.93 c -0.75,1 -1.47,2 -2.28,2.89 -0.41,0.47 -0.91,1.18 -1.59,1.15 -0.68,-0.03 -1.51,-0.78 -2,-1.17 -0.83,-0.62 -1.68,-1.18 -2.56,-1.73 a 19.39,19.39 0 0 1 -4.69,-3.66 c -1.76,-2.08 -2.24,-4.69 -2.94,-7.25 q -1.89,-7 -4.14,-13.84 -1.26,-3.83 -2.54,-7.65 c -0.19,-0.54 -0.28,-1.61 -0.7,-2 a 1.16,1.16 0 0 0 -1.52,0.24 c -0.49,0.69 -0.13,2.33 -0.1,3.11 0.08,2.46 0.2,4.92 0.32,7.38 0.29,6.32 0.62,12.63 0.85,19 0.09,2.39 0.18,4.78 0.17,7.18 a 17.15,17.15 0 0 1 -0.07,1.9 14.1,14.1 0 0 1 -1.12,2.77 c -0.53,1.25 -1.05,2.51 -1.56,3.77 l 0.89,-0.47 -26.62,1.73 -5.62,0.37 c -0.35,0 -0.7,0.06 -1.06,0.07 -0.18,0 0.34,0 0.07,0 l -0.68,-0.05 a 140.79,140.79 0 0 1 -15,-1.68 17,17 0 0 1 -3,-0.72 c -0.44,-0.16 -0.74,-0.34 -0.78,-0.53 a 8.63,8.63 0 0 1 0.06,-1.52 c 0,-0.9 0,-1.8 0,-2.7 -0.16,-6 -0.54,-12 -1,-18 -0.25,-3 -0.53,-6.08 -0.91,-9.11 a 39.82,39.82 0 0 0 -1.09,-6.23 9.15,9.15 0 0 1 -0.07,-3.9 c 0.33,-2.71 0.8,-5.4 1.31,-8.08 a 133.4,133.4 0 0 1 4.21,-17.77 8.58,8.58 0 0 1 1,-2.41 4.75,4.75 0 0 1 2.36,-1 73,73 0 0 1 8.42,-1.71 c 0.57,-0.09 1.15,-0.18 1.72,-0.25 0.22,0 1.15,-0.32 0.94,-0.75 -0.6,-1.24 -1.46,-3.12 -1.11,-4.52 0.39,-1.58 4.08,-1.84 5.37,-2 a 60.32,60.32 0 0 1 9.87,-0.53 c 0.7,0 1.75,-1 0.62,-1.05 a 57.44,57.44 0 0 0 -11.93,0.82 c -1.62,0.3 -4.73,0.76 -5.48,2.51 -0.68,1.57 0.3,3.81 1,5.24 l 0.94,-0.74 c -2.06,0.29 -4.11,0.64 -6.15,1 -1.53,0.3 -3.06,0.62 -4.55,1.06 a 9,9 0 0 0 -3,1.25 c -1.35,1.05 -1.78,3.67 -2.23,5.21 -0.88,3 -1.6,6.1 -2.27,9.18 -1.19,5.48 -2.55,11.16 -2.86,16.78 a 15.59,15.59 0 0 0 0.69,3.86 c 0.5,2.56 0.78,5.17 1.05,7.76 0.69,6.54 1.12,13.11 1.41,19.69 0.1,2.24 0.21,4.49 0.19,6.74 0,1.09 -0.34,1.91 0.81,2.45 2,0.95 4.49,1.13 6.64,1.43 2.88,0.4 5.76,0.7 8.65,1 a 45.56,45.56 0 0 0 7.38,0.18 l 29.91,-2 h 0.76 a 1.12,1.12 0 0 0 0.89,-0.47 c 0.71,-1.75 1.42,-3.5 2.18,-5.23 a 5.68,5.68 0 0 0 0.65,-2.27 c 0.11,-2.66 0,-5.35 -0.13,-8 -0.28,-7.82 -0.71,-15.63 -1.06,-23.45 -0.06,-1.45 -0.12,-2.9 -0.16,-4.35 0,-0.42 0,-0.84 0,-1.27 0,-0.61 0.17,-0.42 -0.26,-0.18 l -1,0.2 c -0.42,-0.1 -0.22,-0.44 -0.22,0 a 6.27,6.27 0 0 0 0.53,1.6 c 0.35,1 0.7,2.08 1,3.12 q 0.87,2.59 1.73,5.21 1.53,4.71 2.89,9.48 c 0.56,1.94 1.09,3.89 1.61,5.85 a 13.83,13.83 0 0 0 1.91,4.57 c 1.66,2.38 4.24,3.74 6.61,5.3 1.81,1.19 3.66,3.18 6,2 a 7.54,7.54 0 0 0 2.35,-2.22 33,33 0 0 0 2.68,-3.46 c 1.37,-2.28 1.32,-5.66 1.45,-8.22 a 216.13,216.13 0 0 0 -0.88,-28.67 c -0.31,-3.86 -0.66,-7.73 -1.19,-11.57 a 26.22,26.22 0 0 0 -0.51,-3 c -0.24,-0.9 -0.78,-1.16 -1.65,-1.49 a 31.76,31.76 0 0 0 -6.52,-1.56 c -1.69,-0.25 -4,-0.75 -5.63,-0.05 -1.21,0.52 -1,1.82 -1,2.94 l -0.5,6.51 -0.12,1.44 1.62,-0.44 c -3.64,-5.62 -7.08,-11.44 -11.22,-16.72 a 7.43,7.43 0 0 0 -2.92,-2.55 14.22,14.22 0 0 0 -6.24,-0.82 24.43,24.43 0 0 0 -6.73,1.06 5.79,5.79 0 0 0 -2.24,1 l -0.16,0.09 c -0.36,0.16 -0.06,0.26 0.89,0.3 0,0 0.08,-0.21 0.1,-0.22 a 3.77,3.77 0 0 0 0.47,-1 c 0.77,-1.85 1.81,-5.1 -0.33,-6.39 -1.83,-1.1 -4.44,-0.88 -6.44,-0.5 -1.04,0.18 -0.76,1.13 0.26,0.94 z"
       id="path61" />
    <path
       d="m 208.87,127.76 a 5.22,5.22 0 0 0 -0.08,-2.63 c -0.29,-1.88 -0.66,-3.75 -1,-5.63 a 135.66,135.66 0 0 1 -1.67,-21.2 c 0,-0.3 -1.11,-0.1 -1.11,0.29 a 134.77,134.77 0 0 0 1.62,21 c 0.3,1.89 0.66,3.78 1,5.67 a 5.32,5.32 0 0 1 0.13,2.71 c -0.13,0.29 1,0.17 1.11,-0.16 z"
       id="path63" />
    <path
       class="cls-12"
       d="m 173.5,74.69 c -10.48,-4 -17,2.1 -15.23,5 1.77,2.9 6.35,3.71 8.84,3.86 2,0.16 18.37,-4.28 6.39,-8.86 z"
       id="path65"
       style="fill:#283593;fill-opacity:1" />
    <path
       d="m 174,74.44 c -4.33,-1.62 -9.64,-2.14 -13.73,0.44 A 5.92,5.92 0 0 0 157.53,78 c -0.46,1.53 0.6,2.77 1.78,3.64 a 13.06,13.06 0 0 0 6.14,2.15 9.61,9.61 0 0 0 3.34,-0.12 21.22,21.22 0 0 0 8,-3.18 c 0.86,-0.64 1.88,-1.65 1.54,-2.84 -0.48,-1.72 -2.93,-2.61 -4.39,-3.17 -0.31,-0.12 -1.32,0.34 -0.9,0.51 1.75,0.67 5.83,2.47 3.52,4.81 -1.68,1.7 -4.44,2.49 -6.68,3.08 a 11.81,11.81 0 0 1 -2.43,0.47 14.08,14.08 0 0 1 -5.13,-1 c -1.41,-0.57 -3.48,-1.72 -3.77,-3.38 A 3.43,3.43 0 0 1 159.78,76 c 3.43,-3.38 9.2,-2.61 13.27,-1.08 0.31,0.14 1.32,-0.32 0.95,-0.48 z"
       id="path67" />
    <path
       class="cls-11"
       d="m 170,57 c 0,0 0,13.9 2.7,17.29 2.7,3.39 1.84,5.17 -2,6.53 -3.84,1.36 -4.79,1.23 -7.06,-0.8 -2.27,-2.03 -0.62,-5.39 -0.62,-5.39 0,0 1.11,-9.49 0,-11.19 -1.11,-1.7 5.85,-8.14 5.85,-8.14 z"
       id="path69" />
    <path
       d="m 169.74,57.05 a 80.22,80.22 0 0 0 0.61,9.93 22.15,22.15 0 0 0 1.45,6.29 c 0.89,2 3.74,4.38 1.11,6.31 a 12.42,12.42 0 0 1 -4.75,1.84 4.05,4.05 0 0 1 -3.59,-0.92 4.13,4.13 0 0 1 -1.8,-4.06 17.42,17.42 0 0 1 0.53,-1.82 26.59,26.59 0 0 0 0.39,-4.54 19.07,19.07 0 0 0 -0.15,-6.08 c -0.23,-0.81 -0.48,-1.16 -0.07,-2 a 13.56,13.56 0 0 1 2,-2.85 45.16,45.16 0 0 1 3.6,-3.72 h -0.49 l 1.16,1.7 c 0.13,0.19 0.67,0 0.51,-0.24 l -1.16,-1.69 c -0.1,-0.16 -0.38,0 -0.48,0 a 47.56,47.56 0 0 0 -3.43,3.53 c -0.88,1 -2.94,3 -2.56,4.56 a 12.09,12.09 0 0 1 0.53,2.21 31.72,31.72 0 0 1 0,3.9 29.42,29.42 0 0 1 -0.43,5.22 12.28,12.28 0 0 0 -0.57,2.21 4.09,4.09 0 0 0 1.46,3.5 c 2,1.78 3.82,1.72 6.31,0.91 1.88,-0.61 5.06,-1.66 4.59,-4.23 -0.23,-1.29 -1.16,-2.19 -1.82,-3.26 a 10.86,10.86 0 0 1 -1.11,-3 A 59.06,59.06 0 0 1 170.31,57 c 0,-0.27 -0.57,-0.18 -0.57,0.05 z"
       id="path71" />
    <path
       class="cls-11"
       d="m 181.64,55.1 c 0,0 -7.16,12.6 -15.64,14.15 -8.48,1.55 -15.86,-8.9 -16.25,-13.92 0,-8.72 -4.07,-13.19 -3.25,-16.63 3.12,-13.13 3.17,-10.61 12.46,-13.32 9.29,-2.71 15.08,-3.22 18.78,3.75 3.7,6.97 5.55,10.16 5.55,17 a 27.84,27.84 0 0 1 -1.65,8.97 z"
       id="path73" />
    <path
       d="m 181.09,55.19 a 43.19,43.19 0 0 1 -4.51,6.32 c -2.88,3.39 -6.9,7.41 -11.63,7.63 -4.73,0.22 -9.06,-3.37 -11.7,-7.08 a 16.87,16.87 0 0 1 -2.71,-5.47 14.55,14.55 0 0 1 -0.3,-3 27.61,27.61 0 0 0 -0.61,-4.43 64.35,64.35 0 0 0 -2,-6.37 8.58,8.58 0 0 1 -0.43,-5 c 0.52,-2.14 1,-4.31 1.75,-6.39 a 7.74,7.74 0 0 1 1.8,-3.18 6.28,6.28 0 0 1 2.85,-1.22 c 1.65,-0.43 3.32,-0.78 5,-1.25 4.41,-1.24 10.08,-3.26 14.47,-0.9 2.33,1.25 3.6,3.47 4.8,5.73 a 48.25,48.25 0 0 1 3.91,8.56 25.48,25.48 0 0 1 -0.65,16.09 c -0.1,0.25 1,0.13 1.1,-0.18 a 26,26 0 0 0 0.94,-15.25 38.29,38.29 0 0 0 -3.56,-8.34 c -1.2,-2.28 -2.31,-4.72 -4.42,-6.32 -3.67,-2.78 -8.74,-1.86 -12.87,-0.85 -2.38,0.58 -4.72,1.32 -7.1,1.88 a 20.25,20.25 0 0 0 -4,1.18 c -2.69,1.27 -3.45,4.35 -4.16,7 -0.55,2 -1.48,4.31 -1.16,6.43 a 39.63,39.63 0 0 0 1.84,5.88 33.45,33.45 0 0 1 1,4 c 0.31,1.7 0.29,3.38 0.45,5.08 a 13.48,13.48 0 0 0 2.16,5.51 c 2.45,4 6.38,7.71 11.18,8.39 5.25,0.74 10,-2.67 13.4,-6.25 a 42.29,42.29 0 0 0 6.27,-8.3 c 0.1,-0.28 -0.94,-0.2 -1.11,0.1 z"
       id="path75" />
    <path
       d="m 144.85,99.08 c -0.23,1.78 -0.61,3.54 -0.94,5.3 q -0.66,3.59 -1.34,7.18 c -0.1,0.54 -0.2,1.09 -0.31,1.64 -0.11,0.55 1,0.31 1.12,-0.12 q 1.13,-5.89 2.2,-11.81 c 0.14,-0.76 0.29,-1.53 0.39,-2.31 0.07,-0.49 -1.06,-0.31 -1.12,0.12 z"
       id="path77" />
    <path
       class="cls-14"
       d="m 164.79,77.68 a 3,3 0 0 1 -2.22,-4 c 0.23,-0.69 -0.6,1.86 -0.6,1.86 -0.45,6.88 4.92,7.63 7.39,7.26 3.33,-0.51 4.48,-2.68 4.94,-6.61 0.32,-2.71 -1.56,-2.85 -1.56,-2.85 0,0 0.89,1 -1.25,2.85 -3.12,2.81 -4.49,2.08 -6.7,1.49 z"
       id="path79" />
    <path
       d="m 165.25,77.46 a 2.93,2.93 0 0 1 -2.09,-4 l -1.1,0.19 c -0.17,0.63 -0.45,1.24 -0.61,1.88 a 7,7 0 0 0 0.26,3.4 5.63,5.63 0 0 0 3.75,3.79 8.45,8.45 0 0 0 5,0 5.61,5.61 0 0 0 2.7,-1.65 7.06,7.06 0 0 0 1.4,-3.1 c 0.35,-1.54 0.93,-4.67 -1.44,-4.88 -0.13,0 -1.1,0.19 -0.89,0.42 a 1.21,1.21 0 0 1 0.1,0.9 5.52,5.52 0 0 1 -2.33,2.68 3.74,3.74 0 0 1 -2.41,0.89 12,12 0 0 1 -2.29,-0.52 1.2,1.2 0 0 0 -0.78,0.15 c -0.09,0 -0.38,0.22 -0.13,0.29 a 10.44,10.44 0 0 0 2.82,0.55 6.25,6.25 0 0 0 3.18,-1 7.09,7.09 0 0 0 3,-3 1.27,1.27 0 0 0 -0.09,-1.28 l -0.88,0.42 c -0.1,0 0.19,0.05 0.27,0.08 a 1.58,1.58 0 0 1 0.7,0.55 c 0.7,0.93 0.41,2.3 0.22,3.34 -0.35,2 -1.12,4.13 -3.17,4.83 a 6,6 0 0 1 -7.53,-3.6 6.91,6.91 0 0 1 -0.31,-3.43 c 0.15,-0.64 0.43,-1.24 0.6,-1.87 0.07,-0.25 -1,-0.07 -1.1,0.19 A 3.31,3.31 0 0 0 162,76 a 3.22,3.22 0 0 0 2.34,2 1.19,1.19 0 0 0 0.78,-0.14 c 0.1,-0.15 0.38,-0.33 0.13,-0.4 z"
       id="path81" />
    <path
       class="cls-14"
       d="m 170,79 c -0.24,0.8 6.39,65.52 6.39,65.52 L 166.74,159 153.17,143.6 166.42,79 Z"
       id="path83" />
    <path
       d="m 169.18,79.05 a 11.4,11.4 0 0 0 0.21,3.08 c 0.2,2.44 0.44,4.87 0.67,7.3 q 1,11.1 2.17,22.19 1.17,11.09 2.26,22.38 c 0.25,2.5 0.51,5 0.76,7.49 a 23.27,23.27 0 0 1 0.33,3.22 c 0,-0.36 0,-0.15 -0.19,0.13 -0.35,0.44 -0.64,0.95 -0.95,1.41 l -3.3,4.95 -5.14,7.74 1.57,-0.3 -12.4,-14 c -0.31,-0.35 -0.6,-0.73 -0.93,-1 -0.33,-0.27 -0.17,-0.37 -0.18,-0.05 a 6.55,6.55 0 0 1 0.2,-1 l 1.19,-5.78 4.38,-21.4 4.82,-23.48 1.75,-8.54 0.57,-2.78 a 7.47,7.47 0 0 0 0.3,-1.48 1.29,1.29 0 0 1 0,-0.19 l -1.15,0.61 h 3.6 c 0.69,0 1.76,-1 0.63,-1 h -3.61 c -0.38,0 -1.06,0.15 -1.15,0.61 l -2.19,10.66 -4.71,23 -4.59,22.39 -1.39,6.78 c -0.17,0.8 -0.59,1.65 -0.08,2.31 1.92,2.51 4.23,4.79 6.31,7.16 l 6.65,7.53 0.39,0.44 c 0.37,0.42 1.29,0.1 1.56,-0.3 l 4.35,-6.53 3.18,-4.75 c 0.65,-1 1.43,-1.94 2,-3 a 4,4 0 0 0 0,-2.31 q -0.31,-3.19 -0.65,-6.4 -2.25,-22.15 -4.43,-44.33 c -0.29,-3 -0.58,-6.06 -0.85,-9.09 -0.08,-0.91 -0.15,-1.81 -0.22,-2.72 a 6,6 0 0 1 0,-1 c 0.08,-0.82 -1.59,-0.58 -1.74,0.05 z"
       id="path85" />
    <path
       class="cls-15"
       d="M 165.62,113.14 162.1,155 100.35,144.9 c 0,-0.8 0.64,-39.61 0.64,-39.61 z"
       id="path87" />
    <path
       d="m 165.06,113.2 -3.06,36.61 -0.44,5.24 0.89,-0.39 -20.93,-3.43 -33.2,-5.43 -7.62,-1.25 0.23,0.28 c 0,-11.61 0.37,-23.23 0.56,-34.84 0,-1.59 0,-3.18 0.08,-4.77 l -0.77,0.41 22,2.67 34.68,4.22 8,1 c 0.49,0 1.17,-0.63 0.42,-0.72 l -22,-2.67 -34.68,-4.22 -8,-1 c -0.2,0 -0.76,0.12 -0.76,0.41 q -0.29,17.22 -0.56,34.43 c 0,1.73 -0.08,3.46 -0.08,5.19 a 0.25,0.25 0 0 0 0.23,0.27 l 20.95,3.44 33.2,5.43 7.61,1.25 c 0.27,0 0.87,0 0.9,-0.39 l 3.08,-36.61 0.44,-5.25 c -0.01,-0.51 -1.13,-0.32 -1.17,0.12 z"
       id="path89" />
    <path
       class="cls-16"
       d="m 100.75,156.75 -0.45,-0.08 -5.37,-1 -24.26,-4.41 v -1.95 l 5.2,1 8.23,1.54 16.17,3 v 0 a 0.77,0.77 0 0 0 0,0.15 v 0 a 1.05,1.05 0 0 0 0,0.24 5.37,5.37 0 0 0 0.48,1.51 z"
       id="path91" />
    <path
       d="m 100.94,156.35 c -8.55,-1.47 -17.08,-3.1 -25.62,-4.65 l -4.45,-0.81 0.37,0.36 v -2 l -0.76,0.45 23.93,4.48 c 1.9,0.35 3.81,0.69 5.71,1.07 l -0.38,-0.36 a 4.12,4.12 0 0 0 0.45,2 c 0.2,0.49 1.31,0.18 1.12,-0.3 a 3.53,3.53 0 0 1 -0.43,-1.76 c 0,-0.22 -0.2,-0.32 -0.38,-0.36 -7.92,-1.58 -15.88,-3 -23.83,-4.46 l -5.8,-1.09 c -0.24,0 -0.76,0.14 -0.76,0.45 v 2 c 0,0.22 0.17,0.32 0.37,0.35 l 24.19,4.39 c 2,0.36 3.92,0.73 5.88,1.07 0.55,0.07 1.14,-0.7 0.39,-0.83 z"
       id="path93" />
    <path
       class="cls-17"
       d="m 162.1,155 v 1.55 l -7.47,3 -0.36,0.15 -11.45,4.67 -10.12,-1.83 -0.93,-0.17 h -0.13 l -1,-0.17 -8.87,-1.62 c -0.92,-0.23 -1.51,-0.44 -1.53,-0.6 -0.02,-0.16 -1.84,-1.07 -2.84,-1.63 l -0.68,-0.12 a 2.28,2.28 0 0 1 0,-0.27 v 0 l 26.07,4.88 11.45,-4.67 5.12,-2.08 v 0 z"
       id="path95" />
    <path
       class="cls-10"
       d="m 100.31,154.89 a 0.77,0.77 0 0 0 0,0.15 0.88,0.88 0 0 1 0,-0.16 z"
       id="path97" />
    <path
       class="cls-11"
       d="m 130.64,162.23 a 10.14,10.14 0 0 1 -0.45,3 c -0.1,0.36 -0.21,0.72 -0.34,1.07 -1.19,0.34 -2.12,1.17 -4.57,1.35 a 33.32,33.32 0 0 1 -6.49,-0.32 c -6.29,-0.86 -13.36,-3.09 -14.75,-5.64 -0.74,-1.35 -2.46,-3 -3.29,-5 a 5.37,5.37 0 0 1 -0.43,-1.45 1.05,1.05 0 0 1 0,-0.24 v 0 a 0.77,0.77 0 0 1 0,-0.15 3.39,3.39 0 0 1 2,-2.64 13.91,13.91 0 0 1 5.12,-1.3 4.87,4.87 0 0 1 3.26,1.3 7.1,7.1 0 0 1 4.19,1.76 c 0.75,0.66 1.67,0.52 1.7,3.18 0,0.22 0,0.45 0,0.66 v 0.1 h 0.06 a 2.28,2.28 0 0 0 0,0.27 l 0.68,0.12 c 1,0.56 2.84,1.58 2.84,1.63 0,0.05 0.61,0.37 1.53,0.6 0.54,0.14 1.19,0.27 1.9,0.42 h 0.24 c 1.69,0.34 3.66,0.68 5.2,0.92 l 0.86,0.15 0.46,0.08 z"
       id="path99" />
    <path
       d="m 130.08,162.38 a 8.14,8.14 0 0 1 -0.66,3.68 c -0.14,0.23 -0.24,0.28 -0.55,0.41 -0.31,0.13 -0.77,0.34 -1.16,0.49 -2.29,0.85 -5,0.55 -7.37,0.29 -4.4,-0.47 -9.17,-1.42 -13.11,-3.53 a 8.76,8.76 0 0 1 -1.85,-1.23 10.32,10.32 0 0 1 -1.39,-1.87 c -1.16,-1.61 -2.75,-3.24 -3.08,-5.28 -0.42,-2.64 2.88,-3.62 4.86,-4 a 5,5 0 0 1 3.16,0.21 c 0.52,0.21 0.85,0.68 1.31,0.89 a 8.36,8.36 0 0 0 1.34,0.26 7.62,7.62 0 0 1 3,1.59 c 0.5,0.39 1,0.59 1.26,1.21 a 6.78,6.78 0 0 1 0.29,2.58 c 0,0.07 0.17,0.08 0.2,0.09 l -0.12,0.18 a 0.14,0.14 0 0 0 0.1,0.07 9,9 0 0 1 3.19,1.55 8.08,8.08 0 0 0 2.94,1 c 2.58,0.57 5.2,0.94 7.79,1.42 0.28,0 1.24,-0.39 0.92,-0.45 -2.6,-0.48 -5.22,-0.85 -7.8,-1.42 a 10.5,10.5 0 0 1 -3.2,-1.22 c -0.63,-0.37 -1.27,-0.78 -1.93,-1.09 -0.31,-0.14 -0.89,-0.21 -0.91,-0.48 0,-0.07 -0.17,-0.08 -0.2,-0.09 0.29,0 0.12,-0.82 0.1,-1.11 a 4,4 0 0 0 -0.3,-1.49 c -0.29,-0.58 -0.79,-0.81 -1.28,-1.19 a 7.67,7.67 0 0 0 -2.75,-1.56 6.23,6.23 0 0 1 -1.81,-0.55 7.14,7.14 0 0 0 -1.32,-0.75 6.73,6.73 0 0 0 -3.42,-0.2 c -1.92,0.3 -4.56,0.88 -5.83,2.5 -1.5,1.92 -0.14,4.08 1.07,5.76 1.1,1.52 2,3.33 3.64,4.39 a 22.84,22.84 0 0 0 6.6,2.72 49.33,49.33 0 0 0 8.09,1.53 c 2.66,0.27 5.56,0.46 8.12,-0.46 a 7.41,7.41 0 0 0 2.39,-1 5.19,5.19 0 0 0 0.6,-2 11.09,11.09 0 0 0 0.24,-2.22 c -0.05,-0.13 -1.16,-0.01 -1.17,0.37 z"
       id="path101" />
    <path
       class="cls-10"
       d="m 117.4,158.34 -0.68,-0.12 a 2.28,2.28 0 0 1 0,-0.27 h -0.06 v -0.1 a 0.63,0.63 0 0 0 0.11,0.12 z"
       id="path103" />
    <path
       class="cls-11"
       d="m 132.69,162.59 -0.28,3.79 -0.79,0.48 c 0,0 0.24,-1.14 -1.77,-0.54 0.13,-0.35 0.24,-0.71 0.34,-1.07 a 10.14,10.14 0 0 0 0.45,-3 h -0.21 l -0.46,-0.08 0.67,0.1 1,0.15 h 0.13 z"
       id="path105" />
    <path
       d="m 132.12,162.62 -0.27,3.79 0.31,-0.39 -0.79,0.48 0.82,0.32 a 0.89,0.89 0 0 0 -0.28,-0.8 c -0.56,-0.52 -1.53,-0.3 -2.17,-0.11 l 0.64,0.48 a 11.84,11.84 0 0 0 0.83,-4.19 0.41,0.41 0 0 0 -0.38,-0.4 l -0.67,-0.12 -0.38,0.86 c 0.92,0.14 1.82,0.28 2.72,0.47 a 0.69,0.69 0 0 0 0.73,-0.35 c 0.12,-0.27 -0.11,-0.45 -0.35,-0.5 -0.9,-0.2 -1.81,-0.34 -2.72,-0.48 a 0.71,0.71 0 0 0 -0.73,0.35 c -0.11,0.27 0.11,0.46 0.35,0.51 l 0.67,0.12 -0.38,-0.39 a 11.07,11.07 0 0 1 -0.76,4 c -0.15,0.4 0.33,0.58 0.65,0.49 l 0.31,-0.09 h 0.14 c 0,0 0.1,0 0,0 h 0.26 0.1 c 0.08,0 -0.09,0 0,0 0.09,0 0.17,0 0.1,0 -0.07,0 0.06,0 0.08,0 0.02,0 -0.07,-0.05 0,0 H 131 c 0,0 0,0 0,0 0,0 -0.06,-0.09 0,0 a 0.35,0.35 0 0 0 0.05,0.08 c 0,0 0,-0.1 0,0 a 0.19,0.19 0 0 0 0,0.08 c 0,0.07 0,0 0,0 0,0 0,0.1 0,0.15 -0.08,0.42 0.59,0.46 0.82,0.32 l 0.8,-0.48 c 0.35,-0.22 0.32,-0.49 0.35,-0.85 l 0.19,-2.6 v -0.73 c 0.09,-0.64 -1.05,-0.56 -1.09,-0.02 z"
       id="path107" />
    <path
       class="cls-13"
       d="m 147.91,162.17 c -3,1.87 -25,7.75 -25.72,7.93 v 0 a 22.62,22.62 0 0 0 1.69,-2.94 c 0.26,-0.54 0.53,-1.13 0.76,-1.76 0.13,-0.34 0.25,-0.7 0.35,-1.06 a 10.17,10.17 0 0 0 0.48,-3 c 0,0 0,0 0,0 a 6,6 0 0 0 -0.19,-1.53 l 2.37,0.44 10,1.88 11.51,-4.55 a 7.24,7.24 0 0 1 0.34,1.39 3.2,3.2 0 0 1 -1.59,3.2 z"
       id="path109"
       style="fill:#5c6bc0;fill-opacity:1" />
    <path
       d="m 147.66,161.84 a 19.91,19.91 0 0 1 -3.74,1.51 c -2.09,0.71 -4.21,1.36 -6.32,2 -4.21,1.26 -8.44,2.45 -12.68,3.6 a 17.08,17.08 0 0 0 -3,0.83 l 0.72,0.51 c 2.06,-3 4,-7 3.18,-10.68 l -0.75,0.56 10.62,2 a 4.33,4.33 0 0 0 2.8,0 l 5.94,-2.35 4.95,-2 -0.81,-0.18 c 0.54,1.64 0.52,3.17 -1,4.24 -0.62,0.43 0.29,0.85 0.75,0.53 1.79,-1.24 2.05,-3.09 1.39,-5.07 -0.11,-0.34 -0.55,-0.29 -0.8,-0.19 l -10.16,4 a 4.67,4.67 0 0 0 -1.33,0.52 c 0.29,-0.29 0.59,0 0.12,-0.12 a 6.65,6.65 0 0 0 -1,-0.19 l -6.54,-1.19 -4.51,-0.84 c -0.31,-0.06 -0.83,0.19 -0.75,0.56 0.76,3.44 -1.07,7.28 -3,10 -0.34,0.5 0.35,0.69 0.72,0.51 -0.2,0.1 0.51,-0.12 0.66,-0.16 l 1.8,-0.49 c 1.9,-0.51 3.8,-1 5.7,-1.57 4.44,-1.25 8.88,-2.51 13.25,-4 a 21.59,21.59 0 0 0 4.33,-1.72 c 0.61,-0.33 0.02,-0.96 -0.54,-0.62 z"
       id="path111" />
    <path
       class="cls-16"
       d="m 100.32,156.84 -5.39,-1.14 -22.65,-4.82 3.59,-0.57 0.57,-0.09 7.66,1.63 16.17,3 v 0 a 0.77,0.77 0 0 0 0,0.15 v 0 a 0.85,0.85 0 0 0 0,0.23 6.56,6.56 0 0 0 0,1.38 1,1 0 0 0 0.05,0.23 z"
       id="path113" />
    <path
       d="m 100.66,156.53 -23.89,-5.08 -4.15,-0.89 -0.41,0.64 3.11,-0.49 a 2.3,2.3 0 0 1 1.44,0 c 2.25,0.48 4.5,1 6.76,1.43 3.76,0.78 7.55,1.42 11.32,2.13 1.71,0.32 3.43,0.62 5.13,1 l -0.22,-0.25 a 8.7,8.7 0 0 0 0,2 c 0,0.39 1.16,0.15 1.12,-0.3 a 7.8,7.8 0 0 1 0,-1.87 c 0,-0.14 -0.1,-0.22 -0.22,-0.25 -7.63,-1.53 -15.29,-2.84 -22.9,-4.45 -1.8,-0.39 -3.59,0.15 -5.39,0.43 -0.24,0 -1,0.51 -0.42,0.64 l 22.6,4.78 5.44,1.16 c 0.37,0.08 1.31,-0.49 0.68,-0.63 z"
       id="path115" />
    <path
       class="cls-17"
       d="m 161.57,156.75 -6.94,2.82 -0.36,0.15 -11.45,4.67 -10,-1.78 h -0.12 l -2.05,-0.36 h -0.21 l -0.46,-0.08 -0.86,-0.15 -5.2,-0.92 h -0.24 c -0.71,-0.15 -1.36,-0.28 -1.9,-0.42 -0.92,-0.23 -1.51,-0.44 -1.53,-0.6 -0.02,-0.16 -1.84,-1.07 -2.84,-1.63 l -0.68,-0.12 a 2.28,2.28 0 0 1 0,-0.27 v 0 l 26.07,4.88 11.45,-4.67 7.07,-2.88 v 0 z"
       id="path117" />
    <path
       class="cls-16"
       d="m 161.34,155.3 -7.07,2.88 -11.45,4.67 -26.07,-4.85 v 0 h -0.06 v -0.1 c 0,-0.21 0,-0.44 0,-0.66 0,-2.66 -1,-2.52 -1.7,-3.18 a 7.1,7.1 0 0 0 -4.19,-1.76 4.87,4.87 0 0 0 -3.26,-1.3 13.91,13.91 0 0 0 -5.12,1.3 3.39,3.39 0 0 0 -2,2.64 v 0 l -16.17,-3 -11.82,-2.51 28.07,-4.45 z"
       id="path119" />
    <path
       d="m 161.13,155.08 -10.35,4.21 -7.39,3 c -0.17,0.07 -0.59,0.15 -0.71,0.29 -0.12,0.14 0.7,0.1 0.34,-0.08 a 7.38,7.38 0 0 0 -1.57,-0.29 l -15.45,-2.86 -7,-1.31 a 10.31,10.31 0 0 1 -1.76,-0.33 c -0.06,0 -0.17,0 -0.22,0 -0.05,0 0.11,0.1 0.1,0.08 a 2.41,2.41 0 0 1 0,-0.54 6.07,6.07 0 0 0 -0.19,-1.75 2.37,2.37 0 0 0 -1,-1.29 11.37,11.37 0 0 0 -2.49,-1.63 14.91,14.91 0 0 1 -2.81,-1 5.83,5.83 0 0 0 -2.47,-0.85 10.31,10.31 0 0 0 -3.85,0.52 c -2.08,0.59 -4.12,1.46 -4.61,3.76 l 0.9,-0.37 c -7.24,-1.45 -14.52,-2.68 -21.75,-4.22 l -6.22,-1.42 -0.43,0.6 19,-3 c 2.88,-0.46 5.78,-0.85 8.65,-1.37 0.22,0 0.66,0 0.17,-0.07 a 1.35,1.35 0 0 1 0.28,0 c 0.6,0.14 1.22,0.21 1.82,0.31 l 19.06,3.26 25.1,4.28 9.65,1.65 c 1.61,0.28 3.24,0.66 4.86,0.83 h 0.22 c 0.35,0.06 1.31,-0.49 0.69,-0.59 l -12.14,-2.08 -24.83,-4.24 -20.67,-3.52 a 29.49,29.49 0 0 0 -3.36,-0.58 9.35,9.35 0 0 0 -1.89,0.26 l -4.48,0.71 q -10.74,1.69 -21.5,3.4 l -0.46,0.08 c -0.22,0 -1,0.46 -0.42,0.59 q 11.43,2.43 22.9,4.59 c 1.71,0.32 3.42,0.62 5.13,1 0.25,0 0.83,-0.05 0.9,-0.37 0.54,-2.52 3.38,-3.2 5.64,-3.48 a 5.32,5.32 0 0 1 1,-0.06 5.4,5.4 0 0 1 2.61,1.08 12.11,12.11 0 0 0 2.22,0.63 9,9 0 0 1 2.44,1.5 c 1.29,0.93 1.33,2.06 1.33,3.62 0,0.08 0.16,0.14 0.21,0.14 2.35,0.3 4.7,0.88 7,1.32 l 13.1,2.51 4.7,0.88 a 4.25,4.25 0 0 0 1.93,0.17 39.69,39.69 0 0 0 4,-1.64 L 153,159 l 8.57,-3.49 c 0.72,-0.28 0.06,-0.63 -0.44,-0.43 z"
       id="path121" />
    <path
       class="cls-17"
       d="m 100.32,155.3 h -0.06 l -16.16,-3.45 16.17,3 a 0.88,0.88 0 0 0 0,0.16 v 0 a 1.05,1.05 0 0 0 0.05,0.29 z"
       id="path123" />
    <path
       class="cls-17"
       d="m 142.82,162.85 -10,-1.78 -2.38,-0.42 -9.53,-1.65 -2.38,-0.42 h -0.27 l -0.86,-0.15 -0.68,-0.12 a 2.28,2.28 0 0 1 0,-0.27 v 0 z"
       id="path125" />
    <path
       class="cls-11"
       d="m 180.89,48.61 c 0,0 3.7,-1.46 4.61,-4.74 0.91,-3.28 -1.93,-2.77 -1.93,-2.77"
       id="path127" />
    <path
       d="m 181.14,48.93 a 9.25,9.25 0 0 0 3.77,-2.83 c 1,-1.27 2.39,-4.42 0.16,-5.27 a 3.1,3.1 0 0 0 -1.6,-0.11 c -0.23,0 -0.52,0.27 -0.46,0.53 0.06,0.26 0.45,0.27 0.66,0.23 -0.34,0.06 0.07,0 0.15,0 h 0.2 0.16 0.08 c 0.06,0 -0.07,0 0,0 a 1,1 0 0 1 0.55,0.33 1.46,1.46 0 0 1 0.29,0.91 c 0,2.08 -1.59,3.82 -3.24,4.87 a 8.37,8.37 0 0 1 -1.23,0.64 c -0.22,0.08 -0.42,0.35 -0.27,0.57 0.15,0.22 0.54,0.17 0.76,0.08 z"
       id="path129" />
    <path
       class="cls-18"
       d="m 183.29,42.86 c 0.05,-0.53 1.37,-6.14 0.48,-10.47 -0.89,-4.33 -1.62,-6.92 -3.38,-6.75 a 33.85,33.85 0 0 1 -4.47,0 c 0,0 0.94,-2.07 -4.73,-4.15 -5.67,-2.08 -14.35,2.08 -17.19,1.56 -2.84,-0.52 -5.5,-2.42 -6.38,-0.87 a 2.59,2.59 0 0 0 0,2.77 c 0,0 -1.84,-1.9 -3.14,-0.17 -1.3,1.73 1.26,3.81 1.26,3.81 0,0 -3.44,-3.12 -3.44,-0.52 0,2.6 2.31,6.42 7.62,6.32 5.31,-0.1 13.29,-4.88 18.82,-5.57 5.53,-0.69 5.4,7.33 7.76,8.55 2.36,1.22 3.77,-1.63 3.77,-1.63 0,0 -1.92,7.91 -0.27,8.78 2.74,1.45 2,-0.16 1.93,-0.17"
       id="path131" />
    <path
       d="m 183.19,44.76 a 22.89,22.89 0 0 1 1.06,-3.32 31,31 0 0 0 1.33,-6.17 18.75,18.75 0 0 0 -0.82,-6.61 c -0.34,-1.3 -0.8,-3.36 -2.22,-3.91 a 8.1,8.1 0 0 0 -2.78,-0.05 c -0.9,0 -1.8,0 -2.69,-0.08 l 0.31,0.36 c 0.4,-0.95 -0.4,-2 -1.06,-2.55 a 12.4,12.4 0 0 0 -8.27,-2.79 41,41 0 0 0 -9,1.56 21.86,21.86 0 0 1 -3.58,0.73 c -1.49,0.1 -3,-0.65 -4.33,-1.12 -1.1,-0.39 -2.63,-0.85 -3.6,0.1 a 3,3 0 0 0 -0.29,3.55 l 1,-0.45 c -1.15,-1.19 -3,-1.51 -4.17,-0.09 -1.17,1.42 0,3.33 1.21,4.36 0.3,0.26 1.37,-0.14 1,-0.45 a 5.73,5.73 0 0 0 -2.94,-1.73 c -1.76,-0.17 -1.81,1.6 -1.5,2.87 1.09,4.48 5.82,6 10,5.36 5.34,-0.86 10.14,-3.65 15.38,-4.89 2.05,-0.49 3.86,-0.56 5.25,1.23 a 17.87,17.87 0 0 1 2.11,4.59 c 0.56,1.45 1.25,3 3,3.1 A 2.93,2.93 0 0 0 180.57,36 l -1.12,0.13 a 26.67,26.67 0 0 0 -0.62,6.84 c 0.08,1.1 0.36,2.34 1.64,2.57 a 2.3,2.3 0 0 0 2.38,-1.44 c 0.23,-0.51 -0.88,-0.41 -1,0 a 1.68,1.68 0 0 1 -0.49,0.71 c -0.54,0.32 -1,-0.33 -1.15,-0.78 a 8.44,8.44 0 0 1 -0.21,-3.17 35.34,35.34 0 0 1 0.61,-4.81 c 0.09,-0.47 -1,-0.26 -1.12,0.13 a 3,3 0 0 1 -0.45,1 1.28,1.28 0 0 1 -2.06,0 8.47,8.47 0 0 1 -1.59,-3.24 c -0.91,-2.43 -2.1,-5.29 -5.08,-5.5 a 16.36,16.36 0 0 0 -6,1.22 c -2.21,0.73 -4.38,1.6 -6.57,2.39 -3.92,1.41 -9.11,3.21 -12.67,0 a 6.43,6.43 0 0 1 -2.2,-4.6 1.38,1.38 0 0 1 0.06,-0.54 c 0.13,-0.23 -0.06,-0.16 0.29,-0.06 a 3.4,3.4 0 0 1 1,0.53 9.8,9.8 0 0 1 1.14,0.9 l 1,-0.45 a 4.42,4.42 0 0 1 -1.58,-2.38 c -0.18,-0.94 0.47,-2.12 1.53,-1.67 a 3,3 0 0 1 0.95,0.68 c 0.26,0.27 1.31,0 1,-0.45 -0.53,-0.78 -0.58,-3 0.66,-3 1.24,0 2.81,0.94 4.12,1.3 1.9,0.53 3.71,0.07 5.59,-0.38 a 54,54 0 0 1 7.67,-1.56 12.45,12.45 0 0 1 8.21,1.93 4,4 0 0 1 1.73,1.88 1.81,1.81 0 0 1 0.08,0.56 c 0,0.07 -0.09,0.34 0,0.17 -0.1,0.24 0.09,0.34 0.31,0.36 q 1.35,0.09 2.7,0.09 c 0.93,0 2.18,-0.4 2.9,0.32 a 6.5,6.5 0 0 1 1.3,2.86 26.75,26.75 0 0 1 0.94,4.42 20.55,20.55 0 0 1 -1,7.49 c -0.27,1 -0.59,2 -0.91,2.94 a 9,9 0 0 0 -0.47,1.47 c -0.07,0.47 1.06,0.28 1.12,-0.12 z"
       id="path133" />
    <path
       class="cls-19"
       d="m 162.85,58.34 a 2.26,2.26 0 0 1 -1.22,0.15 3.24,3.24 0 0 1 -1.42,-0.56 c -0.14,-0.09 -0.4,0 -0.54,0 -0.14,0 -0.38,0.17 -0.25,0.25 a 4,4 0 0 0 3.92,0.25 c 0.08,0 0.27,-0.17 0.1,-0.23 a 0.92,0.92 0 0 0 -0.59,0.1 z"
       id="path135" />
    <g
       id="Calque_7"
       data-name="Calque 7">
      <g
         id="Calque_4"
         data-name="Calque 4">
        <path
           class="cls-20"
           d="m 178.23,78.33 c 0,0 11.84,-3.55 14.49,-0.39 2.65,3.16 12.89,18.57 12.89,18.57 0,0 -13.5,-16.74 -15.33,-17.51 -1.83,-0.77 -12.05,-0.67 -12.05,-0.67 z"
           id="path138" />
        <path
           class="cls-21"
           d="m 218.93,53.68 c 0,0 -0.9,2.63 0,2.93 a 18.43,18.43 0 0 1 2.25,1 l -0.9,3 -0.42,2.13 c 0,0 4.62,-7 3,-9.09 -1.62,-2.09 -4.78,0.11 -4.78,0.11 z"
           id="path140" />
        <path
           class="cls-21"
           d="m 214.28,63.06 c 0.4,0.21 4.55,0.92 5.87,4.14 1.32,3.22 1.63,9.36 1.2,10.93 a 39.65,39.65 0 0 1 -2.6,5.46 c 0,0 0.71,-15.21 -1.92,-17.31 -2.63,-2.1 -5.32,-3.14 -4.8,-3.22 a 20.45,20.45 0 0 1 2.25,0 z"
           id="path142" />
        <path
           class="cls-21"
           d="m 212.89,87.14 c 0.58,0.08 5.17,1.28 5.17,1.28 l 1.46,1.31 c 0,0 2.24,28.32 2.34,28.69 0.1,0.37 -1,-2.17 -1.23,-2.62 -0.23,-0.45 -5.42,-24.23 -6.93,-26.48 a 8.78,8.78 0 0 0 -2.84,-2.92 z"
           id="path144" />
        <path
           class="cls-22"
           d="m 210.13,226.47 c 0.2,0.91 13.62,68.06 11.11,75.39 -2.51,7.33 -6.11,4.86 -6.11,4.86 0,0 -7.94,-75 -10.83,-80.25 -2.89,-5.25 -6.29,-9.71 -2.36,-8.82 3.93,0.89 8.19,8.82 8.19,8.82 z"
           id="path146" />
        <path
           class="cls-21"
           d="m 166.05,241.21 c 3.65,5.41 -3,65 -3,65 0,0 -4.29,2.34 -3.58,0 0.71,-2.34 6.58,-65 6.58,-65 z"
           id="path148" />
        <path
           class="cls-21"
           d="m 120.33,107.63 45.29,5.51 -0.83,8.44 -1.34,-7.22 z"
           id="path150" />
        <path
           class="cls-3"
           d="m 120.33,113.14 c 0,0 30,36.27 29.16,36.13 L 104,141.84 v -31.51 z"
           id="path152" />
        <path
           class="cls-3"
           d="m 174.43,24.84 c 0,0 -2.13,-3.67 -7.83,-1.31 -2.66,1.11 -7.78,2.65 -8.85,2.42 -1.07,-0.23 3,3.33 8.14,0.28 5.14,-3.05 8.54,-1.39 8.54,-1.39 z"
           id="path154" />
        <line
           class="cls-3"
           x1="175.78999"
           y1="25.030001"
           x2="176.03"
           y2="25.110001"
           id="line156" />
        <path
           class="cls-3"
           d="m 104,110.33 c 0.16,0.08 0,31.51 0,31.51 l 54.22,8.86 2.53,-33.24 z"
           id="path158" />
        <path
           d="m 103.48,110.48 c 0.12,0.18 0,0.66 0,0.86 0,0.77 0,1.55 0,2.32 q 0,3.78 0,7.56 0,8.4 0,16.8 c 0,1.32 0,2.65 0,4 a 0.11,0.11 0 0 0 0.1,0.07 l 18.38,3 29.14,4.76 6.7,1.1 c 0.24,0 1,0 1,-0.38 l 2.2,-29.17 0.31,-4.09 c 0,-0.07 -0.18,-0.08 -0.2,-0.09 L 142,114.82 111.4,111 l -7,-0.88 c -0.26,0 -1.29,0.41 -0.72,0.48 l 12.84,1.61 25.37,3.19 17.65,2.22 c 0.23,0 0.46,0 0.69,0.09 0.23,0.09 0,0 0,-0.06 a 11,11 0 0 1 -0.14,1.81 l -0.77,10.15 -1,12.77 -0.39,5.08 a 21.93,21.93 0 0 0 -0.23,3 c 0,0.13 0,0.27 0,0.4 l 1,-0.37 -12.13,-2 -23.94,-3.92 -17.12,-2.8 c -0.18,0 -0.88,0 -1,-0.16 0.17,0.17 0.08,-0.17 0.1,-0.29 a 10.84,10.84 0 0 0 0,-1.14 q 0,-4.77 0,-9.55 0,-6.12 0,-12.26 a 72.28,72.28 0 0 0 0,-7.79 c 0,-0.11 0,-0.32 0,-0.41 -0.2,-0.28 -1.23,0.14 -1.13,0.31 z"
           id="path160" />
        <path
           class="cls-3"
           d="m 160.62,58.34 0.65,-6.79 1.91,4.9 a 1.29,1.29 0 0 1 -0.87,1.71 4.54,4.54 0 0 1 -1.69,0.18 z"
           id="path162" />
        <path
           class="cls-3"
           d="m 169.7,59.85 c -1.42,1.91 -3,3.95 -5.27,4.63 -2.27,0.68 -4.91,-0.23 -7.22,-1.16 a 26.59,26.59 0 0 0 8.12,-1.21"
           id="path164" />
        <path
           class="cls-19"
           d="m 169.32,59.91 c -1.22,1.65 -2.57,3.5 -4.53,4.3 -2.36,1 -5.06,-0.16 -7.27,-1 l -0.56,0.31 a 28.12,28.12 0 0 0 8.4,-1.25 c 0.44,-0.13 0.39,-0.39 -0.07,-0.25 a 26,26 0 0 1 -7.83,1.18 c -0.1,0 -0.84,0.2 -0.57,0.31 2.52,1 5.25,2 8,1 2.3,-0.81 3.84,-2.8 5.24,-4.7 0.06,-0.07 -0.62,-0.05 -0.76,0.13 z"
           id="path166" />
        <path
           class="cls-3"
           d="m 184.25,41.42 c 0,0 2,0.44 1.34,2.11 a 10.86,10.86 0 0 1 -2.44,3.3 z"
           id="path168" />
        <path
           class="cls-21"
           d="m 223.2,305.57 c 0,0 21.13,7 22.24,11.66 1.11,4.66 0,5.86 0,5.86 a 11.4,11.4 0 0 0 -5.87,-7.6 c -5.15,-2.82 -18.72,-11.93 -18.72,-11.93 z"
           id="path170" />
        <path
           class="cls-21"
           d="m 162,307.73 c -3.34,-1.58 0.81,-0.11 -4.49,4.78 -5.3,4.89 -23,16.12 -23,16.12 L 168,317 l -6,-9.27 v 0"
           id="path172" />
        <polygon
           class="cls-21"
           points="117.96,158.14 142.25,162.45 153.7,157.78 "
           id="polygon174" />
      </g>
    </g>
    <g
       id="Calque_5"
       data-name="Calque 5">
      <path
         class="cls-19"
         d="m 245.82,317.05 c -1.21,-2.06 -4.07,-3.37 -6.06,-4.45 -3.47,-1.88 -7.09,-3.51 -10.72,-5 q -2.44,-1 -4.92,-2 c -0.72,-0.28 -1.43,-0.56 -2.16,-0.82 l -0.88,-0.32 c -0.72,-0.26 -0.43,0 -0.11,-0.56 0.77,-1.21 0.69,-3 0.76,-4.39 A 77.6,77.6 0 0 0 220.39,283 c -0.91,-5.5 -1.92,-11 -3,-16.46 -2.57,-13.62 -5.28,-27.22 -8.34,-40.74 -1.07,-4.69 -2.12,-9.41 -3.52,-14 -0.37,-1.21 -0.86,-2.36 -1.29,-3.55 a 61.46,61.46 0 0 1 -1.85,-6.76 c -3.43,-14.57 -5.79,-29.39 -8.55,-44.1 -0.25,-1.36 -0.51,-2.71 -0.78,-4.07 l -0.47,0.38 h 0.6 c 0.13,0 0.39,-0.1 0.44,-0.24 0.72,-1.77 1.44,-3.54 2.21,-5.28 a 5.2,5.2 0 0 0 0.6,-2.1 c 0.12,-2.62 0,-5.27 -0.12,-7.88 -0.28,-7.83 -0.71,-15.65 -1.06,-23.47 -0.06,-1.5 -0.13,-3 -0.17,-4.51 0,-0.41 0,-0.83 0,-1.24 0,-0.41 0.17,-0.56 -0.1,-0.41 l -0.61,0.07 c 0,0 0.55,1.76 0.69,2.17 0.39,1.16 0.77,2.33 1.16,3.49 q 0.9,2.67 1.77,5.36 1.69,5.28 3.18,10.63 c 1,3.72 1.61,7.52 4.62,10.21 a 26.43,26.43 0 0 0 3.69,2.61 c 1.28,0.8 2.45,1.83 3.76,2.56 2,1.12 3.45,0.07 4.76,-1.52 1.31,-1.59 2.84,-3.08 3.43,-5 1.09,-3.53 1,-7.56 1,-11.21 a 272.8,272.8 0 0 0 -1.64,-31 c -0.18,-1.82 -0.39,-3.63 -0.65,-5.44 a 10.07,10.07 0 0 0 -0.55,-2.84 1.82,1.82 0 0 0 -1.12,-0.85 c -0.3,-0.13 -0.62,-0.24 -0.93,-0.34 -0.16,0 -0.66,-0.12 -0.77,-0.24 -0.35,-0.39 -0.17,0.07 -0.06,-0.35 0.17,-0.65 1.18,-1.5 1.58,-2 a 17.2,17.2 0 0 0 3.7,-7.81 18.38,18.38 0 0 0 0.22,-5 15.56,15.56 0 0 0 -1.73,-5.07 c -0.74,-1.65 0.26,-4.6 0.88,-6.23 0.62,-1.63 1.4,-3.13 1.89,-4.77 0.28,-1 0.77,-2.53 -0.13,-3.3 a 3.4,3.4 0 0 0 -2.94,-0.23 c -2.63,0.69 -3.94,2.9 -3.69,5.65 a 16.29,16.29 0 0 0 0.8,2.91 3.59,3.59 0 0 1 -0.63,3.09 l 0.65,-0.23 c -2.92,-0.92 -7.09,-3.45 -9.6,-0.23 A 6.14,6.14 0 0 0 206.58,67 c -0.13,1.82 -1,3.23 -1.3,5 l 0.59,-0.31 v 0 c -0.23,0 -0.91,0.35 -0.41,0.52 -0.45,-0.15 -0.27,3.44 -0.2,3.8 a 9.45,9.45 0 0 0 1.26,3.4 c 0.66,1 1.51,1.4 1.93,2.61 a 8.5,8.5 0 0 1 0.22,4 l 0.59,-0.31 c -0.91,0 -2.86,-0.31 -3.31,0.79 a 11,11 0 0 0 -0.21,2.82 l -0.56,7.22 0.82,-0.22 c -2.51,-3.88 -5,-7.79 -7.56,-11.61 a 55.9,55.9 0 0 0 -4.6,-6.23 c -1.61,-1.78 -4.09,-2 -6.37,-2.06 -3.31,0 -7.05,0.3 -10,2 l 0.69,0.11 a 11.5,11.5 0 0 1 0.44,-2.41 9.06,9.06 0 0 0 0.42,-3.06 2.55,2.55 0 0 0 -2,-2.25 10.09,10.09 0 0 0 -4,-0.26 3.89,3.89 0 0 1 -0.93,0.12 c -0.55,-0.14 -0.56,-0.82 -0.65,-1.34 a 5.33,5.33 0 0 1 -0.27,-1.61 c 0.11,-0.68 0.7,-0.91 1.21,-1.3 a 36.49,36.49 0 0 0 7.48,-8 15.74,15.74 0 0 0 2.43,-4.07 28.2,28.2 0 0 0 1.23,-5.59 3.52,3.52 0 0 1 0.51,-1.93 c 0.23,-0.29 0.53,-0.54 0.76,-0.83 a 6.05,6.05 0 0 0 1.21,-2.68 2.49,2.49 0 0 0 -0.2,-1.74 c -0.17,-0.25 -1,-0.56 -1.05,-0.7 -0.05,-0.14 0.36,-1.16 0.42,-1.4 0.16,-0.61 0.31,-1.23 0.43,-1.85 a 17.67,17.67 0 0 0 0.41,-4.1 23.68,23.68 0 0 0 -1.24,-6.34 c -0.42,-1.29 -1.09,-2.6 -2.55,-2.83 a 21.37,21.37 0 0 0 -3.2,0.06 c -1.4,0 -1.05,-0.63 -1.77,-1.56 A 9.62,9.62 0 0 0 172.46,20 c -5,-1.5 -10.1,0.28 -15,1.38 a 8.24,8.24 0 0 1 -5.14,-0.44 9,9 0 0 0 -3.09,-0.81 2.77,2.77 0 0 0 -2.85,3.06 l 0.68,-0.3 c -2.21,-0.49 -4.33,1 -3.7,3.43 l 0.68,-0.36 c -4.14,-0.77 -2.52,4.57 -0.84,6.3 a 7.58,7.58 0 0 0 2.14,1.54 c 0.38,0.18 0.84,0.27 1.2,0.47 0.73,0.41 0.42,0.76 0.21,1.58 -0.46,1.81 -1,3.5 -0.66,5.36 a 45.52,45.52 0 0 0 1.57,4.79 30.88,30.88 0 0 1 1.51,6.79 c 0.19,2 0.14,3.75 0.92,5.65 a 20.47,20.47 0 0 0 2.91,4.92 18.82,18.82 0 0 0 5.11,4.55 13.56,13.56 0 0 0 2.94,1.3 13.27,13.27 0 0 1 1.42,0.31 c 0.43,0.18 0.23,-0.13 0.48,0.39 a 4.6,4.6 0 0 1 -0.1,1.47 l 0.48,-0.31 a 25.11,25.11 0 0 0 -5.84,1.17 3.75,3.75 0 0 0 -2.26,1.48 c -0.73,1.5 0.32,3.81 1,5.19 l 0.47,-0.38 c -1.89,0.26 -3.77,0.58 -5.64,0.94 -2.38,0.45 -5.25,0.79 -7.38,2 -1.54,0.9 -2,3.54 -2.42,5.1 -1,3.53 -1.85,7.12 -2.6,10.71 -0.87,4.09 -1.66,8.2 -2.23,12.35 l 0.58,-0.31 -31.44,-3.83 -4.46,-0.54 c -0.15,0 -0.57,0.09 -0.58,0.31 q -0.28,17.18 -0.56,34.34 c 0,1.76 -0.07,3.51 -0.08,5.27 l 0.48,-0.31 -25.58,4.06 a 25.06,25.06 0 0 1 -4,0.39 c -0.15,0 -0.58,0.08 -0.58,0.31 v 2 a 0.19,0.19 0 0 0 0.17,0.2 c 8,1.46 16.07,2.83 24.08,4.37 1.86,0.36 3.71,0.79 5.56,1.18 0.23,0 0.71,-0.05 0.68,-0.36 v -0.17 l -0.67,0.36 c 0.56,0.1 0.84,1 1.14,1.5 0.56,0.86 1.22,1.64 1.81,2.47 a 9.22,9.22 0 0 0 2.61,2.81 c 3.41,2.15 7.74,3.05 11.66,3.71 l 0.41,-0.52 c -1.34,0 -2.67,-0.18 -4,-0.35 -0.17,0 -0.76,0.19 -0.54,0.44 a 10.5,10.5 0 0 0 6.28,3.69 5.78,5.78 0 0 0 2.95,0 c 0.56,-0.26 0.73,-0.59 1.37,-0.76 l 3.57,-1 q 5.1,-1.41 10.18,-2.91 l -0.49,-0.13 c 1.91,15.39 3.29,30.85 4.85,46.27 q 1.32,13 2.6,26.1 a 171.94,171.94 0 0 1 0.73,20.43 c -0.23,10 -0.77,20 -0.94,30 a 82.63,82.63 0 0 0 0.19,9.83 7.43,7.43 0 0 0 0.5,2.25 c 0,0.11 0.35,0.35 0.35,0.39 0.09,0.46 -0.86,1.07 -1.22,1.42 a 33.6,33.6 0 0 1 -2.8,2.67 18.92,18.92 0 0 1 -3.63,1.81 c -2,0.88 -4.06,1.7 -6.1,2.51 -4.34,1.72 -8.72,3.37 -13.06,5.12 -1.85,0.75 -7.23,2.14 -5.25,5.05 1.75,2.58 5.27,3.73 8.26,3.45 7.74,-0.71 15.49,-2.58 23,-4.34 4,-0.93 8,-1.92 12,-3.11 1.9,-0.58 4.8,-1.11 6.3,-2.55 1.5,-1.44 0.24,-4.11 -0.58,-5.58 l -0.64,0.42 1,0.35 c 0.19,0.07 0.65,0 0.68,-0.29 1.61,-16.76 3.3,-33.53 4.42,-50.32 a 54.71,54.71 0 0 0 -0.93,-16.1 37.16,37.16 0 0 1 -1.29,-6 c -0.08,-1.39 -0.05,-2.78 -0.06,-4.17 -0.11,-10.43 -0.22,-20.88 0.1,-31.3 0.19,-6.28 0,-12.52 0,-18.79 a 6.4,6.4 0 0 1 0.11,-2.14 c 0.37,-1 1.56,-1.16 2.47,-1.34 0.28,-0.05 1.26,-0.19 1.1,-0.29 0.55,0.35 0.9,1.87 1.13,2.44 3.66,9.26 6.57,18.86 9.63,28.33 q 2.07,6.42 4.12,12.86 a 7.7,7.7 0 0 1 0.65,3.56 13.06,13.06 0 0 0 -0.31,2.27 47.13,47.13 0 0 0 0.92,8.37 c 1.31,7.55 3.6,15 5.63,22.37 4.71,17 9.69,34 14.76,50.91 l 0.3,1 a 0.22,0.22 0 0 0 0.17,0.14 10.66,10.66 0 0 0 1.78,0.29 11.69,11.69 0 0 1 1.77,0 c 0.82,0.22 1.45,1.88 1.91,2.58 a 50.85,50.85 0 0 0 5,6.26 22.26,22.26 0 0 0 9.45,5.66 55.41,55.41 0 0 0 11,2.37 c 1.42,0.17 2.84,0.3 4.27,0.38 a 7.31,7.31 0 0 0 2.72,-0.11 c 3.93,-1.33 3.32,-7.44 1.87,-10.27 -0.16,-0.32 -1,-0.06 -0.84,0.23 a 9.6,9.6 0 0 1 1,5.62 c -0.2,1.56 -0.92,3.82 -2.76,4.05 a 26.13,26.13 0 0 1 -6,-0.44 c -6.16,-0.75 -13.16,-2.11 -18.12,-6.1 -3.49,-2.81 -6.26,-6.9 -8.51,-10.74 -0.05,-0.1 -0.25,-0.1 -0.34,-0.09 -0.66,0.09 -3.15,0.46 -3.55,-0.13 a 3,3 0 0 1 -0.2,-0.67 l -0.83,-2.78 q -1.55,-5.19 -3.07,-10.37 -4.53,-15.35 -8.9,-30.74 c -2.49,-8.83 -5,-17.67 -7,-26.62 -0.33,-1.5 -0.62,-3 -0.85,-4.5 -0.39,-2.56 -1,-5.49 -0.58,-8.09 a 6.53,6.53 0 0 0 -0.05,-3.37 c -0.24,-0.82 -0.52,-1.64 -0.78,-2.46 l -2,-6.41 c -3.29,-10.25 -6.54,-20.53 -10.22,-30.64 -0.51,-1.41 -1,-2.82 -1.62,-4.19 -0.22,-0.49 -0.44,-1.32 -1,-1.47 -0.28,-0.07 -0.76,0.16 -1,0.22 a 18.91,18.91 0 0 0 -2,0.44 2.58,2.58 0 0 0 -1.89,1.69 10.6,10.6 0 0 0 -0.09,2.64 c 0,1.66 0.08,3.33 0.12,5 0.15,5.83 -0.1,11.63 -0.18,17.46 -0.08,5.83 -0.09,11.68 -0.07,17.52 0,4.35 0,8.71 0.11,13.06 a 20.13,20.13 0 0 0 0.78,4.61 51.32,51.32 0 0 1 1.62,9.45 100,100 0 0 1 -0.56,14 q -0.63,8.1 -1.36,16.19 -1.22,13.63 -2.53,27.28 c -0.05,0.51 -0.09,1 -0.14,1.53 l 0.67,-0.3 -1,-0.35 c -0.22,-0.08 -0.82,0.11 -0.65,0.42 0.76,1.37 2.08,4.1 0.38,5.25 a 10.85,10.85 0 0 1 -2.2,1 c -2.58,1 -5.27,1.69 -7.93,2.39 -6.79,1.8 -13.66,3.31 -20.56,4.61 -2.76,0.52 -5.54,1 -8.33,1.36 a 9,9 0 0 1 -6.36,-1.11 c -1.63,-0.94 -4.31,-3.17 -1.59,-4.62 0.93,-0.49 1.94,-0.87 2.91,-1.27 3.24,-1.34 6.52,-2.58 9.78,-3.85 3.66,-1.43 7.34,-2.83 10.92,-4.43 a 20.82,20.82 0 0 0 3.17,-1.58 40.5,40.5 0 0 0 4.69,-4.39 0.19,0.19 0 0 0 0,-0.31 c -0.87,-0.66 -0.91,-1.65 -1,-2.68 -0.18,-1.72 -0.2,-3.46 -0.21,-5.19 0,-5.09 0.15,-10.19 0.33,-15.27 0.37,-10.46 1.1,-21 0.62,-31.47 -0.35,-7.61 -1.38,-15.24 -2.14,-22.81 q -1.68,-16.74 -3.41,-33.48 c -0.84,-8.15 -1.6,-16.32 -2.61,-24.45 0,-0.19 -0.38,-0.16 -0.49,-0.13 -2.93,0.88 -5.87,1.72 -8.82,2.54 l -3.53,1 a 12.43,12.43 0 0 0 -2.34,0.63 1.87,1.87 0 0 0 -0.42,0.32 c 0,0 -0.49,0.41 -0.17,0.25 0.32,-0.16 0.14,-0.05 0,0 a 5,5 0 0 1 -1.59,0 9.9,9.9 0 0 1 -6.6,-3.6 l -0.55,0.43 c 1.33,0.18 2.66,0.3 4,0.35 0.24,0 0.9,-0.43 0.41,-0.51 -4,-0.67 -8.45,-1.55 -11.82,-3.85 -1.28,-0.88 -1.93,-2.2 -2.86,-3.41 a 30.24,30.24 0 0 1 -1.73,-2.61 c -0.33,-0.54 -0.21,-0.51 -0.82,-0.62 -0.23,0 -0.7,0.05 -0.67,0.37 V 157 l 0.68,-0.37 c -8.88,-1.89 -17.83,-3.41 -26.77,-5 -0.84,-0.15 -1.69,-0.35 -2.53,-0.46 -0.36,0 -0.27,-0.15 -0.17,0.09 a 6.05,6.05 0 0 1 0,-1.9 l -0.59,0.31 a 62.17,62.17 0 0 0 9.59,-1.25 l 16.2,-2.57 4,-0.63 c 0.14,0 0.47,-0.11 0.47,-0.31 0,-11.58 0.37,-23.17 0.56,-34.75 0,-1.62 0.05,-3.24 0.08,-4.86 l -0.58,0.31 31.43,3.83 4.46,0.54 c 0.18,0 0.55,-0.09 0.58,-0.31 a 180.26,180.26 0 0 1 4.06,-20.21 c 0.36,-1.4 0.74,-2.79 1.18,-4.16 a 10.14,10.14 0 0 1 1.16,-2.94 5,5 0 0 1 2.52,-1.19 c 1.34,-0.38 2.7,-0.68 4.06,-1 2.1,-0.43 4.22,-0.78 6.35,-1.08 0.11,0 0.58,-0.16 0.47,-0.38 A 11.3,11.3 0 0 1 156,75.06 c -0.15,-1.63 0.94,-2.11 2.37,-2.56 a 26.53,26.53 0 0 1 4.94,-0.9 c 0.15,0 0.46,-0.12 0.47,-0.31 q 0.07,-1 0.12,-2 c 0,-0.16 -0.13,-0.21 -0.26,-0.22 -6.87,-0.71 -13.19,-8.15 -13.48,-14.91 a 37.66,37.66 0 0 0 -2.42,-10.72 13.86,13.86 0 0 1 -0.91,-3.51 c -0.13,-1.9 0.73,-4 1.22,-5.81 0,-0.11 -0.09,-0.18 -0.17,-0.2 a 7.58,7.58 0 0 1 -4.38,-2.68 c -0.5,-0.67 -2.67,-5.36 0.07,-4.85 0.19,0 0.76,-0.05 0.68,-0.36 -0.33,-1.24 -0.17,-3.26 2.34,-2.71 0.18,0 0.68,0 0.68,-0.29 a 2.29,2.29 0 0 1 2.87,-2.25 12,12 0 0 1 1.72,0.59 10.1,10.1 0 0 0 3,0.8 c 2.26,0.1 4.62,-0.86 6.79,-1.36 2.91,-0.68 6,-1.27 9,-0.71 2.16,0.4 6.44,1.84 6.46,4.55 0,0.15 0.13,0.21 0.27,0.22 1.57,0.08 4.56,-0.52 5.68,0.62 1,1 1.24,2.77 1.56,4.07 a 21.36,21.36 0 0 1 -0.63,11.56 c 0,0.1 0.09,0.18 0.17,0.2 2,0.4 1,3.11 0.21,4.21 -0.35,0.51 -1.23,1.07 -1.47,1.62 a 12.57,12.57 0 0 0 -0.29,2.71 18.82,18.82 0 0 1 -1.43,5.41 33.57,33.57 0 0 1 -10.7,11.85 0.26,0.26 0 0 0 -0.15,0.26 c 0.17,1.24 0.38,2.46 0.67,3.68 0,0.1 0.17,0.15 0.26,0.15 1.93,0 4,-0.62 5.82,0.28 1.28,0.63 1.29,1.8 1.12,3.09 a 10.63,10.63 0 0 1 -0.45,2 5.74,5.74 0 0 0 -0.32,2 c 0,0.35 0.54,0.2 0.69,0.11 2.72,-1.61 6.39,-1.88 9.48,-1.78 2.53,0.08 4.48,0.55 6.09,2.52 a 139.09,139.09 0 0 1 9,13.06 c 0.88,1.37 1.74,2.76 2.62,4.13 0.15,0.23 0.8,0 0.82,-0.22 l 0.41,-5.33 0.27,-3.48 a 3.4,3.4 0 0 1 0.07,-1 c 0.33,-0.71 1.4,-0.48 2.16,-0.44 0.18,0 0.55,-0.08 0.58,-0.31 0.31,-2.21 0.14,-4.63 -1.59,-6.24 -2,-1.87 -2.16,-5.21 -1.79,-7.76 0,-0.11 -0.07,-0.17 -0.17,-0.2 v 0 l -0.41,0.52 v 0 c 0.19,0 0.54,-0.07 0.58,-0.31 0.26,-1.36 1,-2.49 1.21,-3.87 0.09,-0.66 0.06,-1.33 0.17,-2 0.36,-2.18 1.8,-3.75 4.15,-3.49 a 8.81,8.81 0 0 1 2.94,1 19.05,19.05 0 0 0 2.21,0.73 0.64,0.64 0 0 0 0.65,-0.23 4.6,4.6 0 0 0 0.9,-2.4 c -0.07,-1.18 -0.75,-2.27 -1,-3.43 a 6.3,6.3 0 0 1 0.75,-4 3.38,3.38 0 0 1 2.34,-1.43 c 3.82,-0.83 1.73,3.88 1,5.57 a 28,28 0 0 0 -1.9,5.87 10.53,10.53 0 0 0 -0.28,1.83 c 0,1 -0.11,0 0.23,1 a 33.49,33.49 0 0 1 1.48,3.47 16.78,16.78 0 0 1 0,7 c -0.73,3.83 -3.19,6.58 -5.43,9.65 -0.09,0.12 0,0.24 0.15,0.27 1,0.27 2.59,0.45 3.08,1.43 a 5.83,5.83 0 0 1 0.29,1.33 c 0.29,1.67 0.49,3.35 0.68,5 0.59,5.31 1,10.64 1.32,16 0.35,5.9 0.59,11.81 0.48,17.72 0,2.29 -0.13,4.6 -0.4,6.89 a 12.09,12.09 0 0 1 -1,4.32 26.74,26.74 0 0 1 -3.11,4 c -0.44,0.5 -1,1.21 -1.66,1.36 -0.85,0.19 -1.72,-0.47 -2.37,-0.95 -2.81,-2 -6.27,-3.59 -8.27,-6.52 -1.38,-2 -1.8,-4.52 -2.43,-6.85 q -0.85,-3.15 -1.79,-6.28 c -1.16,-3.91 -2.44,-7.78 -3.73,-11.65 L 195.75,110 c -0.13,-0.4 -0.29,-1.57 -0.62,-1.8 a 0.58,0.58 0 0 0 -0.84,0.25 c -0.31,0.59 0,2 0,2.64 0.15,4.63 0.4,9.26 0.62,13.89 0.26,5.39 0.52,10.77 0.67,16.16 0,1.62 0.1,3.25 0,4.87 -0.1,1.62 -1.11,3.36 -1.78,5 a 14.89,14.89 0 0 0 -0.77,1.86 1.48,1.48 0 0 1 -0.17,0.41 c 0.07,-0.11 0.4,-0.15 -0.18,-0.11 -0.17,0 -0.52,0.15 -0.47,0.38 2.41,12.29 4.48,24.64 6.93,36.93 1,5.24 2.07,10.52 3.52,15.68 0.7,2.48 1.74,4.84 2.44,7.33 2.71,9.59 4.65,19.42 6.67,29.17 2.32,11.24 4.53,22.51 6.55,33.81 1.55,8.64 3.6,17.85 2.16,26.62 -0.12,0.73 -0.24,0.66 -0.86,1.27 -0.13,0.14 -0.07,0.29 0.1,0.35 a 148.69,148.69 0 0 1 14.33,5.89 73.53,73.53 0 0 1 7,3.64 c 1.38,0.83 3.11,1.78 3.95,3.22 0.2,0.21 1,-0.07 0.82,-0.41 z"
         id="path178" />
      <path
         class="cls-19"
         d="m 125.69,161.07 -1.54,-0.3 -0.5,0.51 1.34,0.24 h 0.2 l -0.17,-0.14 v 0 0 c 0,0.19 0.22,0.23 0.37,0.21 a 0.62,0.62 0 0 0 0.32,-0.11 c 0.06,0 0.15,-0.11 0.16,-0.19 a 0.28,0.28 0 0 0 0,-0.09 0.21,0.21 0 0 0 -0.17,-0.14 l -1.34,-0.24 h -0.2 a 0.69,0.69 0 0 0 -0.59,0.16 c 0,0.06 -0.11,0.13 -0.08,0.21 a 0.22,0.22 0 0 0 0.17,0.14 l 1.54,0.29 a 0.66,0.66 0 0 0 0.6,-0.16 c 0,0 0.1,-0.13 0.07,-0.2 a 0.21,0.21 0 0 0 -0.18,-0.19 z"
         id="path180" />
      <path
         class="cls-19"
         d="m 146,28.29 -0.16,-0.13 -0.54,0.44 v 0 l -0.23,-0.1 0.14,0.13 a 0.15,0.15 0 0 0 0.09,0.06 0.35,0.35 0 0 0 0.14,0 h 0.16 0.17 l 0.09,-0.05 a 0.4,0.4 0 0 0 0.13,-0.13 v -0.07 a 0.15,0.15 0 0 0 0,-0.13 l -0.08,-0.07 v 0 0 a 0.25,0.25 0 0 0 -0.14,-0.08 h -0.09 -0.13 -0.11 -0.11 a 0.38,0.38 0 0 0 -0.13,0.09 0.13,0.13 0 0 0 -0.07,0.06 0.16,0.16 0 0 0 0,0.07 0.15,0.15 0 0 0 0,0.07 0.16,0.16 0 0 0 0,0.09 l 0.16,0.13 a 0.15,0.15 0 0 0 0.09,0.06 0.35,0.35 0 0 0 0.14,0 h 0.16 0.17 l 0.09,-0.05 a 0.4,0.4 0 0 0 0.13,-0.13 V 28.48 A 0.15,0.15 0 0 0 146,28.29 Z"
         id="path182" />
      <path
         class="cls-19"
         d="m 146,24 a 2.55,2.55 0 0 1 0.6,0.35 1.94,1.94 0 0 0 0.59,0.44 l -0.17,-0.14 a 2.64,2.64 0 0 0 0.25,0.47 l 0.78,-0.34 a 3.53,3.53 0 0 0 -1,-0.72 2.3,2.3 0 0 0 -2.35,0.13 l 0.67,0.18 a 0.51,0.51 0 0 1 0.09,-0.16 v -0.06 0 c 0,0 0,0 0,0 a 0.57,0.57 0 0 1 0.11,-0.11 c 0,0 0,0 0,0 h 0.07 c 0,0 0,0 0,0 0,0 0,0 0,0 0,0 0.09,0 0,0 h 0.13 0.16 a 0.64,0.64 0 0 0 0.6,-0.07 c 0.11,-0.07 0.26,-0.29 0.07,-0.37 a 1.68,1.68 0 0 0 -1.32,0 1.64,1.64 0 0 0 -0.79,0.77 c -0.07,0.13 0,0.24 0.15,0.27 a 0.68,0.68 0 0 0 0.52,-0.09 l 0.13,-0.09 c -0.08,0.05 0,0 0,0 0,0 0.17,-0.06 0.05,0 h 0.1 c 0.09,0 -0.08,0 0,0 h 0.13 0.15 c 0,0 0.11,0 0,0 h 0.11 0.2 c 0,0 0.12,0.05 0.06,0 h 0.09 l 0.18,0.1 a 2.17,2.17 0 0 1 0.33,0.19 l 0.13,0.1 h 0.07 c -0.06,0 0,0 0,0 l 0.23,0.2 c 0.21,0.22 1,0 0.78,-0.34 a 0.94,0.94 0 0 1 -0.12,-0.22 c -0.06,-0.12 -0.09,-0.23 -0.23,-0.27 v 0 a 0.43,0.43 0 0 1 -0.1,-0.09 3.16,3.16 0 0 0 -0.91,-0.63 0.64,0.64 0 0 0 -0.6,0.07 c -0.03,0.12 -0.17,0.33 0.06,0.43 z"
         id="path184" />
      <path
         class="cls-19"
         d="m 143,27.08 h 0.11 v 0 h 0.06 l 0.19,0.1 a 4.25,4.25 0 0 1 0.39,0.25 c 0.25,0.17 0.5,0.34 0.73,0.53 l 0.72,-0.4 A 6.9,6.9 0 0 0 144.1,27 2.07,2.07 0 0 0 142.93,26.78 l 0.37,0.21 c 0,0 0,0 0,-0.07 0,-0.07 0,0 0,0 a 0.69,0.69 0 0 0 0,-0.13 c 0,0 0,0 0,-0.05 0,-0.05 0,0 0,0 l -0.23,0.18 v 0 l -0.34,0.06 c -0.15,0 -0.21,-0.07 -0.14,0 v 0 a 1.13,1.13 0 0 0 0.24,0.08 0.64,0.64 0 0 0 0.6,-0.16 0.19,0.19 0 0 0 -0.1,-0.34 h -0.08 v 0 0 a 0.63,0.63 0 0 0 -0.62,0.07 0.35,0.35 0 0 0 -0.17,0.24 c 0,0 0,0 0,0 0,0 0,0 0,0.05 a 0.9,0.9 0 0 0 -0.08,0.21 c 0,0.2 0.25,0.24 0.38,0.22 h 0.09 c -0.06,0 -0.07,0 0,0 h 0.1 c 0.05,0 -0.07,0 0,0 h 0.12 l 0.23,0.08 h 0.07 l 0.13,0.06 a 7.9,7.9 0 0 1 1,0.58 0.44,0.44 0 0 0 0.28,0.05 1,1 0 0 0 0.22,-0.12 0.42,0.42 0 0 0 0.17,-0.15 0.15,0.15 0 0 0 0,-0.2 c -0.28,-0.22 -0.56,-0.43 -0.85,-0.62 a 3.09,3.09 0 0 0 -0.9,-0.47 0.64,0.64 0 0 0 -0.59,0.16 c -0.09,0.16 -0.06,0.28 0.17,0.36 z"
         id="path186" />
    </g>
  </g>
</svg>
