<?xml version="1.0" encoding="UTF-8" standalone="no"?>
<svg
   viewBox="0 0 181.41599 66.2"
   version="1.1"
   id="svg26"
   sodipodi:docname="joblelogotableaublanc.svg"
   width="181.416"
   height="66.199997"
   inkscape:version="1.1 (c68e22c387, 2021-05-23)"
   xmlns:inkscape="http://www.inkscape.org/namespaces/inkscape"
   xmlns:sodipodi="http://sodipodi.sourceforge.net/DTD/sodipodi-0.dtd"
   xmlns="http://www.w3.org/2000/svg"
   xmlns:svg="http://www.w3.org/2000/svg">
  <sodipodi:namedview
     id="namedview28"
     pagecolor="#c8c8c8"
     bordercolor="#666666"
     borderopacity="1.0"
     inkscape:pageshadow="2"
     inkscape:pageopacity="0"
     inkscape:pagecheckerboard="true"
     showgrid="false"
     inkscape:zoom="7.3934907"
     inkscape:cx="64.651464"
     inkscape:cy="32.799121"
     inkscape:window-width="3200"
     inkscape:window-height="1771"
     inkscape:window-x="-9"
     inkscape:window-y="-9"
     inkscape:window-maximized="1"
     inkscape:current-layer="svg26" />
  <defs
     id="defs4">
    <style
       id="style2">.cls-1{fill:#fff5f5;}</style>
  </defs>
  <g
     id="g909"
     transform="translate(4.2529177,0.25291049)">
    <path
       class="cls-1"
       d="M -0.0763876,20.21 A 3.9964955,3.82 0 0 1 -3.9996489,16.34 V 3.86 A 3.9860334,3.81 0 0 1 -0.0763876,0 H 172.96559 a 3.9964955,3.82 0 0 1 3.94419,3.86 v 12.48 a 4.0069575,3.83 0 0 1 -3.93372,3.87 z"
       id="path6"
       style="stroke:#303f9f;stroke-width:0.505821;stroke-miterlimit:4;stroke-dasharray:none;stroke-opacity:1" />
    <rect
       class="cls-1"
       x="136.5"
       y="25.58"
       width="40.41"
       height="17.030001"
       rx="3.75"
       id="rect8"
       style="stroke:#303f9f;stroke-width:0.494526;stroke-miterlimit:4;stroke-dasharray:none;stroke-opacity:1" />
    <rect
       class="cls-1"
       x="90.330002"
       y="25.58"
       width="40.41"
       height="17.030001"
       rx="3.75"
       id="rect10"
       style="stroke:#303f9f;stroke-width:0.494526;stroke-miterlimit:4;stroke-dasharray:none;stroke-opacity:1" />
    <path
       class="cls-1"
       d="M 140.25,65.7 A 4,4 0 0 1 136.5,61.53 V 50.94 a 4,4 0 0 1 3.75,-4.18 h 32.91 a 4,4 0 0 1 3.75,4.18 v 10.59 a 4,4 0 0 1 -3.75,4.17 z"
       id="path12"
       style="stroke:#303f9f;stroke-width:0.494526;stroke-miterlimit:4;stroke-dasharray:none;stroke-opacity:1" />
    <path
       class="cls-1"
       d="M 94.08,65.7 A 4,4 0 0 1 90.33,61.53 V 50.94 a 4,4 0 0 1 3.75,-4.18 H 127 a 4,4 0 0 1 3.76,4.18 V 61.53 A 4,4 0 0 1 127,65.7 Z"
       id="path14"
       style="stroke:#303f9f;stroke-width:0.494526;stroke-miterlimit:4;stroke-dasharray:none;stroke-opacity:1" />
    <rect
       class="cls-1"
       y="25.58"
       width="40.41"
       height="17.030001"
       rx="3.75"
       id="rect16"
       x="-4"
       style="stroke:#303f9f;stroke-width:0.494526;stroke-miterlimit:4;stroke-dasharray:none;stroke-opacity:1" />
    <path
       class="cls-1"
       d="M -0.25,65.7 A 4,4 0 0 1 -4,61.53 V 50.94 a 4,4 0 0 1 3.75,-4.18 h 32.91 a 4,4 0 0 1 3.75,4.18 v 10.59 a 4,4 0 0 1 -3.75,4.17 z"
       id="path18"
       style="stroke:#303f9f;stroke-width:0.494526;stroke-miterlimit:4;stroke-dasharray:none;stroke-opacity:1" />
    <rect
       class="cls-1"
       x="42.169998"
       y="25.58"
       width="40.41"
       height="17.030001"
       rx="3.75"
       id="rect20"
       style="stroke:#303f9f;stroke-width:0.494526;stroke-miterlimit:4;stroke-dasharray:none;stroke-opacity:1" />
    <path
       class="cls-1"
       d="M 45.92,65.7 A 4,4 0 0 1 42.17,61.53 V 50.94 a 4,4 0 0 1 3.75,-4.18 h 32.91 a 4,4 0 0 1 3.75,4.18 v 10.59 a 4,4 0 0 1 -3.75,4.17 z"
       id="path22"
       style="stroke:#303f9f;stroke-width:0.494526;stroke-miterlimit:4;stroke-dasharray:none;stroke-opacity:1" />
  </g>
</svg>
