<?xml version="1.0" encoding="UTF-8" standalone="no"?>
<svg
   viewBox="0 0 180.919 65.7"
   version="1.1"
   id="svg39"
   sodipodi:docname="jobleLogoTableauBleu.svg"
   width="180.91901"
   height="65.699997"
   inkscape:version="1.1 (c68e22c387, 2021-05-23)"
   xmlns:inkscape="http://www.inkscape.org/namespaces/inkscape"
   xmlns:sodipodi="http://sodipodi.sourceforge.net/DTD/sodipodi-0.dtd"
   xmlns:xlink="http://www.w3.org/1999/xlink"
   xmlns="http://www.w3.org/2000/svg"
   xmlns:svg="http://www.w3.org/2000/svg">
  <sodipodi:namedview
     id="namedview41"
     pagecolor="#ffffff"
     bordercolor="#666666"
     borderopacity="1.0"
     inkscape:pageshadow="2"
     inkscape:pageopacity="0.0"
     inkscape:pagecheckerboard="0"
     showgrid="false"
     inkscape:zoom="7.3934907"
     inkscape:cx="86.427376"
     inkscape:cy="32.799121"
     inkscape:window-width="3200"
     inkscape:window-height="1771"
     inkscape:window-x="-9"
     inkscape:window-y="-9"
     inkscape:window-maximized="1"
     inkscape:current-layer="svg39" />
  <defs
     id="defs17">
    <style
       id="style2">.cls-1{fill:url(#Dégradé_sans_nom_14);}.cls-2{fill:url(#Dégradé_sans_nom_14-2);}.cls-3{fill:url(#Dégradé_sans_nom_14-3);}.cls-4{fill:url(#Dégradé_sans_nom_14-4);}.cls-5{fill:url(#Dégradé_sans_nom_14-5);}.cls-6{fill:url(#Dégradé_sans_nom_14-6);}.cls-7{fill:url(#Dégradé_sans_nom_14-7);}.cls-8{fill:url(#Dégradé_sans_nom_14-8);}.cls-9{fill:url(#Dégradé_sans_nom_14-9);}</style>
    <linearGradient
       id="Dégradé_sans_nom_14"
       x1="85.690002"
       y1="-47.349998"
       x2="87.339996"
       y2="65.160004"
       gradientUnits="userSpaceOnUse">
      <stop
         offset="0"
         stop-color="#a9b1de"
         id="stop4" />
      <stop
         offset="1"
         stop-color="#606fc2"
         id="stop6" />
    </linearGradient>
    <linearGradient
       id="Dégradé_sans_nom_14-2"
       x1="151.57001"
       y1="-42.810001"
       x2="153.17"
       y2="65.43"
       xlink:href="#D%C3%A9grad%C3%A9_sans_nom_14"
       gradientTransform="translate(8.0043992,-0.13525411)" />
    <linearGradient
       id="Dégradé_sans_nom_14-3"
       x1="107.42"
       y1="-42.200001"
       x2="109.01"
       y2="66.040001"
       xlink:href="#D%C3%A9grad%C3%A9_sans_nom_14"
       gradientTransform="translate(6.0043992,-0.13525411)" />
    <linearGradient
       id="Dégradé_sans_nom_14-4"
       x1="151.13"
       y1="-50.66"
       x2="152.89999"
       y2="69.370003"
       xlink:href="#D%C3%A9grad%C3%A9_sans_nom_14"
       gradientTransform="translate(8.0043992,-0.13525411)" />
    <linearGradient
       id="Dégradé_sans_nom_14-5"
       x1="106.98"
       y1="-49.98"
       x2="108.74"
       y2="70.040001"
       xlink:href="#D%C3%A9grad%C3%A9_sans_nom_14"
       gradientTransform="translate(6.0043992,-0.13525411)" />
    <linearGradient
       id="Dégradé_sans_nom_14-6"
       x1="19.08"
       y1="-42.200001"
       x2="20.68"
       y2="66.040001"
       xlink:href="#D%C3%A9grad%C3%A9_sans_nom_14"
       gradientTransform="translate(0.00439916,-0.13525411)" />
    <linearGradient
       id="Dégradé_sans_nom_14-7"
       x1="18.639999"
       y1="-49.98"
       x2="20.41"
       y2="70.040001"
       xlink:href="#D%C3%A9grad%C3%A9_sans_nom_14"
       gradientTransform="translate(0.00439916,-0.13525411)" />
    <linearGradient
       id="Dégradé_sans_nom_14-8"
       x1="63.25"
       y1="-42.200001"
       x2="64.839996"
       y2="66.040001"
       xlink:href="#D%C3%A9grad%C3%A9_sans_nom_14"
       gradientTransform="translate(2.0043992,-0.13525411)" />
    <linearGradient
       id="Dégradé_sans_nom_14-9"
       x1="62.810001"
       y1="-49.98"
       x2="64.580002"
       y2="70.040001"
       xlink:href="#D%C3%A9grad%C3%A9_sans_nom_14"
       gradientTransform="translate(2.0043992,-0.13525411)" />
    <linearGradient
       inkscape:collect="always"
       xlink:href="#D%C3%A9grad%C3%A9_sans_nom_14"
       id="linearGradient858"
       gradientUnits="userSpaceOnUse"
       x1="85.690002"
       y1="-47.349998"
       x2="87.339996"
       y2="65.160004"
       gradientTransform="matrix(1.046203,0,0,1,-0.08334513,-0.13525411)" />
  </defs>
  <g
     id="g888"
     transform="translate(0,0.13525411)">
    <path
       class="cls-1"
       d="m 3.9236124,20.074746 a 3.9964955,3.82 0 0 1 -3.92326128604,-3.87 V 3.7247459 A 3.9860334,3.81 0 0 1 3.9236124,-0.13525411 H 176.96559 a 3.9964955,3.82 0 0 1 3.94419,3.86000001 V 16.204746 a 4.0069575,3.83 0 0 1 -3.93372,3.87 z"
       id="path19"
       style="fill:url(#linearGradient858);stroke-width:1.02284" />
    <rect
       class="cls-2"
       x="140.50439"
       y="25.444746"
       width="40.41"
       height="17.030001"
       rx="3.75"
       id="rect21"
       style="fill:url(#D%C3%A9grad%C3%A9_sans_nom_14-2)" />
    <rect
       class="cls-3"
       x="94.334404"
       y="25.444746"
       width="40.41"
       height="17.030001"
       rx="3.75"
       id="rect23"
       style="fill:url(#D%C3%A9grad%C3%A9_sans_nom_14-3)" />
    <path
       class="cls-4"
       d="m 144.2544,65.564746 a 4,4 0 0 1 -3.75,-4.17 v -10.59 a 4,4 0 0 1 3.75,-4.18 h 32.91 a 4,4 0 0 1 3.75,4.18 v 10.59 a 4,4 0 0 1 -3.75,4.17 z"
       id="path25"
       style="fill:url(#D%C3%A9grad%C3%A9_sans_nom_14-4)" />
    <path
       class="cls-5"
       d="m 98.084399,65.564746 a 4,4 0 0 1 -3.75,-4.17 v -10.59 a 4,4 0 0 1 3.75,-4.18 H 131.0044 a 4,4 0 0 1 3.76,4.18 v 10.59 a 4,4 0 0 1 -3.76,4.17 z"
       id="path27"
       style="fill:url(#D%C3%A9grad%C3%A9_sans_nom_14-5)" />
    <rect
       class="cls-6"
       y="25.444746"
       width="40.41"
       height="17.030001"
       rx="3.75"
       id="rect29"
       style="fill:url(#D%C3%A9grad%C3%A9_sans_nom_14-6)"
       x="0.0043991581" />
    <path
       class="cls-7"
       d="m 3.7543992,65.564746 a 4,4 0 0 1 -3.75000004,-4.17 v -10.59 a 4,4 0 0 1 3.75000004,-4.18 H 36.664399 a 4,4 0 0 1 3.75,4.18 v 10.59 a 4,4 0 0 1 -3.75,4.17 z"
       id="path31"
       style="fill:url(#D%C3%A9grad%C3%A9_sans_nom_14-7)" />
    <rect
       class="cls-8"
       x="46.174397"
       y="25.444746"
       width="40.41"
       height="17.030001"
       rx="3.75"
       id="rect33"
       style="fill:url(#D%C3%A9grad%C3%A9_sans_nom_14-8)" />
    <path
       class="cls-9"
       d="m 49.924399,65.564746 a 4,4 0 0 1 -3.75,-4.17 v -10.59 a 4,4 0 0 1 3.75,-4.18 h 32.91 a 4,4 0 0 1 3.75,4.18 v 10.59 a 4,4 0 0 1 -3.75,4.17 z"
       id="path35"
       style="fill:url(#D%C3%A9grad%C3%A9_sans_nom_14-9)" />
  </g>
</svg>
